<svg height="512" viewBox="0 0 64 64" width="512" xmlns="http://www.w3.org/2000/svg"><path d="M49 28a12.671 12.671 0 00-1.35-.47L47 23h-2v-8.26a6.992 6.992 0 011-12.06V9l3 1 3-1V2.68a6.992 6.992 0 011 12.06v11.8l-2.75 2.06A13.076 13.076 0 0049 28z" fill="#c6c5ca"/><path d="M48 15h2v14h-2z" fill="#898890"/><path d="M56.47 43.65a12.589 12.589 0 01-1.07 2.6l2.74 3.65-4.24 4.24-3.65-2.74a12.589 12.589 0 01-2.6 1.07L47 57h-6l-.65-4.53a12.589 12.589 0 01-2.6-1.07l-3.65 2.74-4.24-4.24 2.74-3.65a12.589 12.589 0 01-1.07-2.6L27 43v-6l4.53-.65a12.589 12.589 0 011.07-2.6l-2.74-3.65 4.24-4.24 2.2 1.65 1.45 1.09A13.076 13.076 0 0139 28a12.671 12.671 0 011.35-.47L41 23h6l.65 4.53A12.671 12.671 0 0149 28a13.076 13.076 0 011.25.6L53 26.54l.9-.68 4.24 4.24-2.74 3.65a12.589 12.589 0 011.07 2.6L61 37v6z" fill="#ff9811"/><path d="M30 39h2v2h-2z" fill="#cc7400"/><path d="M49 33.76a8 8 0 00-4-1.7 8.262 8.262 0 00-1-.06 8 8 0 00-8 8 8.023 8.023 0 003.61 6.68A7.962 7.962 0 0044 48a8.239 8.239 0 002-.25 8 8 0 003-13.99z" fill="#ffd422"/><path d="M49 28v5.76a8 8 0 00-4-1.7V23h2l.65 4.53A12.671 12.671 0 0149 28z" fill="#ff9811"/><path d="M39.61 46.68a9.936 9.936 0 00-4.9-4.19L27 39.4l-1-.4a4 4 0 01-8 0l-8.71 3.49A9.982 9.982 0 003 51.77V61h38v-9.23a9.991 9.991 0 00-1.39-5.09z" fill="#3d9ae2"/><path d="M26 36.16V39a4 4 0 01-8 0v-2.84a9.944 9.944 0 008 0z" fill="#ffc477"/><path d="M26 36.16v2a9.944 9.944 0 01-8 0v-2a9.944 9.944 0 008 0z" fill="#ffb655"/><path d="M32 21.27V22h-1a4 4 0 01-3.2-1.6L26 18l-3.36 2.69A5.976 5.976 0 0118.9 22H12v-2a10 10 0 0120 0z" fill="#57565c"/><path d="M31 22a4 4 0 01-3.2-1.6L26 18l-3.36 2.69A5.976 5.976 0 0118.9 22H12v5c0 .24.01.48.03.71A9.991 9.991 0 0029.99 33a8.459 8.459 0 00.93-1.49 9.81 9.81 0 001.03-3.49v-.01c.01-.1.02-.2.02-.3.02-.23.03-.47.03-.71v-5z" fill="#ffc477"/><path d="M32 49h2v12h-2zm-22 0h2v12h-2z" fill="#1e81ce"/><path d="M36 22h-2v-3a12 12 0 00-24 0v3H8v-3a14 14 0 0128 0z" fill="#ff9811"/><path d="M33 34H22v-2h11a1 1 0 001-1v-4h2v4a3 3 0 01-3 3zm-17-9h2v2h-2zm10 0h2v2h-2z" fill="#ee8700"/><path d="M43 26h2v2h-2zm0 26h2v2h-2zm8.766-2.807l1.414-1.414 1.414 1.414-1.414 1.414zM56 39h2v2h-2zm-4.231-8.19l1.414-1.413 1.414 1.414-1.414 1.414z" fill="#cc7400"/><path d="M35 21h-2a2 2 0 00-1 .27V27c0 .24-.01.48-.03.71a1.14 1.14 0 00.19.1A1.988 1.988 0 0033 28h2a1.94 1.94 0 001.3-.49A1.972 1.972 0 0037 26v-3a2.006 2.006 0 00-2-2zm-23 6c0 .24.01.48.03.71A1.9 1.9 0 0111 28H9a2.006 2.006 0 01-2-2v-3a2.006 2.006 0 012-2h2a2 2 0 011 .27z" fill="#ee8700"/></svg>