<svg xmlns="http://www.w3.org/2000/svg" width="140" height="56"><g data-name="Group 1453" transform="translate(-1044 -1776)" opacity=".4" fill="#8a57de"><circle data-name="Ellipse 3260" cx="2" cy="2" r="2" transform="rotate(-90 1438 394)"/><circle data-name="Ellipse 3261" cx="2" cy="2" r="2" transform="rotate(-90 1431.5 387.5)"/><circle data-name="Ellipse 3262" cx="2" cy="2" r="2" transform="rotate(-90 1425 381)"/><circle data-name="Ellipse 3263" cx="2" cy="2" r="2" transform="rotate(-90 1418.5 374.5)"/><circle data-name="Ellipse 3264" cx="2" cy="2" r="2" transform="rotate(-90 1412 368)"/><circle data-name="Ellipse 3260" cx="2" cy="2" r="2" transform="rotate(-90 1446.5 385.5)"/><circle data-name="Ellipse 3261" cx="2" cy="2" r="2" transform="rotate(-90 1440 379)"/><circle data-name="Ellipse 3262" cx="2" cy="2" r="2" transform="rotate(-90 1433.5 372.5)"/><circle data-name="Ellipse 3263" cx="2" cy="2" r="2" transform="rotate(-90 1427 366)"/><circle data-name="Ellipse 3264" cx="2" cy="2" r="2" transform="rotate(-90 1420.5 359.5)"/><circle data-name="Ellipse 3260" cx="2" cy="2" r="2" transform="rotate(-90 1455 377)"/><circle data-name="Ellipse 3261" cx="2" cy="2" r="2" transform="rotate(-90 1448.5 370.5)"/><circle data-name="Ellipse 3262" cx="2" cy="2" r="2" transform="rotate(-90 1442 364)"/><circle data-name="Ellipse 3263" cx="2" cy="2" r="2" transform="rotate(-90 1435.5 357.5)"/><circle data-name="Ellipse 3264" cx="2" cy="2" r="2" transform="rotate(-90 1429 351)"/><circle data-name="Ellipse 3260" cx="2" cy="2" r="2" transform="rotate(-90 1463.5 368.5)"/><circle data-name="Ellipse 3261" cx="2" cy="2" r="2" transform="rotate(-90 1457 362)"/><circle data-name="Ellipse 3262" cx="2" cy="2" r="2" transform="rotate(-90 1450.5 355.5)"/><circle data-name="Ellipse 3263" cx="2" cy="2" r="2" transform="rotate(-90 1444 349)"/><circle data-name="Ellipse 3264" cx="2" cy="2" r="2" transform="rotate(-90 1437.5 342.5)"/><circle data-name="Ellipse 3260" cx="2" cy="2" r="2" transform="rotate(-90 1472 360)"/><circle data-name="Ellipse 3261" cx="2" cy="2" r="2" transform="rotate(-90 1465.5 353.5)"/><circle data-name="Ellipse 3262" cx="2" cy="2" r="2" transform="rotate(-90 1459 347)"/><circle data-name="Ellipse 3263" cx="2" cy="2" r="2" transform="rotate(-90 1452.5 340.5)"/><circle data-name="Ellipse 3264" cx="2" cy="2" r="2" transform="rotate(-90 1446 334)"/><circle data-name="Ellipse 3260" cx="2" cy="2" r="2" transform="rotate(-90 1480.5 351.5)"/><circle data-name="Ellipse 3261" cx="2" cy="2" r="2" transform="rotate(-90 1474 345)"/><circle data-name="Ellipse 3262" cx="2" cy="2" r="2" transform="rotate(-90 1467.5 338.5)"/><circle data-name="Ellipse 3263" cx="2" cy="2" r="2" transform="rotate(-90 1461 332)"/><circle data-name="Ellipse 3264" cx="2" cy="2" r="2" transform="rotate(-90 1454.5 325.5)"/><circle data-name="Ellipse 3260" cx="2" cy="2" r="2" transform="rotate(-90 1489 343)"/><circle data-name="Ellipse 3261" cx="2" cy="2" r="2" transform="rotate(-90 1482.5 336.5)"/><circle data-name="Ellipse 3262" cx="2" cy="2" r="2" transform="rotate(-90 1476 330)"/><circle data-name="Ellipse 3263" cx="2" cy="2" r="2" transform="rotate(-90 1469.5 323.5)"/><circle data-name="Ellipse 3264" cx="2" cy="2" r="2" transform="rotate(-90 1463 317)"/><circle data-name="Ellipse 3260" cx="2" cy="2" r="2" transform="rotate(-90 1497.5 334.5)"/><circle data-name="Ellipse 3261" cx="2" cy="2" r="2" transform="rotate(-90 1491 328)"/><circle data-name="Ellipse 3262" cx="2" cy="2" r="2" transform="rotate(-90 1484.5 321.5)"/><circle data-name="Ellipse 3263" cx="2" cy="2" r="2" transform="rotate(-90 1478 315)"/><circle data-name="Ellipse 3264" cx="2" cy="2" r="2" transform="rotate(-90 1471.5 308.5)"/><circle data-name="Ellipse 3260" cx="2" cy="2" r="2" transform="rotate(-90 1506 326)"/><circle data-name="Ellipse 3261" cx="2" cy="2" r="2" transform="rotate(-90 1499.5 319.5)"/><circle data-name="Ellipse 3262" cx="2" cy="2" r="2" transform="rotate(-90 1493 313)"/><circle data-name="Ellipse 3263" cx="2" cy="2" r="2" transform="rotate(-90 1486.5 306.5)"/><circle data-name="Ellipse 3264" cx="2" cy="2" r="2" transform="rotate(-90 1480 300)"/></g></svg>