<svg xmlns="http://www.w3.org/2000/svg" width="505" height="422" viewBox="37.083 235.165 505 422"><path fill="#9CBEEB" d="M220.723 601.974c-1.025 0-2.111-.304-3.017-.786l-25.821-14.9c-.724-.424-1.086-1.086-1.086-1.933 0-.784.422-1.507 1.086-1.93l7.844-4.463c1.809-1.087 4.163-1.087 6.033 0l25.821 14.9c.724.422 1.086 1.086 1.086 1.931 0 .783-.422 1.506-1.086 1.931l-7.844 4.523c-.905.544-1.99.727-3.016.727zm-17.978-23.891c-.905 0-1.688.182-2.534.723l-7.844 4.524c-.422.181-.603.604-.603 1.087 0 .422.18.785.603 1.085l25.821 14.902c1.63.904 3.561.904 5.068 0l7.844-4.524c.421-.182.602-.604.602-1.086 0-.422-.181-.786-.602-1.086l-25.822-14.902c-.723-.422-1.628-.723-2.533-.723z" opacity=".3"/><path fill="#5793CE" d="M355.021 319.792a.539.539 0 01-.542-.543v-24.554a.54.54 0 01.542-.545c.363 0 .543.303.543.545v24.554c.061.242-.241.543-.543.543z"/><g fill="#5793CE"><path d="M352.933 293.136h4.223v9.17h-4.223z"/><path d="M356.553 303.21c-.845.482-2.172.482-2.956 0-.845-.483-.845-1.267 0-1.688.846-.482 2.172-.482 2.956 0 .844.422.844 1.205 0 1.688z"/></g><path fill="#5793CE" d="M351.583 280.337h6.818v14.418h-6.818z"/><path fill="#396CAA" d="M352.911 294.635v3.138c1.268.543 2.955.543 4.222 0v-3.138c-1.267-.603-3.016-.603-4.222 0z"/><path fill="#5793CE" d="M357.436 296.204c-1.326.785-3.498.785-4.889 0-1.327-.783-1.327-2.051 0-2.835s3.5-.784 4.889 0c1.386.784 1.327 2.051 0 2.835zm21.538 37.464c-.363 0-.604-.3-.604-.543V308.57c0-.361.303-.542.604-.542.303 0 .604.302.604.542v24.555c.059.243-.244.543-.604.543z"/><g fill="#5793CE"><path d="M376.801 306.95h4.343v9.17h-4.343z"/><path d="M380.541 317.026c-.845.484-2.23.484-3.018 0-.843-.482-.843-1.268 0-1.689.846-.482 2.233-.482 3.018 0 .845.421.845 1.206 0 1.69z"/></g><path fill="#5793CE" d="M375.533 294.153h6.999v14.42h-6.999z"/><path fill="#396CAA" d="M376.801 308.511v3.138c1.327.543 3.016.543 4.343 0v-3.138c-1.205-.601-3.016-.601-4.343 0z"/><path fill="#5793CE" d="M381.448 310.018c-1.389.785-3.621.785-5.009 0-1.387-.784-1.387-2.05 0-2.834 1.388-.783 3.62-.783 5.009 0 1.385.726 1.385 2.05 0 2.834z"/><path fill="#DAE4F2" d="M402.441 317.983l9.291-5.49-8.869-11.101-2.292 3.861zM334.81 257.17l14.902-8.566s-.543 8.506-.543 8.566l-8.506 2.653-5.853-2.653z"/><path fill="#DAE4F2" d="M405.035 290.17a10.004 10.004 0 00-3.198-1.205c-1.506-7.844-6.997-16.229-13.51-20.031-1.933-1.146-3.862-1.689-5.493-1.87-.845-9.531-7.539-20.392-15.625-25.036-4.223-2.414-8.023-2.715-10.86-1.207l-.12.06c-.061.06-.12.06-.24.122l-8.809 5.128 2.956 2.293c-2.653 1.146-4.282 4.102-4.282 8.445 0 8.025 5.609 17.737 12.549 21.78l46.635 33.363c5.249 3.017 9.474.543 9.474-5.431-.004-5.973-4.287-13.514-9.477-16.411z"/><path fill="#DAE4F2" d="M346.273 253.31l20.092-11.705c-3.923-1.99-7.421-2.232-10.076-.784l-.121.06c-.06.06-.12.06-.24.122l-8.808 5.128 2.954 2.293c-1.81.783-3.138 2.412-3.801 4.886zm37.225 34.628l14.66-8.565c-2.534-4.346-6.03-8.146-9.774-10.378-.48-.301-1.025-.544-1.509-.785l-18.701 10.92 15.324 8.808z"/><path fill="#DAE4F2" d="M351.341 247.095l6.516 3.8 12.006-7.058c-.846-.723-1.809-1.267-2.716-1.871-1.447-.844-2.834-1.447-4.223-1.809l-11.583 6.938zm45.129 29.682l-11.765 6.878 4.101 4.586 10.679-6.274c-.845-1.811-1.87-3.621-3.015-5.19z"/><path fill="#FFF" d="M395.866 295.541a10.074 10.074 0 00-3.197-1.207c-1.51-7.843-6.999-16.229-13.513-20.03a13.827 13.827 0 00-5.491-1.87c-.845-9.532-7.54-20.392-15.624-25.037-8.689-5.008-15.687-.904-15.687 9.11v1.026c-6.397-2.957-11.283.361-11.283 7.842 0 8.023 5.611 17.737 12.548 21.778l52.308 30.166c5.249 3.018 9.472.543 9.472-5.429-.183-6.094-4.406-13.392-9.533-16.349z"/><path d="M342.25 257.426v-1.085c-3.497-1.39-6.517-.785-8.386 1.447 2.052-1.628 5.009-1.931 8.387-.362zm54.297 37.344a10.095 10.095 0 00-3.196-1.207c-1.51-7.843-7-16.23-13.516-20.03a13.828 13.828 0 00-5.49-1.87c-.845-9.531-7.542-20.39-15.625-25.036-5.43-3.136-10.136-2.714-13.032.423 2.837-2.412 7.3-2.594 12.249.302 8.083 4.646 14.719 15.505 15.625 25.037 1.688.12 3.559.724 5.488 1.87 6.516 3.8 12.006 12.187 13.515 20.03 1.026.12 2.05.543 3.198 1.207 5.249 3.017 9.47 10.317 9.47 16.288 0 2.173-.543 3.862-1.508 5.008 1.449-1.087 2.295-3.075 2.295-5.731 0-5.973-4.224-13.274-9.473-16.291z" fill="#2D84E8"/><path fill="#DAE4F2" d="M341.206 259.885l3.923 1.809-.242-4.343v-.906c0-3.859 1.146-6.635 3.32-7.842 2.171-1.207 5.128-.845 8.445 1.086 7.24 4.163 13.454 14.238 14.298 23.047l.242 2.231 2.232.121c1.388.059 2.833.662 4.462 1.508 5.733 3.317 10.861 10.92 12.248 18.22l.362 1.811 1.871.3c.723.122 1.509.423 2.292.845 4.344 2.533 8.085 8.929 8.085 13.996 0 1.931-.483 3.318-1.448 3.802-.905.481-2.354.301-3.983-.664l-52.305-30.165c-6.096-3.5-11.224-12.428-11.224-19.487 0-2.775.787-4.887 2.233-5.791.541-.363 1.266-.544 2.052-.544.844.123 1.87.363 3.137.966z"/><path fill="#AEBFD6" d="M367.277 292.666l1.386-.723-1.386-1.026zm-4.104-18.701l1.33-.664v.725zm8.085 14.298l1.327-.724-2.653-2.533z"/><g fill="#AEBFD6"><path d="M368.225 291.943l-6.516-3.862c-.363-.24-.542-.724-.542-1.085v-7.602l7.721 4.586v7.602c0 .361-.302.482-.663.361z"/><path d="M364.424 273.301l-7.058 4.526c-.303.24-.062.903.422 1.146l7.24 4.222 7.238 4.224c.422.302.725-.12.422-.725l-6.997-12.79c-.363-.422-.906-.783-1.267-.603z"/></g><g fill="#FFF"><path d="M366.854 292.598l-6.516-3.862c-.36-.24-.543-.724-.543-1.085v-7.602l7.721 4.586v7.603c-.059.421-.359.542-.662.36z"/><path d="M363.053 274.016l-7.058 4.525c-.3.24-.059.906.424 1.146l7.24 4.223 7.238 4.223c.422.303.722-.121.422-.723l-6.997-12.79c-.363-.421-.966-.785-1.269-.604z"/></g><path fill="#D4ECFF" d="M354.238 300.608c0 .482-.243.604-.603.362-.363-.241-.604-.784-.604-1.207 0-.481.241-.603.604-.361.36.18.603.724.603 1.206zm24.132 13.875c0 .482-.241.604-.604.362-.362-.24-.603-.784-.603-1.207 0-.481.24-.603.603-.36.362.181.604.723.604 1.205z"/><g opacity=".3"><path fill="#9CBEEB" d="M448.172 530.659c-.726 0-1.509-.24-2.052-.541l-46.756-26.968c-.665-.422-1.086-.965-1.086-1.57 0-.543.3-1.085.845-1.387l77.765-44.885c.967-.544 2.655-.544 3.742.12l46.756 26.968c.664.423 1.086.966 1.086 1.569 0 .543-.302 1.087-.845 1.387l-77.768 44.826c-.541.36-1.144.48-1.687.48zm30.345-74.387c-.422 0-.723.12-.965.24l-77.766 44.827-.242.24s.122.24.423.422l46.814 26.908c.725.422 1.811.422 2.354.12l77.767-44.825.241-.24s-.122-.241-.422-.423l-46.757-26.968c-.481-.181-1.024-.301-1.447-.301zM239.852 588.637c-3.499 0-6.938-.725-9.592-2.231L57.052 486.379c-2.654-1.57-4.163-3.621-4.163-5.972 0-2.354 1.509-4.346 4.163-5.974l59.124-34.088c5.309-3.076 13.876-3.076 19.185 0l109.198 63.164c4.887 2.898 12.911 2.898 17.797 0l147.446-85.123c2.233-1.268 3.5-2.958 3.5-4.766 0-1.811-1.267-3.441-3.5-4.766l-43.558-25.16c-4.887-2.895-12.91-2.895-17.796 0l-85.308 49.23c-5.309 3.076-19.184 0-19.184 0l.664-1.086s12.91 2.897 17.797 0l85.308-49.228c5.308-3.078 13.874-3.078 19.185 0l43.558 25.155c2.653 1.569 4.164 3.62 4.164 5.974 0 2.23-1.509 4.343-4.164 5.973l-147.447 85.065c-5.309 3.076-13.876 3.076-19.184 0l-109.319-63.045c-4.886-2.897-12.911-2.897-17.797 0l-59.124 34.086c-2.232 1.268-3.5 2.956-3.5 4.766s1.267 3.439 3.5 4.767l173.208 100.027c4.886 2.896 12.911 2.896 17.796 0L472.73 456.03c.298-.242.723-.12.964.239.241.363.12.724-.241.968L249.446 586.342c-2.656 1.57-6.154 2.295-9.594 2.295z"/><path fill="#9CBEEB" d="M405.518 539.106c-.12 0-.242 0-.302-.12l-37.283-21.538c-.302-.242-.424-.663-.242-.965.181-.303.663-.423.967-.243l37.283 21.538c.302.243.422.664.241.966-.121.242-.363.362-.664.362z"/><path fill="#FFF" d="M304.223 315.1h-22.08c-.302 0-.664-.303-.664-.663v-12.79c0-.241.121-.301.241-.422s.302-.241.422-.241h22.08c.301 0 .664.302.664.663v12.79c-.058.302-.239.663-.663.663zm-21.416-1.388h20.754V302.31h-20.754v11.402zm-37.706 245.303c-4.284 0-8.507-.965-11.825-2.775-3.318-1.932-5.128-4.464-5.128-7.24 0-2.773 1.81-5.31 5.128-7.24 6.517-3.738 17.133-3.738 23.649 0 3.318 1.932 5.128 4.467 5.128 7.24 0 2.776-1.81 5.309-5.128 7.24-3.197 1.808-7.481 2.775-11.824 2.775zm0-18.763c-4.042 0-8.084.846-11.161 2.655-2.896 1.567-4.466 3.86-4.466 6.094 0 2.23 1.57 4.343 4.466 6.093 6.153 3.498 16.168 3.498 22.262 0 2.896-1.567 4.464-3.862 4.464-6.093s-1.568-4.345-4.464-6.094c-3.018-1.751-7.059-2.655-11.101-2.655z"/><path fill="#9CBEEB" d="M203.895 535.184c-4.283 0-8.506-.966-11.825-2.774-3.318-1.931-5.128-4.464-5.128-7.24 0-2.775 1.81-5.31 5.128-7.24 6.516-3.741 17.134-3.741 23.649 0 3.318 1.932 5.128 4.465 5.128 7.24 0 2.776-1.81 5.31-5.128 7.24-3.317 1.81-7.6 2.774-11.824 2.774zm0-18.763c-4.042 0-8.083.845-11.161 2.653-2.896 1.569-4.464 3.862-4.464 6.095 0 2.23 1.568 4.344 4.464 6.093 6.154 3.5 16.168 3.5 22.262 0 2.896-1.566 4.465-3.861 4.465-6.093 0-2.23-1.569-4.344-4.465-6.095-3.017-1.687-7.059-2.653-11.101-2.653zm-41.266-5.007c-4.284 0-8.506-.965-11.825-2.775-3.319-1.93-5.128-4.463-5.128-7.24 0-2.774 1.81-5.308 5.128-7.24 6.517-3.738 17.133-3.738 23.649 0 3.318 1.933 5.128 4.466 5.128 7.24 0 2.777-1.81 5.31-5.128 7.24-3.317 1.81-7.54 2.775-11.824 2.775zm0-18.763c-4.042 0-8.084.845-11.161 2.655-2.897 1.569-4.465 3.86-4.465 6.093s1.568 4.344 4.465 6.095c6.153 3.498 16.168 3.498 22.261 0 2.896-1.57 4.463-3.861 4.463-6.095 0-2.23-1.568-4.343-4.463-6.093-3.076-1.81-7.118-2.655-11.1-2.655zm-41.325-5.127c-4.284 0-8.506-.967-11.825-2.774-3.319-1.933-5.128-4.466-5.128-7.24 0-2.776 1.809-5.31 5.128-7.24 6.516-3.74 17.134-3.74 23.649 0 3.317 1.932 5.128 4.464 5.128 7.24 0 2.774-1.81 5.308-5.128 7.24-3.318 1.869-7.541 2.774-11.824 2.774zm0-18.701c-4.042 0-8.083.843-11.162 2.652-2.896 1.568-4.464 3.86-4.464 6.094s1.569 4.344 4.464 6.093c6.154 3.5 16.169 3.5 22.263 0 2.896-1.567 4.463-3.86 4.463-6.093s-1.568-4.344-4.463-6.094c-3.017-1.81-7.059-2.652-11.101-2.652z"/><path fill="#9CBEEB" d="M132.826 471.597a.638.638 0 01-.543-.302c-.242-.301-.121-.724.241-.967l26.967-15.564c.302-.242.724-.122.965.24.241.302.12.724-.241.965l-26.967 15.566c-.241-.06-.301.062-.422.062zm147.93 96.587c-.121 0-.241 0-.301-.12l-22.383-13.091c-.301-.242-.421-.665-.241-.965.182-.304.664-.424.966-.242l22.383 13.092c.302.24.422.663.241.965-.243.18-.424.36-.665.36z"/></g><path opacity=".3" fill="#D5E1F2" d="M409.5 484.676l-50.074-28.96-90.133 52.005 51.16 28.295zm-67.932-33.545l-47.601-27.57-85.727 49.591 48.685 27.028z"/><path fill="#2D84E8" d="M285.521 344.77h-7.842c1.207-2.654 1.87-4.284 1.87-4.284l77.887-30.406v130.192c0 .241-.243.425-.423.665L285.944 481.9c-.121.122-.301.122-.422.241l-.001-137.371z"/><path fill="#2D84E8" d="M239.611 326.37l44.825 25.52v130.616c-.543 0-.966-.122-1.448-.422l-42.714-24.677c-.422-.242-.664-.541-.664-.904V326.37h.001z"/><path opacity=".6" fill="#FFF" d="M243.049 340.668l36.741 21.054v107.569c-.422 0-.784-.121-1.146-.362l-35.051-20.331c-.361-.182-.543-.482-.543-.723l-.001-107.207z"/><path d="M246.293 387.525l5.068 2.897v-.845l-5.068-2.895zm5.913 3.379l2.714 1.57v-.846l-2.714-1.568zm6.997 4.103l1.991 1.087v-.846l-1.99-1.145zm-1.447-.904l.663.421v-.904l-.663-.362zm-1.991-1.147l1.205.724v-.905l-1.205-.724zM251 394.223l1.99 1.146v-.845l-1.99-1.206zm-4.707-2.655l3.921 2.232v-.903l-3.92-2.233zm7.3 14.178l3.861 2.232v-.904l-3.86-2.232zm-1.991-1.206l1.206.724v-.845l-1.206-.725zm1.93-2.836l3.922 2.233v-.907l-3.922-2.17zm-1.93-1.144l1.206.721v-.904l-1.206-.725zm1.991 22.441l-7.3-4.223v.845l7.3 4.283zm2.654 1.509l-1.87-1.086v.904l1.87 1.027zm11.824.783l-7.359-4.223v.905l7.36 4.223zm2.655 1.569l-1.87-1.087v.907l1.87 1.024zm-22.442-8.99l-1.99-1.086v.845l1.99 1.147zm11.462 2.655l-2.05-1.147v.846l2.05 1.146zm-6.816.12l-3.862-2.292v.845l3.861 2.231zm1.99 1.086l-1.207-.724v.906l1.207.723zm4.767 2.777l-3.922-2.293v.904l3.922 2.234zm1.929 1.085l-1.206-.724v.904l1.206.725zm-1.87-3.077l-2.05-1.207v.906l2.05 1.145zm4.585 2.655l-3.86-2.233v.906l3.86 2.231zm2.052 1.145l-1.268-.723v.905l1.268.724zm-16.049-9.168l-4.04-2.416v.907l4.04 2.292zm3.74 2.11l-2.955-1.749v.904l2.955 1.75zm2.716 1.568l-1.93-1.146v.906l1.93 1.085zm13.514-17.495l4.042 2.354v-.845l-4.042-2.354zm-3.74-2.112l2.956 1.631v-.787l-2.956-1.749zm-2.774-1.629l1.99 1.146v-.904l-1.99-1.085zm4.765.785l4.101 2.352v-.905l-4.1-2.354zm-3.68-2.173l2.895 1.692v-.847l-2.895-1.69zm-2.775-1.568l1.991 1.145v-.904l-1.992-1.146zm-7.904 7.421l1.387.785v-.846l-1.387-.845zm-2.594-1.449l1.81.966v-.845l-1.81-1.025zm-1.207 12.49l-4.102-2.294v.785l4.102 2.413zm3.679 2.112l-2.895-1.63v.845l2.895 1.69zm2.776 1.627l-1.99-1.147v.907l1.99 1.146zm-9.17-7.299l-1.387-.783v.903l1.387.784zm2.594 1.567l-1.809-1.084v.904l1.81.965zm3.68 2.052l-2.895-1.628v.844l2.895 1.69zm1.086-16.59l1.387.724v-.785l-1.387-.844zm-2.533-1.507l1.75 1.025v-.845l-1.75-1.088zm-3.741-2.112l2.957 1.628v-.845l-2.957-1.689zm8.688 6.876l2.895 1.63v-.846l-2.895-1.688zm-4.766-2.653l3.921 2.292v-.904l-3.92-2.234zm-1.991-1.148l1.207.726v-.846l-1.207-.724zm-1.931-1.085l1.206.724v-.905l-1.206-.724zm1.931 11.282l3.921 2.232v-.846l-3.92-2.292zm-1.931-1.207l1.146.724v-.844l-1.146-.664zm2.595 3.559l1.388.784v-.904l-1.388-.724zm4.163-1.569l1.326.784v-.904l-1.326-.783zm1.93 1.087l3.318 1.931v-.906l-3.318-1.869zm3.861 2.232l1.99 1.147v-.845l-1.99-1.147zm-12.549-3.258l1.81 1.025v-.843l-1.81-1.026zm.182 2.051l1.326.785v-.844l-1.326-.845zm-2.655-1.448l1.87.965v-.783l-1.87-1.086zm7.179-1.87l1.267.725v-.905l-1.267-.724zm-1.87-1.145l1.206.723v-.846l-1.206-.663zm7.119-10.016l4.223 2.413v-.845l-4.223-2.473zm-4.767-2.716l3.983 2.294v-.845l-3.983-2.353zm-1.99-1.145l1.206.724v-.904l-1.206-.726zm-1.931-1.087l1.267.664v-.845l-1.267-.723zm-1.025-.602l-2.715-1.568v-.906l2.715 1.568z" fill="#2D84E8"/><path fill="#2070CD" d="M287.875 312.614v168.262l-1.87 1.085c-.302.24-.905.302-1.327.302-.543 0-.543-.302-.965-.543l-.301-.121.422-19.911v-31.249l-.905-117.706h4.947v-.119h-.001z"/><path fill="#DAE4F2" d="M282.868 461.812v-111.13l1.87 1.087v130.494h-.423c-.241 0-.421-.121-.664-.24-.12 0-.241-.122-.302-.122l-.422-.242-.059-19.847z"/><path opacity=".6" fill="#FFF" d="M354.056 317.319l-62.561 36.139v121.684l62.561-36.138z"/><path fill="#DAE4F2" d="M286.065 351.889l71.069-40.965c.786-.421.663-1.086-.24-1.629l-42.713-24.675c-.906-.422-2.112-.543-2.777-.122l-71.069 40.965c-.784.423-.664 1.087.242 1.63l42.714 24.676c.843.481 2.05.481 2.774.12z"/><path fill="#EEF3F9" d="M312.068 288.904l34.145 19.607 3.32-.543v2.535l-64.192 36.982-32.518-22.022z"/><path fill="#AEBFD6" d="M247.876 323.353v2.533l37.465 21.599v-2.534z"/><path fill="#FFF" d="M285.341 344.951l64.192-36.983-37.465-21.598-64.192 36.983z"/><g transform="translate(1184.844 96.602)"><path fill="#2D84E8" d="M-859.298 208.592l1.086-.542-.12-.422-9.471-5.612-1.327.664.239.423z"/><linearGradient id="a" gradientUnits="userSpaceOnUse" x1="-5878.952" y1="-205.86" x2="-5879.981" y2="-206.084" gradientTransform="matrix(11.1752 0 0 5.8428 64840.535 1408.296)"><stop offset="0" stop-color="#77b2f6"/><stop offset="1" stop-color="#c7e1ff"/></linearGradient><path fill="url(#a)" d="M-867.926 202.559l-.965.544-.664-.423 1.629-.904 10.377 5.852-.663.422z"/></g><g transform="translate(1179.367 100.252)"><path fill="#2D84E8" d="M-856.944 206.722l1.027-.542v-.423l-9.473-5.552-1.327.544.181.484z"/><linearGradient id="b" gradientUnits="userSpaceOnUse" x1="-5856.806" y1="-205.835" x2="-5857.834" y2="-206.063" gradientTransform="matrix(11.0727 0 0 5.8428 63994.977 1406.288)"><stop offset="0" stop-color="#77b2f6"/><stop offset="1" stop-color="#c7e1ff"/></linearGradient><path fill="url(#b)" d="M-865.51 200.689l-1.026.544-.663-.363 1.689-.964 10.256 5.911-.663.363z"/></g><g transform="translate(1175.018 103.205)"><path fill="#2D84E8" d="M-855.64 205.612l.965-.603-.12-.484-9.473-5.49-1.327.664.362.301z"/><linearGradient id="c" gradientUnits="userSpaceOnUse" x1="-5839.428" y1="-205.815" x2="-5840.458" y2="-206.044" gradientTransform="matrix(11.0727 0 0 5.8428 63803.828 1404.971)"><stop offset="0" stop-color="#77b2f6"/><stop offset="1" stop-color="#c7e1ff"/></linearGradient><path fill="url(#c)" d="M-864.268 199.457l-.965.543-.663-.301 1.628-1.026 10.256 5.972-.663.364z"/></g><g transform="translate(1169.54 105.728)"><path fill="#2D84E8" d="M-853.286 204.851l1.025-.543-.12-.542-9.472-5.491-1.329.665.243.421z"/><linearGradient id="d" gradientUnits="userSpaceOnUse" x1="-5817.796" y1="-206.822" x2="-5818.824" y2="-207.054" gradientTransform="matrix(11.1752 0 0 5.9453 64163.055 1431.345)"><stop offset="0" stop-color="#77b2f6"/><stop offset="1" stop-color="#c7e1ff"/></linearGradient><path fill="url(#d)" d="M-861.853 198.697l-1.086.664-.665-.421 1.751-1.026 10.255 5.973-.663.421z"/></g><g transform="translate(1153.808 114.855)"><path fill="#2D84E8" d="M-846.682 201.05l1.085-.663-.061-.423-9.531-5.551-1.268.664.181.362z"/><linearGradient id="e" gradientUnits="userSpaceOnUse" x1="-5754.92" y1="-205.732" x2="-5755.949" y2="-205.956" gradientTransform="matrix(11.1752 0 0 5.8428 63467.094 1399.884)"><stop offset="0" stop-color="#77b2f6"/><stop offset="1" stop-color="#c7e1ff"/></linearGradient><path fill="url(#e)" d="M-855.25 194.896l-1.026.543-.663-.362 1.689-.966 10.317 5.913-.664.363z"/></g><g transform="translate(1149.458 117.808)"><path fill="#2D84E8" d="M-845.441 199.818l1.026-.542v-.543l-9.471-5.491-1.328.664.24.421z"/><linearGradient id="f" gradientUnits="userSpaceOnUse" x1="-5737.284" y1="-206.737" x2="-5738.313" y2="-206.973" gradientTransform="matrix(11.0727 0 0 5.9453 62683.09 1425.824)"><stop offset="0" stop-color="#77b2f6"/><stop offset="1" stop-color="#c7e1ff"/></linearGradient><path fill="url(#f)" d="M-854.007 193.663l-.967.664-.663-.421 1.63-1.027 10.256 5.974-.664.423z"/></g><g transform="translate(1144.68 120.33)"><path fill="#2D84E8" d="M-843.725 199.058l1.025-.543v-.421l-9.591-5.612-1.208.664.181.422z"/><linearGradient id="g" gradientUnits="userSpaceOnUse" x1="-5718.188" y1="-205.693" x2="-5719.216" y2="-205.921" gradientTransform="matrix(11.0727 0 0 5.8428 62473.32 1397.79)"><stop offset="0" stop-color="#77b2f6"/><stop offset="1" stop-color="#c7e1ff"/></linearGradient><path fill="url(#g)" d="M-852.291 192.905l-1.027.663-.663-.422 1.69-.905 10.254 5.853-.663.421z"/></g><g transform="translate(1139.202 123.981)"><path fill="#2D84E8" d="M-841.311 197.188l.965-.543-.12-.422-9.473-5.551-1.327.603.362.424z"/><linearGradient id="h" gradientUnits="userSpaceOnUse" x1="-5696.299" y1="-205.667" x2="-5697.328" y2="-205.895" gradientTransform="matrix(11.0727 0 0 5.8428 62233.34 1395.774)"><stop offset="0" stop-color="#77b2f6"/><stop offset="1" stop-color="#c7e1ff"/></linearGradient><path fill="url(#h)" d="M-849.939 191.155l-.965.544-.663-.363 1.628-.965 10.257 5.972-.664.302z"/></g><g transform="translate(1123.899 132.41)"><path fill="#2D84E8" d="M-835.18 194.025l1.146-.542-.121-.422-9.471-5.613-1.328.666.182.421z"/><linearGradient id="i" gradientUnits="userSpaceOnUse" x1="-5635.398" y1="-205.61" x2="-5636.427" y2="-205.834" gradientTransform="matrix(11.1752 0 0 5.8428 62142.926 1392.27)"><stop offset="0" stop-color="#77b2f6"/><stop offset="1" stop-color="#c7e1ff"/></linearGradient><path fill="url(#i)" d="M-843.747 187.992l-1.025.543-.664-.421 1.689-.906 10.316 5.853-.603.422z"/></g><g transform="translate(1119.12 134.933)"><path fill="#2D84E8" d="M-833.465 193.265l1.086-.542-.121-.422-9.473-5.492-1.326.545.241.422z"/><linearGradient id="j" gradientUnits="userSpaceOnUse" x1="-5616.301" y1="-205.588" x2="-5617.33" y2="-205.813" gradientTransform="matrix(11.1752 0 0 5.8428 61931.207 1391.387)"><stop offset="0" stop-color="#77b2f6"/><stop offset="1" stop-color="#c7e1ff"/></linearGradient><path fill="url(#j)" d="M-842.033 187.232l-1.025.544-.664-.301 1.689-1.026 10.317 5.973-.663.301z"/></g><g transform="translate(1113.643 138.584)"><path fill="#2D84E8" d="M-831.051 191.515l.965-.662v-.423l-9.472-5.55-1.327.662.241.364z"/><linearGradient id="k" gradientUnits="userSpaceOnUse" x1="-5594.156" y1="-205.563" x2="-5595.185" y2="-205.792" gradientTransform="matrix(11.0727 0 0 5.8428 61112.602 1389.374)"><stop offset="0" stop-color="#77b2f6"/><stop offset="1" stop-color="#c7e1ff"/></linearGradient><path fill="url(#k)" d="M-839.679 185.362l-.965.544-.664-.364 1.629-.963 10.257 5.971-.664.303z"/></g><g transform="translate(1108.166 140.41)"><path fill="#2D84E8" d="M-828.697 191.455l1.025-.542-.12-.543-9.472-5.55-1.328.662.302.484z"/><linearGradient id="l" gradientUnits="userSpaceOnUse" x1="-5572.266" y1="-206.568" x2="-5573.295" y2="-206.805" gradientTransform="matrix(11.0727 0 0 5.9453 60872.613 1416.443)"><stop offset="0" stop-color="#77b2f6"/><stop offset="1" stop-color="#c7e1ff"/></linearGradient><path fill="url(#l)" d="M-837.264 185.3l-1.026.666-.664-.484 1.69-.965 10.256 5.912-.664.484z"/></g><g transform="translate(1143 183)"><linearGradient id="m" gradientUnits="userSpaceOnUse" x1="-5636.971" y1="-169.791" x2="-5638.077" y2="-169.791" gradientTransform="matrix(3.0325 0 0 3.6678 16244.227 792.575)"><stop offset="0" stop-color="#c0d6ff"/><stop offset=".298" stop-color="#c5dbff"/><stop offset=".649" stop-color="#d3e9ff"/><stop offset="1" stop-color="#e9ffff"/></linearGradient><path fill="url(#m)" d="M-853.194 170.458c0-.845.603-1.932 1.327-2.413.362-.241.725-.241.966-.12l.966.602h-.604v.242c0 .844-.603 1.93-1.327 2.413-.12 0-.24.12-.24.12l.24.482-.964-.603c-.244 0-.364-.242-.364-.723z"/><linearGradient id="n" gradientUnits="userSpaceOnUse" x1="-5613.63" y1="-158.889" x2="-5614.752" y2="-158.889" gradientTransform="matrix(2.4709 0 0 3.2927 13021.346 693.45)"><stop offset="0" stop-color="#5778ff"/><stop offset=".178" stop-color="#5c7dff"/><stop offset=".388" stop-color="#6a8aff"/><stop offset=".613" stop-color="#82a0ff"/><stop offset=".849" stop-color="#a3beff"/><stop offset="1" stop-color="#bcd5ff"/></linearGradient><path fill="url(#n)" d="M-852.23 171.06c0 .844.603 1.207 1.327.844.725-.481 1.327-1.567 1.327-2.412s-.603-1.207-1.327-.845-1.327 1.447-1.327 2.413z"/><path fill="#3F38FC" d="M-851.627 170.698c0 .483.363.725.845.483.484-.242.846-.845.846-1.328 0-.481-.361-.724-.846-.481-.482.12-.845.844-.845 1.326z"/></g><g transform="translate(1245 125)"><linearGradient id="o" gradientUnits="userSpaceOnUse" x1="-6043.536" y1="-170.465" x2="-6044.642" y2="-170.465" gradientTransform="matrix(3.0325 0 0 3.6678 17437.66 817.333)"><stop offset="0" stop-color="#c0d6ff"/><stop offset=".298" stop-color="#c5dbff"/><stop offset=".649" stop-color="#d3e9ff"/><stop offset="1" stop-color="#e9ffff"/></linearGradient><path fill="url(#o)" d="M-892.693 192.742c0-.844.604-1.932 1.328-2.413.359-.241.723-.241.966-.12l.966.602h-.604v.243c0 .845-.604 1.93-1.327 2.412-.121 0-.242.122-.242.122l.242.481-.966-.604c-.123.001-.363-.362-.363-.723z"/><linearGradient id="p" gradientUnits="userSpaceOnUse" x1="-6019.869" y1="-159.641" x2="-6020.992" y2="-159.641" gradientTransform="matrix(2.4709 0 0 3.2927 13985.658 718.091)"><stop offset="0" stop-color="#5778ff"/><stop offset=".178" stop-color="#5c7dff"/><stop offset=".388" stop-color="#6a8aff"/><stop offset=".613" stop-color="#82a0ff"/><stop offset=".849" stop-color="#a3beff"/><stop offset="1" stop-color="#bcd5ff"/></linearGradient><path fill="url(#p)" d="M-891.728 193.224c0 .845.603 1.208 1.327.845.724-.481 1.328-1.568 1.328-2.413 0-.846-.604-1.207-1.328-.846-.604.483-1.327 1.569-1.327 2.414z"/><path fill="#3F38FC" d="M-891.125 192.983c0 .483.363.725.845.483.483-.241.845-.845.845-1.328 0-.48-.361-.724-.845-.48-.482.119-.845.721-.845 1.325z"/></g><g transform="translate(1143 326)"><linearGradient id="q" gradientUnits="userSpaceOnUse" x1="-5626.632" y1="-162.003" x2="-5627.738" y2="-162.003" gradientTransform="matrix(2.7545 0 0 3.4737 14648.435 711.705)"><stop offset="0" stop-color="#c0d6ff"/><stop offset=".298" stop-color="#c5dbff"/><stop offset=".649" stop-color="#d3e9ff"/><stop offset="1" stop-color="#e9ffff"/></linearGradient><path fill="url(#q)" d="M-853.194 149.505c0-.785.542-1.749 1.207-2.232a.859.859 0 01.905-.121l.905.544c-.242-.121-.544-.121-.905.121-.664.422-1.207 1.448-1.207 2.231 0 .424.12.664.302.786l-.905-.544c-.182-.121-.302-.484-.302-.785z"/><linearGradient id="r" gradientUnits="userSpaceOnUse" x1="-5594.327" y1="-143.975" x2="-5595.503" y2="-143.975" gradientTransform="matrix(2.1424 0 0 2.9576 11135.488 575.124)"><stop offset="0" stop-color="#5778ff"/><stop offset=".178" stop-color="#5c7dff"/><stop offset=".388" stop-color="#6a8aff"/><stop offset=".613" stop-color="#82a0ff"/><stop offset=".849" stop-color="#a3beff"/><stop offset="1" stop-color="#bcd5ff"/></linearGradient><path fill="url(#r)" d="M-851.988 150.169c.12 0 .241-.121.241-.243.121.243.301.243.664.122.422-.24.784-.783.784-1.207 0-.362-.121-.542-.423-.542v-.604h.544c.241.122.302.423.302.784 0 .786-.544 1.751-1.207 2.233a.856.856 0 01-.905.12l-.241-.423c.119-.179.241-.179.241-.24z"/><linearGradient id="s" gradientUnits="userSpaceOnUse" x1="-5579.066" y1="-139.591" x2="-5580.637" y2="-139.591" gradientTransform="matrix(1.9384 0 0 2.8544 9964.185 547.524)"><stop offset="0" stop-color="#c0d6ff"/><stop offset=".298" stop-color="#c5dbff"/><stop offset=".649" stop-color="#d3e9ff"/><stop offset="1" stop-color="#e9ffff"/></linearGradient><path fill="url(#s)" d="M-852.29 149.926c0-.784.543-1.747 1.207-2.23a.854.854 0 01.905-.121h-.544v.604c-.12 0-.24 0-.302.12-.422.242-.784.784-.784 1.207 0 .12 0 .24.122.363-.122.12-.242.12-.242.24-.12 0-.241.121-.241.121l.241.422c-.302-.06-.362-.303-.362-.726z"/><linearGradient id="t" gradientUnits="userSpaceOnUse" x1="-5578.874" y1="-139.591" x2="-5580.174" y2="-139.591" gradientTransform="matrix(1.9384 0 0 2.8544 9964.185 547.524)"><stop offset="0" stop-color="#5778ff"/><stop offset=".178" stop-color="#5c7dff"/><stop offset=".388" stop-color="#6a8aff"/><stop offset=".613" stop-color="#82a0ff"/><stop offset=".849" stop-color="#a3beff"/><stop offset="1" stop-color="#bcd5ff"/></linearGradient><path fill="url(#t)" d="M-852.29 149.926c0-.784.543-1.747 1.207-2.23a.854.854 0 01.905-.121h-.544v.604c-.12 0-.24 0-.302.12-.422.242-.784.784-.784 1.207 0 .12 0 .24.122.363-.122.12-.242.12-.242.24-.12 0-.241.121-.241.121l.241.422c-.302-.06-.362-.303-.362-.726z"/><path fill="#3F38FC" d="M-850.359 148.841c0 .424-.302 1.026-.784 1.207-.303.121-.543.121-.664-.122.422-.421.904-1.085.967-1.688.421.001.481.241.481.603z"/><path fill="#3F38FC" d="M-851.627 150.048c0-.122-.12-.242-.12-.363 0-.422.302-1.024.784-1.206.121-.122.242-.122.303-.122-.123.545-.545 1.208-.967 1.691z"/><linearGradient id="u" gradientUnits="userSpaceOnUse" x1="-5625.645" y1="-162.721" x2="-5626.745" y2="-162.721" gradientTransform="matrix(2.7675 0 0 3.4737 14781.182 678.06)"><stop offset="0" stop-color="#c0d6ff"/><stop offset=".298" stop-color="#c5dbff"/><stop offset=".649" stop-color="#d3e9ff"/><stop offset="1" stop-color="#e9ffff"/></linearGradient><path fill="url(#u)" d="M-789.608 111.136a.855.855 0 01.906-.122l.904.543c-.24-.12-.542-.12-.904.121-.663.423-1.208 1.447-1.208 2.232 0 .422.123.664.302.786l-.903-.545c-.241-.12-.302-.422-.302-.784-.122-.904.422-1.93 1.205-2.231z"/><linearGradient id="v" gradientUnits="userSpaceOnUse" x1="-5592.352" y1="-144.84" x2="-5593.528" y2="-144.84" gradientTransform="matrix(2.1424 0 0 2.9576 11193.54 541.484)"><stop offset="0" stop-color="#5778ff"/><stop offset=".178" stop-color="#5c7dff"/><stop offset=".388" stop-color="#6a8aff"/><stop offset=".613" stop-color="#82a0ff"/><stop offset=".849" stop-color="#a3beff"/><stop offset="1" stop-color="#bcd5ff"/></linearGradient><path fill="url(#v)" d="M-789.608 113.972a.26.26 0 00.243-.242c.121.242.301.242.663.12.421-.241.784-.784.784-1.207 0-.363-.12-.542-.422-.542v-.604h.543c.242.122.302.422.302.783 0 .786-.543 1.752-1.207 2.232a.857.857 0 01-.906.121l-.24-.421c0-.12.12-.12.24-.24z"/><linearGradient id="w" gradientUnits="userSpaceOnUse" x1="-5576.832" y1="-140.464" x2="-5578.404" y2="-140.464" gradientTransform="matrix(1.9384 0 0 2.8544 10022.125 513.876)"><stop offset="0" stop-color="#c0d6ff"/><stop offset=".298" stop-color="#c5dbff"/><stop offset=".649" stop-color="#d3e9ff"/><stop offset="1" stop-color="#e9ffff"/></linearGradient><path fill="url(#w)" d="M-790.03 113.79c0-.786.545-1.749 1.209-2.232.3-.241.66-.241.903-.12h-.544v.603c-.12 0-.24 0-.301.12-.423.242-.784.785-.784 1.207 0 .121 0 .241.12.364-.12.12-.239.12-.239.24-.121 0-.241.12-.241.12l.241.421c-.182-.058-.364-.301-.364-.723z"/><linearGradient id="x" gradientUnits="userSpaceOnUse" x1="-5576.64" y1="-140.464" x2="-5577.94" y2="-140.464" gradientTransform="matrix(1.9384 0 0 2.8544 10022.125 513.876)"><stop offset="0" stop-color="#5778ff"/><stop offset=".178" stop-color="#5c7dff"/><stop offset=".388" stop-color="#6a8aff"/><stop offset=".613" stop-color="#82a0ff"/><stop offset=".849" stop-color="#a3beff"/><stop offset="1" stop-color="#bcd5ff"/></linearGradient><path fill="url(#x)" d="M-790.03 113.79c0-.786.545-1.749 1.209-2.232.3-.241.66-.241.903-.12h-.544v.603c-.12 0-.24 0-.301.12-.423.242-.784.785-.784 1.207 0 .121 0 .241.12.364-.12.12-.239.12-.239.24-.121 0-.241.12-.241.12l.241.421c-.182-.058-.364-.301-.364-.723z"/><path fill="#3F38FC" d="M-787.979 112.643c0 .423-.302 1.026-.783 1.207-.302.122-.543.122-.664-.12.421-.424.905-1.087.965-1.689.242.06.482.3.482.602z"/><path fill="#3F38FC" d="M-789.426 113.79c0-.12-.12-.24-.12-.362 0-.424.302-1.026.784-1.207.122-.12.241-.12.301-.12-.06.662-.483 1.328-.965 1.689z"/></g><path fill="#2D84E8" d="M349.169 383.321h-7.781c1.207-2.654 1.871-4.283 1.871-4.283l77.403-30.346v130.072c0 .24-.241.422-.423.663l-70.586 40.904c-.121.122-.301.122-.423.242l-.061-137.252z"/><path fill="#2D84E8" d="M303.561 364.98l44.523 25.52v130.494c-.544 0-.965-.12-1.447-.422l-42.473-24.675c-.422-.243-.665-.544-.665-.904V364.98h.062z"/><path opacity=".6" fill="#FFF" d="M306.939 379.218l36.499 20.995V507.72c-.423 0-.784-.12-1.146-.361l-34.811-20.271c-.361-.181-.543-.482-.543-.723V379.218h.001z"/><path d="M310.201 426.052l5.007 2.896v-.845l-5.007-2.895zm5.852 3.378l2.715 1.57v-.906l-2.715-1.508zm6.937 4.103l2.051 1.086v-.904l-2.05-1.086zm-1.387-.904l.663.422v-.905l-.663-.362zm-1.993-1.147l1.208.724v-.905l-1.208-.724zm-4.763 1.267l2.05 1.086v-.784l-2.05-1.208zm-4.646-2.655l3.921 2.233v-.904l-3.92-2.234zm7.239 14.118l3.861 2.292v-.904l-3.86-2.233zm-1.99-1.147l1.266.725v-.845l-1.267-.725zm1.99-2.836l3.861 2.234v-.907l-3.86-2.171zm-1.99-1.146l1.205.724v-.904l-1.206-.725zm1.99 22.383l-7.239-4.164v.784l7.24 4.284zm2.595 1.508l-1.81-1.087v.906l1.81 1.086zm11.825.845l-7.3-4.225v.907l7.3 4.163zm2.593 1.509l-1.81-1.027v.845l1.81 1.025zm-22.262-8.93l-1.99-1.145v.903l1.99 1.146zm11.343 2.594l-1.99-1.147v.847l1.99 1.206zm-6.698.122l-3.92-2.232v.844l3.92 2.23zm1.932 1.146l-1.207-.725v.904l1.207.725zm4.705 2.714l-3.863-2.231v.844l3.863 2.292zm1.93 1.146l-1.145-.724v.905l1.145.664zm-1.869-3.076l-1.99-1.207v.906l1.99 1.085zm4.584 2.653l-3.8-2.292v.906l3.8 2.292zm2.052 1.087l-1.267-.663v.844l1.266.723zm-15.928-9.17l-4.04-2.354v.907l4.04 2.292zm3.681 2.112l-2.956-1.69v.905l2.956 1.69zm2.714 1.629l-1.93-1.208v.906l1.93 1.146zm13.394-17.496l4.041 2.293v-.785l-4.04-2.413zm-3.68-2.112l2.896 1.63v-.845l-2.896-1.69zm-2.714-1.629l1.93 1.146v-.904l-1.93-1.146zm4.704.785l4.042 2.293v-.846l-4.042-2.352zm-3.68-2.173l2.897 1.69v-.905l-2.897-1.63zm-2.775-1.568l1.991 1.145v-.904l-1.99-1.145zm-7.843 7.421l1.388.784v-.845l-1.388-.846zm-2.593-1.508l1.868 1.025v-.845l-1.869-1.026zm-1.146 12.549l-4.103-2.354v.845l4.103 2.353zm3.619 2.11l-2.897-1.63v.785l2.897 1.749zm2.775 1.629l-1.99-1.146v.905l1.99 1.086zm-9.111-7.301l-1.386-.784v.906l1.386.723zm2.595 1.508l-1.87-1.024v.844l1.87 1.026zm3.62 2.113l-2.896-1.688v.904l2.896 1.63zm1.086-16.651l1.327.785v-.845l-1.327-.784zm-2.535-1.447l1.751 1.026v-.847l-1.75-1.085zm-3.74-2.111l2.956 1.628v-.844l-2.956-1.69zm8.688 6.876l2.896 1.629v-.904l-2.896-1.63zm-4.767-2.653l3.922 2.292v-.906l-3.922-2.232zm-1.929-1.147l1.146.664v-.787l-1.146-.722zm-1.992-1.086l1.268.724v-.906l-1.268-.723zm1.992 11.282l3.86 2.232v-.905l-3.86-2.232zm-1.992-1.207l1.207.724v-.846l-1.207-.723zm2.595 3.559l1.388.785v-.905l-1.388-.785zm4.163-1.629l1.327.784v-.904l-1.327-.723zm1.93 1.146l3.318 1.93v-.904l-3.318-1.93zm3.862 2.172l1.93 1.146v-.844l-1.93-1.086zm-12.55-3.258l1.872 1.086v-.904l-1.872-.965zm.182 2.111l1.387.786v-.846l-1.387-.845zm-2.594-1.507l1.87 1.025v-.845l-1.87-1.025zm7.179-1.81l1.207.725v-.905l-1.207-.726zm-1.93-1.147l1.266.725v-.846l-1.267-.723zm7.117-10.014l4.163 2.415v-.846l-4.163-2.473zm-4.765-2.714l3.982 2.292v-.905l-3.982-2.293zm-1.99-1.148l1.266.724v-.903l-1.266-.726zm-1.872-1.145l1.208.723v-.845l-1.208-.723zm-1.084-.543l-2.655-1.57v-.904l2.655 1.568z" fill="#2D84E8"/><path fill="#2070CD" d="M351.522 351.165v168.139l-1.869 1.086c-.302.241-.906.302-1.328.302-.543 0-.543-.302-.964-.543l-.302-.12.421-19.909v-31.254l-.904-117.643 4.946-.058z"/><path fill="#DAE4F2" d="M346.576 500.241V389.234l1.872 1.085v130.373h-.424c-.24 0-.422-.12-.662-.24-.122 0-.241-.122-.302-.122l-.421-.24-.063-19.849z"/><path opacity=".6" fill="#FFF" d="M417.284 355.93l-62.201 36.078v121.565l62.201-36.077z"/><path fill="#DAE4F2" d="M349.773 390.439l70.587-40.903c.785-.422.663-1.086-.241-1.629l-42.471-24.675c-.906-.422-2.054-.544-2.718-.12l-70.585 40.903c-.784.423-.664 1.087.24 1.629l42.474 24.675c.723.483 1.93.483 2.714.12z"/><path fill="#EEF3F9" d="M375.594 327.514l33.906 19.61 3.258-.545v2.535l-63.769 36.922-32.278-21.96z"/><path fill="#AEBFD6" d="M311.766 361.963v2.535l37.223 21.538v-2.535z"/><path fill="#FFF" d="M348.989 383.501l63.769-36.922-37.164-21.597-63.828 36.981z"/><g transform="translate(1290.048 160.583)"><path fill="#2D84E8" d="M-901.152 183.212l1.146-.544-.12-.422-9.412-5.609-1.328.662.24.422z"/><linearGradient id="y" gradientUnits="userSpaceOnUse" x1="-6299.192" y1="-205.352" x2="-6300.222" y2="-205.579" gradientTransform="matrix(11.104 0 0 5.8379 69046.367 1378.93)"><stop offset="0" stop-color="#77b2f6"/><stop offset="1" stop-color="#c7e1ff"/></linearGradient><path fill="url(#y)" d="M-909.658 177.178l-.968.543-.661-.422 1.629-.905 10.315 5.852-.663.422z"/></g><g transform="translate(1284.606 164.23)"><path fill="#2D84E8" d="M-898.752 181.341l.965-.542v-.483l-9.412-5.49-1.266.544.181.482z"/><linearGradient id="z" gradientUnits="userSpaceOnUse" x1="-6277.177" y1="-205.326" x2="-6278.206" y2="-205.557" gradientTransform="matrix(11.0021 0 0 5.8379 68164.54 1376.92)"><stop offset="0" stop-color="#77b2f6"/><stop offset="1" stop-color="#c7e1ff"/></linearGradient><path fill="url(#z)" d="M-907.258 175.309l-1.026.543-.664-.363 1.69-.964 10.135 5.911-.664.363z"/></g><g transform="translate(1280.285 167.18)"><path fill="#2D84E8" d="M-897.459 180.232l.965-.664-.12-.422-9.412-5.489-1.327.663.362.302z"/><linearGradient id="A" gradientUnits="userSpaceOnUse" x1="-6259.909" y1="-205.312" x2="-6260.938" y2="-205.543" gradientTransform="matrix(11.0021 0 0 5.8379 67975.828 1375.608)"><stop offset="0" stop-color="#77b2f6"/><stop offset="1" stop-color="#c7e1ff"/></linearGradient><path fill="url(#A)" d="M-906.026 174.08l-.965.542-.666-.302 1.631-1.027 10.194 5.973-.662.302z"/></g><g transform="translate(1274.842 169.702)"><path fill="#2D84E8" d="M-895.119 179.473l.964-.543-.06-.542-9.413-5.491-1.327.664.243.422z"/><linearGradient id="B" gradientUnits="userSpaceOnUse" x1="-6238.43" y1="-206.318" x2="-6239.459" y2="-206.553" gradientTransform="matrix(11.1039 0 0 5.9403 68377.242 1401.963)"><stop offset="0" stop-color="#77b2f6"/><stop offset="1" stop-color="#c7e1ff"/></linearGradient><path fill="url(#B)" d="M-903.628 173.32l-1.084.663-.665-.422 1.749-1.026 10.137 5.973-.664.422z"/></g><g transform="translate(1259.21 178.82)"><path fill="#2D84E8" d="M-888.556 175.675l1.085-.665-.12-.48-9.412-5.492-1.328.665.243.361z"/><linearGradient id="C" gradientUnits="userSpaceOnUse" x1="-6175.953" y1="-205.223" x2="-6176.982" y2="-205.45" gradientTransform="matrix(11.104 0 0 5.8379 67690.46 1370.526)"><stop offset="0" stop-color="#77b2f6"/><stop offset="1" stop-color="#c7e1ff"/></linearGradient><path fill="url(#C)" d="M-897.123 169.522l-.965.542-.664-.361 1.629-.966 10.316 5.913-.664.36z"/></g><g transform="translate(1254.888 181.771)"><path fill="#2D84E8" d="M-887.324 174.444l1.024-.543v-.544l-9.411-5.489-1.327.663.241.423z"/><linearGradient id="D" gradientUnits="userSpaceOnUse" x1="-6158.418" y1="-206.239" x2="-6159.447" y2="-206.478" gradientTransform="matrix(11.0021 0 0 5.9403 66869.398 1396.449)"><stop offset="0" stop-color="#77b2f6"/><stop offset="1" stop-color="#c7e1ff"/></linearGradient><path fill="url(#D)" d="M-895.831 168.289l-.966.665-.664-.423 1.63-1.025 10.194 5.974-.663.421z"/></g><g transform="translate(1250.14 184.292)"><path fill="#2D84E8" d="M-885.622 173.685l.965-.543v-.422l-9.471-5.61-1.208.662.182.423z"/><linearGradient id="E" gradientUnits="userSpaceOnUse" x1="-6139.443" y1="-205.183" x2="-6140.472" y2="-205.414" gradientTransform="matrix(11.0021 0 0 5.8379 66662.32 1368.434)"><stop offset="0" stop-color="#77b2f6"/><stop offset="1" stop-color="#c7e1ff"/></linearGradient><path fill="url(#E)" d="M-894.128 167.531l-1.026.664-.664-.423 1.69-.905 10.135 5.853-.664.422z"/></g><g transform="translate(1244.697 187.94)"><path fill="#2D84E8" d="M-883.222 171.815l.965-.542-.12-.423-9.412-5.551-1.327.605.362.422z"/><linearGradient id="F" gradientUnits="userSpaceOnUse" x1="-6117.694" y1="-205.161" x2="-6118.723" y2="-205.392" gradientTransform="matrix(11.0021 0 0 5.8379 66425.398 1366.428)"><stop offset="0" stop-color="#77b2f6"/><stop offset="1" stop-color="#c7e1ff"/></linearGradient><path fill="url(#F)" d="M-891.789 165.783l-.965.543-.663-.363 1.628-.964 10.196 5.912-.664.362z"/></g><g transform="translate(1229.491 196.361)"><path fill="#2D84E8" d="M-877.129 168.657l1.086-.544-.121-.423-9.411-5.611-1.269.665.182.422z"/><linearGradient id="G" gradientUnits="userSpaceOnUse" x1="-6057.196" y1="-205.097" x2="-6058.225" y2="-205.324" gradientTransform="matrix(11.1039 0 0 5.8379 66382.93 1362.922)"><stop offset="0" stop-color="#77b2f6"/><stop offset="1" stop-color="#c7e1ff"/></linearGradient><path fill="url(#G)" d="M-885.636 162.623l-1.026.543-.664-.422 1.69-.906 10.256 5.852-.663.423z"/></g><g transform="translate(1224.743 198.882)"><path fill="#2D84E8" d="M-875.426 167.898l1.084-.544-.12-.422-9.411-5.489-1.325.542.24.422z"/><linearGradient id="H" gradientUnits="userSpaceOnUse" x1="-6038.217" y1="-205.081" x2="-6039.246" y2="-205.308" gradientTransform="matrix(11.104 0 0 5.8379 66174.195 1362.04)"><stop offset="0" stop-color="#77b2f6"/><stop offset="1" stop-color="#c7e1ff"/></linearGradient><path fill="url(#H)" d="M-883.994 161.863l-.964.544-.664-.301 1.628-1.025 10.317 5.972-.665.301z"/></g><g transform="translate(1219.3 202.53)"><path fill="#2D84E8" d="M-873.087 166.149l1.026-.665v-.421l-9.412-5.55-1.327.664.242.361z"/><linearGradient id="I" gradientUnits="userSpaceOnUse" x1="-6016.205" y1="-205.057" x2="-6017.234" y2="-205.288" gradientTransform="matrix(11.0021 0 0 5.8379 65318.984 1360.03)"><stop offset="0" stop-color="#77b2f6"/><stop offset="1" stop-color="#c7e1ff"/></linearGradient><path fill="url(#I)" d="M-881.592 159.995l-.966.543-.663-.361 1.629-.966 10.195 5.911-.664.362z"/></g><g transform="translate(1213.858 204.354)"><path fill="#2D84E8" d="M-870.686 166.088l.965-.543-.062-.542-9.409-5.55-1.328.663.302.482z"/><linearGradient id="J" gradientUnits="userSpaceOnUse" x1="-5994.455" y1="-206.068" x2="-5995.483" y2="-206.307" gradientTransform="matrix(11.0021 0 0 5.9403 65082.078 1387.076)"><stop offset="0" stop-color="#77b2f6"/><stop offset="1" stop-color="#c7e1ff"/></linearGradient><path fill="url(#J)" d="M-879.192 159.935l-1.026.663-.664-.482 1.69-.965 10.134 5.912-.663.482z"/></g><g transform="translate(1248 247)"><linearGradient id="K" gradientUnits="userSpaceOnUse" x1="-6055.526" y1="-169.063" x2="-6056.632" y2="-169.063" gradientTransform="matrix(3.0325 0 0 3.6678 17471.836 764.513)"><stop offset="0" stop-color="#c0d6ff"/><stop offset=".298" stop-color="#c5dbff"/><stop offset=".649" stop-color="#d3e9ff"/><stop offset="1" stop-color="#e9ffff"/></linearGradient><path fill="url(#K)" d="M-894.848 145.068c0-.844.604-1.931 1.327-2.413.36-.241.724-.241.967-.12l.966.603h-.604v.242c0 .844-.604 1.931-1.326 2.412-.121 0-.241.12-.241.12l.241.483-.966-.604c-.244.001-.364-.241-.364-.723z"/><linearGradient id="L" gradientUnits="userSpaceOnUse" x1="-6031.857" y1="-158.077" x2="-6032.979" y2="-158.077" gradientTransform="matrix(2.4709 0 0 3.2927 14013.094 665.39)"><stop offset="0" stop-color="#5778ff"/><stop offset=".178" stop-color="#5c7dff"/><stop offset=".388" stop-color="#6a8aff"/><stop offset=".613" stop-color="#82a0ff"/><stop offset=".849" stop-color="#a3beff"/><stop offset="1" stop-color="#bcd5ff"/></linearGradient><path fill="url(#L)" d="M-893.883 145.671c0 .845.603 1.208 1.327.845.724-.483 1.326-1.568 1.326-2.413s-.603-1.207-1.326-.845c-.725.362-1.327 1.45-1.327 2.413z"/><path fill="#3F38FC" d="M-893.281 145.31c0 .481.363.723.845.481.483-.241.846-.844.846-1.327 0-.482-.362-.724-.846-.481-.481.121-.845.845-.845 1.327z"/></g><g transform="translate(1350 189)"><linearGradient id="M" gradientUnits="userSpaceOnUse" x1="-6462.091" y1="-169.737" x2="-6463.196" y2="-169.737" gradientTransform="matrix(3.0325 0 0 3.6678 18665.271 789.271)"><stop offset="0" stop-color="#c0d6ff"/><stop offset=".298" stop-color="#c5dbff"/><stop offset=".649" stop-color="#d3e9ff"/><stop offset="1" stop-color="#e9ffff"/></linearGradient><path fill="url(#M)" d="M-934.347 167.353c0-.845.606-1.931 1.327-2.414.362-.241.725-.241.967-.12l.966.604h-.604v.241c0 .844-.603 1.931-1.327 2.412-.12 0-.24.121-.24.121l.24.482-.966-.604c-.121.002-.363-.359-.363-.722z"/><linearGradient id="N" gradientUnits="userSpaceOnUse" x1="-6438.096" y1="-158.831" x2="-6439.219" y2="-158.831" gradientTransform="matrix(2.4709 0 0 3.2927 14977.404 690.037)"><stop offset="0" stop-color="#5778ff"/><stop offset=".178" stop-color="#5c7dff"/><stop offset=".388" stop-color="#6a8aff"/><stop offset=".613" stop-color="#82a0ff"/><stop offset=".849" stop-color="#a3beff"/><stop offset="1" stop-color="#bcd5ff"/></linearGradient><path fill="url(#N)" d="M-933.38 167.835c0 .845.603 1.208 1.325.845.725-.481 1.328-1.569 1.328-2.413s-.604-1.207-1.328-.844c-.603.482-1.325 1.568-1.325 2.412z"/><path fill="#3F38FC" d="M-932.778 167.596c0 .48.362.723.845.48.482-.241.843-.845.843-1.328 0-.481-.36-.723-.843-.481-.483.12-.845.724-.845 1.329z"/></g><g transform="translate(1249 391)"><linearGradient id="O" gradientUnits="userSpaceOnUse" x1="-6049.027" y1="-161.224" x2="-6050.132" y2="-161.224" gradientTransform="matrix(2.7545 0 0 3.4737 15769.875 683.212)"><stop offset="0" stop-color="#c0d6ff"/><stop offset=".298" stop-color="#c5dbff"/><stop offset=".649" stop-color="#d3e9ff"/><stop offset="1" stop-color="#e9ffff"/></linearGradient><path fill="url(#O)" d="M-895.245 123.72c0-.786.543-1.749 1.207-2.233a.853.853 0 01.903-.12l.904.543c-.24-.12-.542-.12-.904.121-.663.424-1.205 1.449-1.205 2.232 0 .422.12.665.302.784l-.906-.541c-.181-.122-.301-.484-.301-.786z"/><linearGradient id="P" gradientUnits="userSpaceOnUse" x1="-6016.262" y1="-143.059" x2="-6017.438" y2="-143.059" gradientTransform="matrix(2.1424 0 0 2.9576 11997.389 546.63)"><stop offset="0" stop-color="#5778ff"/><stop offset=".178" stop-color="#5c7dff"/><stop offset=".388" stop-color="#6a8aff"/><stop offset=".613" stop-color="#82a0ff"/><stop offset=".849" stop-color="#a3beff"/><stop offset="1" stop-color="#bcd5ff"/></linearGradient><path fill="url(#P)" d="M-894.038 124.384c.12 0 .24-.121.24-.241.12.241.303.241.663.12.423-.24.784-.783.784-1.206 0-.362-.12-.544-.422-.544v-.603h.542c.243.121.303.423.303.785 0 .785-.543 1.749-1.207 2.231a.85.85 0 01-.903.12l-.243-.422c.12-.18.243-.18.243-.24z"/><linearGradient id="Q" gradientUnits="userSpaceOnUse" x1="-6000.783" y1="-138.64" x2="-6002.354" y2="-138.64" gradientTransform="matrix(1.9384 0 0 2.8544 10739.584 519.023)"><stop offset="0" stop-color="#c0d6ff"/><stop offset=".298" stop-color="#c5dbff"/><stop offset=".649" stop-color="#d3e9ff"/><stop offset="1" stop-color="#e9ffff"/></linearGradient><path fill="url(#Q)" d="M-894.339 124.143c0-.784.543-1.75 1.208-2.233a.854.854 0 01.901-.12h-.542v.603c-.12 0-.24 0-.301.12-.422.242-.784.784-.784 1.209 0 .12 0 .24.122.361-.122.121-.242.121-.242.241-.122 0-.24.12-.24.12l.24.423c-.304-.061-.362-.302-.362-.724z"/><linearGradient id="R" gradientUnits="userSpaceOnUse" x1="-6000.593" y1="-138.64" x2="-6001.892" y2="-138.64" gradientTransform="matrix(1.9384 0 0 2.8544 10739.584 519.023)"><stop offset="0" stop-color="#5778ff"/><stop offset=".178" stop-color="#5c7dff"/><stop offset=".388" stop-color="#6a8aff"/><stop offset=".613" stop-color="#82a0ff"/><stop offset=".849" stop-color="#a3beff"/><stop offset="1" stop-color="#bcd5ff"/></linearGradient><path fill="url(#R)" d="M-894.339 124.143c0-.784.543-1.75 1.208-2.233a.854.854 0 01.901-.12h-.542v.603c-.12 0-.24 0-.301.12-.422.242-.784.784-.784 1.209 0 .12 0 .24.122.361-.122.121-.242.121-.242.241-.122 0-.24.12-.24.12l.24.423c-.304-.061-.362-.302-.362-.724z"/><path fill="#3F38FC" d="M-892.409 123.054c0 .425-.302 1.027-.786 1.209-.3.121-.541.121-.662-.121.421-.423.904-1.088.967-1.689.42 0 .481.242.481.601z"/><path fill="#3F38FC" d="M-893.677 124.263c0-.121-.12-.241-.12-.361 0-.423.303-1.027.785-1.209.122-.12.24-.12.301-.12-.122.543-.543 1.209-.966 1.69z"/><linearGradient id="S" gradientUnits="userSpaceOnUse" x1="-6048.046" y1="-161.94" x2="-6049.146" y2="-161.94" gradientTransform="matrix(2.7675 0 0 3.4737 15908.137 649.564)"><stop offset="0" stop-color="#c0d6ff"/><stop offset=".298" stop-color="#c5dbff"/><stop offset=".649" stop-color="#d3e9ff"/><stop offset="1" stop-color="#e9ffff"/></linearGradient><path fill="url(#S)" d="M-831.658 85.349a.85.85 0 01.905-.119l.905.541c-.243-.12-.542-.12-.905.123-.663.423-1.207 1.449-1.207 2.23 0 .423.123.664.3.786l-.902-.543c-.242-.123-.301-.424-.301-.785-.122-.905.422-1.931 1.205-2.233z"/><linearGradient id="T" gradientUnits="userSpaceOnUse" x1="-6014.288" y1="-143.922" x2="-6015.462" y2="-143.922" gradientTransform="matrix(2.1424 0 0 2.9576 12055.441 512.985)"><stop offset="0" stop-color="#5778ff"/><stop offset=".178" stop-color="#5c7dff"/><stop offset=".388" stop-color="#6a8aff"/><stop offset=".613" stop-color="#82a0ff"/><stop offset=".849" stop-color="#a3beff"/><stop offset="1" stop-color="#bcd5ff"/></linearGradient><path fill="url(#T)" d="M-831.658 88.186c.12 0 .242-.12.242-.242.12.242.302.242.663.122.422-.241.785-.786.785-1.207 0-.363-.123-.544-.422-.544v-.602h.542c.241.12.301.422.301.783 0 .784-.544 1.749-1.206 2.231a.862.862 0 01-.905.122l-.24-.423c0-.119.12-.119.24-.24z"/><linearGradient id="U" gradientUnits="userSpaceOnUse" x1="-5998.548" y1="-139.513" x2="-6000.122" y2="-139.513" gradientTransform="matrix(1.9384 0 0 2.8544 10797.523 485.375)"><stop offset="0" stop-color="#c0d6ff"/><stop offset=".298" stop-color="#c5dbff"/><stop offset=".649" stop-color="#d3e9ff"/><stop offset="1" stop-color="#e9ffff"/></linearGradient><path fill="url(#U)" d="M-832.08 88.004c0-.783.542-1.749 1.208-2.233.3-.24.661-.24.904-.12h-.545v.604c-.12 0-.24 0-.301.12-.422.243-.783.784-.783 1.207 0 .12 0 .242.12.363-.12.121-.24.121-.24.24-.12 0-.243.121-.243.121l.243.422c-.181-.06-.363-.302-.363-.724z"/><linearGradient id="V" gradientUnits="userSpaceOnUse" x1="-5998.357" y1="-139.513" x2="-5999.658" y2="-139.513" gradientTransform="matrix(1.9384 0 0 2.8544 10797.523 485.375)"><stop offset="0" stop-color="#5778ff"/><stop offset=".178" stop-color="#5c7dff"/><stop offset=".388" stop-color="#6a8aff"/><stop offset=".613" stop-color="#82a0ff"/><stop offset=".849" stop-color="#a3beff"/><stop offset="1" stop-color="#bcd5ff"/></linearGradient><path fill="url(#V)" d="M-832.08 88.004c0-.783.542-1.749 1.208-2.233.3-.24.661-.24.904-.12h-.545v.604c-.12 0-.24 0-.301.12-.422.243-.783.784-.783 1.207 0 .12 0 .242.12.363-.12.121-.24.121-.24.24-.12 0-.243.121-.243.121l.243.422c-.181-.06-.363-.302-.363-.724z"/><path fill="#3F38FC" d="M-830.029 86.859c0 .421-.302 1.024-.784 1.207-.301.12-.542.12-.663-.122.421-.422.904-1.085.964-1.688.243.059.483.301.483.603z"/><path fill="#3F38FC" d="M-831.476 88.004c0-.121-.12-.241-.12-.361 0-.422.301-1.026.783-1.208.121-.12.241-.12.301-.12-.06.663-.482 1.328-.964 1.689z"/></g><path opacity=".3" fill="#D5E1F2" d="M338.612 605.396l143.646-82.409c.664-.422.664-1.088-.24-1.629l-42.292-24.435c-.783-.422-2.111-.545-2.714-.123l-143.587 82.412c-.664.421-.664 1.085.243 1.629l42.351 24.555c.663.301 1.989.301 2.593 0z"/><path fill="#2D84E8" d="M420.662 421.63h-7.784c1.087-2.655 1.873-4.164 1.873-4.164l77.281-30.284v129.407c0 .243-.242.423-.422.664l-70.465 40.722c-.122.123-.302.123-.422.243V421.63h-.061z"/><path fill="#F9FCFF" d="M375.292 403.11l44.463 25.398v129.71c-.543 0-.966-.123-1.447-.423l-42.354-24.555c-.423-.241-.662-.545-.662-.905V403.11z"/><path fill="#2070CD" d="M422.954 389.715v167.234l-1.869 1.087c-.303.24-.906.302-1.329.302-.543 0-.543-.302-.966-.543l-.302-.121.422-19.788v-31.132l-.903-116.979 4.947-.06z"/><path fill="#DAE4F2" d="M417.945 538.007V427.543l1.871.966v129.71h-.422c-.241 0-.423-.121-.663-.242-.12 0-.243-.12-.303-.12l-.422-.242-.061-19.608z"/><path opacity=".6" fill="#FFF" d="M488.533 394.3l-62.08 36.018v120.901l62.08-35.895z"/><path fill="#DAE4F2" d="M421.084 428.627l70.465-40.722c.664-.421.664-1.087-.242-1.629l-42.352-24.435c-.783-.421-2.11-.542-2.715-.12l-70.466 40.724c-.663.423-.663 1.086.241 1.629l42.352 24.553c.786.484 1.993.484 2.717 0z"/><path fill="#EEF3F9" d="M446.905 366.067l33.784 19.546 3.319-.663v2.533l-63.588 36.862-32.277-22.021z"/><path fill="#AEBFD6" d="M383.256 400.394v2.534l37.164 21.417v-2.533z"/><path fill="#FFF" d="M420.42 421.812l63.588-36.862-37.103-21.418-63.649 36.862z"/><g transform="translate(1408.842 224.81)"><path fill="#2D84E8" d="M-948.519 157.552l.967-.603-.122-.543-9.352-5.369-1.265.542.179.423z"/><linearGradient id="W" gradientUnits="userSpaceOnUse" x1="-6773.741" y1="-204.894" x2="-6774.77" y2="-205.124" gradientTransform="matrix(11.0368 0 0 5.8374 73813.086 1350.445)"><stop offset="0" stop-color="#77b2f6"/><stop offset="1" stop-color="#c7e1ff"/></linearGradient><path fill="url(#W)" d="M-957.086 151.459l-1.026.543-.663-.423 1.689-.905 10.196 5.851-.662.424z"/></g><g transform="translate(1403.382 227.76)"><path fill="#2D84E8" d="M-946.173 156.32l1.027-.543-.12-.421-9.351-5.491-1.328.544.24.422z"/><linearGradient id="X" gradientUnits="userSpaceOnUse" x1="-6751.925" y1="-204.869" x2="-6752.954" y2="-205.099" gradientTransform="matrix(11.0368 0 0 5.8374 73574.664 1349.13)"><stop offset="0" stop-color="#77b2f6"/><stop offset="1" stop-color="#c7e1ff"/></linearGradient><path fill="url(#X)" d="M-954.739 150.288l-.966.543-.663-.302 1.629-1.025 10.257 5.852-.664.421z"/></g><g transform="translate(1397.923 230.28)"><path fill="#2D84E8" d="M-943.764 155.562l.965-.543-.12-.422-9.292-5.491-1.327.543.242.423z"/><linearGradient id="Y" gradientUnits="userSpaceOnUse" x1="-6730.106" y1="-204.849" x2="-6731.135" y2="-205.078" gradientTransform="matrix(11.0368 0 0 5.8374 73336.258 1348.25)"><stop offset="0" stop-color="#77b2f6"/><stop offset="1" stop-color="#c7e1ff"/></linearGradient><path fill="url(#Y)" d="M-952.332 149.529l-.964.543-.664-.361 1.628-.966 10.196 5.973-.663.301z"/></g><g transform="translate(1392.464 233.927)"><path fill="#2D84E8" d="M-941.417 153.694l1.024-.545-.121-.481-9.351-5.489-1.266.662.182.362z"/><linearGradient id="Z" gradientUnits="userSpaceOnUse" x1="-6708.289" y1="-204.825" x2="-6709.317" y2="-205.054" gradientTransform="matrix(11.0368 0 0 5.8374 73097.836 1346.241)"><stop offset="0" stop-color="#77b2f6"/><stop offset="1" stop-color="#c7e1ff"/></linearGradient><path fill="url(#Z)" d="M-949.925 147.66l-1.024.543-.665-.362 1.689-.966 10.197 5.914-.665.36z"/></g><g transform="translate(1377.906 242.349)"><path fill="#2D84E8" d="M-935.824 150.533l.966-.543-.12-.543-9.292-5.368-1.326.543.241.422z"/><linearGradient id="aa" gradientUnits="userSpaceOnUse" x1="-6650.112" y1="-204.764" x2="-6651.141" y2="-204.993" gradientTransform="matrix(11.0368 0 0 5.8374 72461.32 1342.735)"><stop offset="0" stop-color="#77b2f6"/><stop offset="1" stop-color="#c7e1ff"/></linearGradient><path fill="url(#aa)" d="M-944.39 144.501l-.965.543-.664-.302 1.629-1.026 10.195 5.852-.663.422z"/></g><g transform="translate(1372.446 244.87)"><path fill="#2D84E8" d="M-933.477 149.775l1.025-.543-.121-.422-9.351-5.489-1.266.541.181.423z"/><linearGradient id="ab" gradientUnits="userSpaceOnUse" x1="-6628.296" y1="-204.745" x2="-6629.325" y2="-204.974" gradientTransform="matrix(11.0368 0 0 5.8374 72222.914 1341.854)"><stop offset="0" stop-color="#77b2f6"/><stop offset="1" stop-color="#c7e1ff"/></linearGradient><path fill="url(#ab)" d="M-941.985 143.742l-1.024.543-.664-.363 1.688-.965 10.197 5.853-.664.422z"/></g><g transform="translate(1368.111 248.516)"><path fill="#2D84E8" d="M-932.18 147.905l.965-.541-.12-.484-9.292-5.49-1.326.664.241.362z"/><linearGradient id="ac" gradientUnits="userSpaceOnUse" x1="-6610.975" y1="-204.719" x2="-6612.004" y2="-204.949" gradientTransform="matrix(11.0368 0 0 5.8374 72032.984 1339.842)"><stop offset="0" stop-color="#77b2f6"/><stop offset="1" stop-color="#c7e1ff"/></linearGradient><path fill="url(#ac)" d="M-940.746 141.873l-.966.543-.664-.362 1.63-.965 10.196 5.912-.665.363z"/></g><g transform="translate(1363.347 251.467)"><path fill="#2D84E8" d="M-930.472 146.796l.965-.665-.12-.421-9.409-5.49-1.209.662.182.303z"/><linearGradient id="ad" gradientUnits="userSpaceOnUse" x1="-6591.938" y1="-204.707" x2="-6592.967" y2="-204.936" gradientTransform="matrix(11.0368 0 0 5.8374 71824.594 1338.535)"><stop offset="0" stop-color="#77b2f6"/><stop offset="1" stop-color="#c7e1ff"/></linearGradient><path fill="url(#ad)" d="M-939.036 140.642l-1.027.543-.666-.303 1.693-1.024 10.195 5.973-.666.3z"/></g><g transform="translate(1348.094 259.458)"><path fill="#2D84E8" d="M-924.239 143.987l.964-.542-.119-.423-9.411-5.491-1.207.544.241.422z"/><linearGradient id="ae" gradientUnits="userSpaceOnUse" x1="-6530.98" y1="-204.64" x2="-6532.008" y2="-204.87" gradientTransform="matrix(11.0368 0 0 5.8374 71158.063 1335.46)"><stop offset="0" stop-color="#77b2f6"/><stop offset="1" stop-color="#c7e1ff"/></linearGradient><path fill="url(#ae)" d="M-932.805 137.955l-.966.542-.665-.361 1.631-.966 10.195 5.852-.665.423z"/></g><g transform="translate(1343.33 263.106)"><path fill="#2D84E8" d="M-922.531 142.12l.965-.544-.12-.483-9.411-5.491-1.208.543.182.483z"/><linearGradient id="af" gradientUnits="userSpaceOnUse" x1="-6511.945" y1="-204.617" x2="-6512.974" y2="-204.846" gradientTransform="matrix(11.0368 0 0 5.8374 70949.656 1333.45)"><stop offset="0" stop-color="#77b2f6"/><stop offset="1" stop-color="#c7e1ff"/></linearGradient><path fill="url(#af)" d="M-931.097 136.085l-1.026.543-.665-.362 1.691-.965 10.195 5.912-.664.363z"/></g><g transform="translate(1337.87 266.056)"><path fill="#2D84E8" d="M-920.184 140.95l1.026-.605-.12-.423-9.472-5.49-1.206.664.241.301z"/><linearGradient id="ag" gradientUnits="userSpaceOnUse" x1="-6490.126" y1="-204.603" x2="-6491.155" y2="-204.833" gradientTransform="matrix(11.0368 0 0 5.8374 70711.234 1332.14)"><stop offset="0" stop-color="#77b2f6"/><stop offset="1" stop-color="#c7e1ff"/></linearGradient><path fill="url(#ag)" d="M-928.75 134.856l-.965.541-.665-.301 1.63-1.026 10.256 5.973-.664.302z"/></g><g transform="translate(1332.412 268.576)"><path fill="#2D84E8" d="M-917.777 140.25l.966-.664-.121-.422-9.412-5.49-1.327.663.362.302z"/><linearGradient id="ah" gradientUnits="userSpaceOnUse" x1="-6468.309" y1="-204.58" x2="-6469.337" y2="-204.81" gradientTransform="matrix(11.0368 0 0 5.8374 70472.828 1331.255)"><stop offset="0" stop-color="#77b2f6"/><stop offset="1" stop-color="#c7e1ff"/></linearGradient><path fill="url(#ah)" d="M-926.344 134.097l-.965.542-.664-.302 1.629-1.025 10.196 5.972-.663.302z"/></g><path fill="#BCD5FF" d="M381.929 490.467l31.25 18.16v-42.896l-31.25-18.038z"/><path fill="#1561B9" d="M383.678 448.657v41.026l29.501 17.072v1.872l-31.25-18.16v-42.774z"/><g transform="translate(1264.385 415.594)"><path fill="#1561B9" d="M-901.348 85.97l1.629.906 16.771-9.655c.302-.12.786-.12 1.086 0l28.959 16.713c.301-.122 1.508-.785 1.508-.785l-.664 1.631c0 .12-.12.12-.238.24l-17.68 10.255a1.66 1.66 0 01-1.083 0l-29.625-17.133-.238-.24-.425-1.932z"/><path fill="#DCECFF" d="M-901.046 86.211l30.407 17.617c.302.24.904.24 1.083 0l18.104-10.437c.3-.241.238-.423-.123-.666l-30.407-17.614c-.301-.241-.903-.241-1.085 0l-18.099 10.437c-.302.24-.182.422.12.663z"/><path fill="#2859CB" d="M-861.53 99.966v-.3l-1.207.664v.422l1.207-.786c0 .122 0 .122 0 0zm-1.749 1.088v-.302l-1.207.663v.422l1.207-.783z"/><path fill="#ABCDF5" d="M-856.1 92.364l-25.278-14.661c-.24-.12-.299-.12-.542 0l-8.989 5.19c-.123.121-.123.24 0 .301l25.277 14.66c.24.121.302.121.543 0l8.989-5.188c.058-.06.058-.18 0-.302z"/><path fill="#91AFFF" d="M-856.1 92.726l-25.278-14.539c-.24-.12-.299-.12-.542 0l-8.871 5.188h-.121c-.12-.12-.12-.24 0-.302l8.991-5.187c.241-.122.301-.122.541 0l25.28 14.599c.058.001.058.121 0 .241z"/><path d="M-882.59 79.072l21.96 12.73.905-.601-21.96-12.67zm-2.413 1.45l20.512 11.884 1.026-.603-20.573-11.884zm-1.507.845l24.13 13.997.965-.544-24.133-13.996zm-1.69.903l24.252 14.058 1.026-.665-24.253-13.936zm-1.509.846l24.252 14.116.966-.543-24.253-14.116zm30.407 9.472l.843.543 1.026-.543-1.026-.665zm-3.498.782l2.05 1.087 1.025-.543-2.112-1.206z" fill="#1561B9"/><linearGradient id="ai" gradientUnits="userSpaceOnUse" x1="-6198.324" y1="-212.889" x2="-6199.407" y2="-212.889" gradientTransform="matrix(11.8544 0 0 6.8871 72600.656 1558.553)"><stop offset="0" stop-color="#c0d6ff"/><stop offset=".298" stop-color="#c5dbff"/><stop offset=".649" stop-color="#d3e9ff"/><stop offset="1" stop-color="#e9ffff"/></linearGradient><path fill="url(#ai)" d="M-882.345 95.925l-6.815-3.982c-.241-.121-.241-.421 0-.543l4.586-2.653c.241-.121.664-.121.966 0l6.817 3.979c.24.123.24.425 0 .546l-4.587 2.653c-.302.181-.786.181-.967 0z"/><path fill="#91AFFF" d="M-876.793 92.909l-6.817-3.984c-.241-.12-.663-.12-.966 0l-4.584 2.655c-.123 0-.123.121-.243.121-.12-.121 0-.3.243-.423l4.584-2.652c.24-.122.664-.122.966 0l6.817 3.981c.24.121.24.241.24.423-.12.001-.12-.121-.24-.121z"/></g><path fill="#242993" d="M383.678 448.657l29.501 17.074v41.024l-29.501-17.072z"/><path fill="#2D84E8" d="M383.678 448.657l29.501 17.074v41.024l-29.501-17.072z"/><path d="M405.08 470.797l1.749 1.086v-1.207l-1.749-.966zm0 8.023l1.749 1.088v-6.94l-1.749-1.085zm0 3.862l1.749.965v-2.715l-1.749-1.024zm0 3.921l1.749 1.145v-2.775l-1.749-1.084zm-2.657-13.514l1.75 1.086v-2.715l-1.75-1.086zm0 5.31l1.75 1.085v-4.102l-1.75-.965zm0 4.825l1.75 1.086v-3.498l-1.75-1.026zm2.657 7.361l1.749 1.086v-2.715l-1.749-1.086zm-2.657-21.237l1.75 1.026v-1.267l-1.75-.965zm1.346 24.438l3.076 1.749v-1.208l-3.076-1.749z" fill="#FFF"/><g transform="translate(1365.167 312.344)"><linearGradient id="aj" gradientUnits="userSpaceOnUse" x1="-6512.118" y1="-158.938" x2="-6513.219" y2="-158.938" gradientTransform="matrix(2.7592 0 0 3.3444 17030.89 649.392)"><stop offset="0" stop-color="#c0d6ff"/><stop offset=".298" stop-color="#c5dbff"/><stop offset=".649" stop-color="#d3e9ff"/><stop offset="1" stop-color="#e9ffff"/></linearGradient><path fill="url(#aj)" d="M-940.425 118.424c0-.786.546-1.752 1.209-2.173a.852.852 0 01.904-.122l.904.543h-.544v.243c0 .784-.541 1.749-1.206 2.17-.12 0-.241.122-.241.122l.241.422-.904-.544c-.24-.059-.363-.359-.363-.661z"/><linearGradient id="ak" gradientUnits="userSpaceOnUse" x1="-6485.703" y1="-146.815" x2="-6486.82" y2="-146.815" gradientTransform="matrix(2.2482 0 0 3.0023 13644.323 558.936)"><stop offset="0" stop-color="#5778ff"/><stop offset=".178" stop-color="#5c7dff"/><stop offset=".388" stop-color="#6a8aff"/><stop offset=".613" stop-color="#82a0ff"/><stop offset=".849" stop-color="#a3beff"/><stop offset="1" stop-color="#bcd5ff"/></linearGradient><path fill="url(#ak)" d="M-939.579 118.846c0 .783.545 1.084 1.208.783.663-.302 1.206-1.448 1.206-2.173 0-.723-.543-1.084-1.206-.784-.665.425-1.208 1.389-1.208 2.174z"/><path fill="#3F38FC" d="M-939.036 118.603c0 .423.302.664.785.423.421-.241.784-.783.784-1.206s-.301-.664-.784-.423c-.425.121-.785.664-.785 1.206z"/></g><g transform="translate(1468.894 252.164)"><linearGradient id="al" gradientUnits="userSpaceOnUse" x1="-6925.484" y1="-159.68" x2="-6926.585" y2="-159.68" gradientTransform="matrix(2.7592 0 0 3.3444 18129.82 676.29)"><stop offset="0" stop-color="#c0d6ff"/><stop offset=".298" stop-color="#c5dbff"/><stop offset=".649" stop-color="#d3e9ff"/><stop offset="1" stop-color="#e9ffff"/></linearGradient><path fill="url(#al)" d="M-982.054 142.839c0-.785.544-1.749 1.208-2.172a.852.852 0 01.903-.121l.905.544h-.544v.24c0 .784-.543 1.75-1.205 2.172-.122 0-.242.122-.242.122l.242.422-.905-.544c-.242 0-.362-.24-.362-.663z"/><linearGradient id="am" gradientUnits="userSpaceOnUse" x1="-6898.721" y1="-147.635" x2="-6899.837" y2="-147.635" gradientTransform="matrix(2.2482 0 0 3.0023 14531.244 585.938)"><stop offset="0" stop-color="#5778ff"/><stop offset=".178" stop-color="#5c7dff"/><stop offset=".388" stop-color="#6a8aff"/><stop offset=".613" stop-color="#82a0ff"/><stop offset=".849" stop-color="#a3beff"/><stop offset="1" stop-color="#bcd5ff"/></linearGradient><path fill="url(#am)" d="M-981.149 143.382c0 .785.543 1.086 1.206.785.663-.422 1.208-1.448 1.208-2.171 0-.725-.545-1.086-1.208-.785-.664.422-1.206 1.266-1.206 2.171z"/><path fill="#3F38FC" d="M-980.607 143.02c0 .423.303.662.786.423.421-.242.783-.785.783-1.208 0-.422-.299-.664-.783-.422-.483.242-.786.784-.786 1.207z"/></g><g transform="translate(1365.167 452.764)"><linearGradient id="an" gradientUnits="userSpaceOnUse" x1="-6512.118" y1="-159.669" x2="-6513.219" y2="-159.669" gradientTransform="matrix(2.7592 0 0 3.4468 17030.89 648.744)"><stop offset="0" stop-color="#c0d6ff"/><stop offset=".298" stop-color="#c5dbff"/><stop offset=".649" stop-color="#d3e9ff"/><stop offset="1" stop-color="#e9ffff"/></linearGradient><path fill="url(#an)" d="M-940.425 98.917c0-.786.546-1.75 1.209-2.174a.85.85 0 01.904-.12l.904.544c-.242-.12-.544-.12-.904.121-.661.423-1.207 1.447-1.207 2.171 0 .423.122.665.302.785l-.906-.543c-.179-.18-.302-.362-.302-.784z"/><linearGradient id="ao" gradientUnits="userSpaceOnUse" x1="-6478.959" y1="-141.234" x2="-6480.129" y2="-141.234" gradientTransform="matrix(2.146 0 0 2.9348 12967.017 513.3)"><stop offset="0" stop-color="#5778ff"/><stop offset=".178" stop-color="#5c7dff"/><stop offset=".388" stop-color="#6a8aff"/><stop offset=".613" stop-color="#82a0ff"/><stop offset=".849" stop-color="#a3beff"/><stop offset="1" stop-color="#bcd5ff"/></linearGradient><path fill="url(#ao)" d="M-939.096 99.64c.124 0 .242-.121.242-.239.12.239.302.239.662.12.423-.24.785-.786.785-1.208 0-.302-.119-.543-.423-.543v-.542h.545c.242.12.3.422.3.783 0 .786-.541 1.749-1.207 2.173a.853.853 0 01-.904.121l-.24-.423a.257.257 0 01.24-.242z"/><linearGradient id="ap" gradientUnits="userSpaceOnUse" x1="-6463.216" y1="-136.751" x2="-6464.781" y2="-136.751" gradientTransform="matrix(1.9416 0 0 2.8323 11611.787 485.924)"><stop offset="0" stop-color="#c0d6ff"/><stop offset=".298" stop-color="#c5dbff"/><stop offset=".649" stop-color="#d3e9ff"/><stop offset="1" stop-color="#e9ffff"/></linearGradient><path fill="url(#ap)" d="M-939.579 99.459c0-.783.545-1.749 1.208-2.172.3-.24.663-.24.904-.12h-.543v.543c-.121 0-.241 0-.303.12-.422.241-.784.784-.784 1.207 0 .12 0 .24.124.3-.124.122-.243.122-.243.242-.121 0-.24.121-.24.121l.24.423c-.241 0-.363-.363-.363-.664z"/><linearGradient id="aq" gradientUnits="userSpaceOnUse" x1="-6463.024" y1="-136.751" x2="-6464.318" y2="-136.751" gradientTransform="matrix(1.9416 0 0 2.8323 11611.787 485.924)"><stop offset="0" stop-color="#5778ff"/><stop offset=".178" stop-color="#5c7dff"/><stop offset=".388" stop-color="#6a8aff"/><stop offset=".613" stop-color="#82a0ff"/><stop offset=".849" stop-color="#a3beff"/><stop offset="1" stop-color="#bcd5ff"/></linearGradient><path fill="url(#aq)" d="M-939.579 99.459c0-.783.545-1.749 1.208-2.172.3-.24.663-.24.904-.12h-.543v.543c-.121 0-.241 0-.303.12-.422.241-.784.784-.784 1.207 0 .12 0 .24.124.3-.124.122-.243.122-.243.242-.121 0-.24.121-.24.121l.24.423c-.241 0-.363-.363-.363-.664z"/><path fill="#3F38FC" d="M-937.588 98.313c0 .422-.3.968-.784 1.208-.304.121-.544.121-.664-.12.422-.424.905-1.088.965-1.631.361 0 .483.241.483.543z"/><path fill="#3F38FC" d="M-938.916 99.459c0-.122-.12-.242-.12-.302 0-.423.302-.965.785-1.205.121-.122.241-.122.3-.122-.059.483-.541 1.267-.965 1.629z"/><linearGradient id="ar" gradientUnits="userSpaceOnUse" x1="-6510.577" y1="-160.406" x2="-6511.678" y2="-160.406" gradientTransform="matrix(2.7592 0 0 3.4468 17088.742 615.565)"><stop offset="0" stop-color="#c0d6ff"/><stop offset=".298" stop-color="#c5dbff"/><stop offset=".649" stop-color="#d3e9ff"/><stop offset="1" stop-color="#e9ffff"/></linearGradient><path fill="url(#ar)" d="M-877.077 61.03a.86.86 0 01.904-.122l.906.544c-.242-.122-.544-.122-.906.119-.662.424-1.205 1.449-1.205 2.173 0 .423.12.664.301.785l-.905-.543c-.241-.122-.3-.421-.3-.784 0-.845.542-1.811 1.205-2.172z"/><linearGradient id="as" gradientUnits="userSpaceOnUse" x1="-6476.931" y1="-142.062" x2="-6478.101" y2="-142.062" gradientTransform="matrix(2.146 0 0 2.9348 13024.763 480.018)"><stop offset="0" stop-color="#5778ff"/><stop offset=".178" stop-color="#5c7dff"/><stop offset=".388" stop-color="#6a8aff"/><stop offset=".613" stop-color="#82a0ff"/><stop offset=".849" stop-color="#a3beff"/><stop offset="1" stop-color="#bcd5ff"/></linearGradient><path fill="url(#as)" d="M-877.077 63.924c.122 0 .242-.12.242-.24.122.24.3.24.662.122.423-.241.786-.786.786-1.209 0-.302-.122-.543-.424-.543v-.54h.545c.243.12.3.422.3.781 0 .786-.543 1.751-1.207 2.173a.849.849 0 01-.904.121l-.239-.423c-.001-.18.119-.18.239-.242z"/><linearGradient id="at" gradientUnits="userSpaceOnUse" x1="-6461.018" y1="-137.632" x2="-6462.582" y2="-137.632" gradientTransform="matrix(1.9417 0 0 2.8323 11669.943 452.641)"><stop offset="0" stop-color="#c0d6ff"/><stop offset=".298" stop-color="#c5dbff"/><stop offset=".649" stop-color="#d3e9ff"/><stop offset="1" stop-color="#e9ffff"/></linearGradient><path fill="url(#at)" d="M-877.439 63.684c0-.785.545-1.748 1.208-2.17a.848.848 0 01.903-.123h-.542v.543c-.121 0-.241 0-.303.12-.422.241-.783.786-.783 1.207 0 .122 0 .242.121.304-.121.119-.242.119-.242.239-.12 0-.239.12-.239.12l.239.422c-.24 0-.362-.24-.362-.662z"/><linearGradient id="au" gradientUnits="userSpaceOnUse" x1="-6460.826" y1="-137.632" x2="-6462.12" y2="-137.632" gradientTransform="matrix(1.9417 0 0 2.8323 11669.943 452.641)"><stop offset="0" stop-color="#5778ff"/><stop offset=".178" stop-color="#5c7dff"/><stop offset=".388" stop-color="#6a8aff"/><stop offset=".613" stop-color="#82a0ff"/><stop offset=".849" stop-color="#a3beff"/><stop offset="1" stop-color="#bcd5ff"/></linearGradient><path fill="url(#au)" d="M-877.439 63.684c0-.785.545-1.748 1.208-2.17a.848.848 0 01.903-.123h-.542v.543c-.121 0-.241 0-.303.12-.422.241-.783.786-.783 1.207 0 .122 0 .242.121.304-.121.119-.242.119-.242.239-.12 0-.239.12-.239.12l.239.422c-.24 0-.362-.24-.362-.662z"/><path fill="#3F38FC" d="M-875.448 62.597c0 .423-.302.968-.783 1.209-.304.12-.545.12-.664-.122.421-.423.904-1.087.965-1.63.24 0 .482.183.482.543z"/><path fill="#3F38FC" d="M-876.895 63.684c0-.119-.122-.239-.122-.301 0-.422.303-.968.786-1.208.12-.121.24-.121.301-.121a2.205 2.205 0 01-.965 1.63z"/></g><path d="M477.131 426.155l7.722-4.525v-1.629l-7.722 4.405zm-3.982 2.293l2.774-1.629v-1.689l-2.774 1.569zm-3.078 1.75l1.87-1.087v-1.749l-1.87 1.086zm10.557-2.172l4.225-2.533v-1.631l-4.225 2.415zm-6.395 3.62l5.19-2.957v-1.749l-5.19 3.077zm-3.015 1.748l1.809-1.085v-1.629l-1.809 1.086zm-2.958 1.751l1.932-1.087v-1.749l-1.932 1.085zm13.575-3.921l3.018-1.811v-1.749l-3.018 1.749zm-2.352 1.266l1.145-.603v-1.689l-1.145.542zm-3.017 1.81l1.931-1.145v-1.749l-1.931 1.084zm-2.835 5.55l11.222-6.575v-1.629l-11.222 6.455zm-3.982 2.232l2.775-1.569v-1.75l-2.775 1.692zm12.186-3.078l3.018-1.749v-1.75l-3.018 1.75zm-7.239 4.042l6.032-3.377v-1.749l-6.032 3.499zm-3.076 1.871l1.989-1.084v-1.751l-1.989 1.086zm7.117-.181l6.216-3.618v-1.689l-6.216 3.498zm-5.67 3.26l4.465-2.596v-1.689l-4.465 2.534zm-4.284 2.413l3.078-1.752v-1.626l-3.078 1.749zm13.998-4.164l2.172-1.328v-1.628l-2.172 1.206zm-3.921 2.233l2.835-1.57v-1.747l-2.835 1.628zm-5.733 3.258l4.525-2.534v-1.749l-4.525 2.653zm5.37.905l6.456-3.741v-1.749l-6.456 3.739zm-7.179 4.162l5.972-3.5v-1.689l-5.972 3.44zm-3.078 1.749l1.871-1.086v-1.629l-1.871 1.086zm-2.955 1.75l1.869-1.087v-1.749l-1.869 1.086zm15.745-5.248l3.923-2.295v-1.688l-3.923 2.232zm-16.106-21.779l-5.31 3.076v-1.749l5.31-3.076zm-1.207 4.523l-4.103 2.414v-1.629l4.103-2.414zm-1.088 4.586l-3.015 1.811v-1.811l3.015-1.751zm1.329 3.076l-4.344 2.536v-1.631l4.344-2.654zm-1.329 4.646l-3.015 1.75v-1.629l3.015-1.749zm.786 3.501l-3.801 2.23v-1.809l3.801-2.172zm-1.751 4.825l-2.05 1.207v-1.63l2.05-1.206zm1.991 2.776l-4.041 2.412v-1.749l4.041-2.354zm-.24 4.041l-3.801 2.233v-1.69l3.801-2.292zm14.9-8.568l1.629-.965v-1.749l-1.629.965zm-4.946 2.777l3.742-2.112v-1.75l-3.742 2.172zm-26.123-16.049l7.723-4.525v-1.629l-7.723 4.464zm-3.982 2.293l2.836-1.629v-1.689l-2.836 1.689zm-3.016 1.751l1.809-1.088v-1.629l-1.809 1.086zm10.498-2.173l4.223-2.413v-1.749l-4.223 2.472zm-6.274 3.62l5.126-2.956v-1.69l-5.126 3.017zm-3.077 1.87l1.869-1.086v-1.81l-1.869 1.146zm-2.957 1.628l1.87-1.086v-1.628l-1.87 1.086zm13.513-3.92l3.018-1.81v-1.63l-3.018 1.751zm-2.231 1.267l1.026-.543v-1.749l-1.026.663zm-3.018 1.808l1.811-1.144v-1.629l-1.811 1.085zm-2.956 5.552l11.223-6.456V448.9l-11.223 6.456zm-3.981 2.353l2.775-1.69v-1.629l-2.775 1.569zm12.186-3.198l3.018-1.749v-1.69l-3.018 1.81zm-7.119 4.162l5.914-3.499v-1.689l-5.914 3.438zm-3.075 1.749l1.869-1.084v-1.629l-1.869.964zm6.997-.18l6.215-3.679v-1.631l-6.215 3.621zm-5.671 3.258l4.464-2.534v-1.751l-4.464 2.656zm-4.284 2.534l3.078-1.749v-1.75l-3.078 1.75zm14.117-4.283l2.053-1.208v-1.75l-2.053 1.208zm-3.921 2.292l2.716-1.628v-1.629l-2.716 1.507zm-5.731 3.319l4.526-2.655v-1.629l-4.526 2.535zm5.249.783l6.456-3.74v-1.689l-6.456 3.742zm-7.179 4.163l5.973-3.499v-1.69l-5.973 3.56zm-3.078 1.869l1.87-1.085v-1.809l-1.87 1.145zm-2.955 1.631l1.869-1.088v-1.628l-1.869 1.085zm15.866-5.25l3.802-2.232v-1.749l-3.802 2.293zm-16.228-21.778l-5.309 3.078v-1.631l5.309-3.076zm-1.086 4.525l-4.223 2.532v-1.749l4.223-2.473zm-1.207 4.585l-3.016 1.751v-1.631l3.016-1.75zm1.448 3.076l-4.464 2.534v-1.629l4.464-2.533zm-1.448 4.767l-3.016 1.749v-1.749l3.016-1.811zm.785 3.378l-3.801 2.172v-1.629l3.801-2.292zm-1.751 4.946l-2.05 1.208v-1.749l2.05-1.208zm1.992 2.716l-4.042 2.353v-1.689l4.042-2.415zm-.241 3.98l-3.801 2.174v-1.631l3.801-2.17zm14.902-8.565l1.627-.965v-1.691l-1.627.906zm-4.949 2.834l3.741-2.172v-1.627l-3.741 2.05zm33.847-15.563l7.722-4.527v-1.749l-7.722 4.526zm-3.982 2.292l2.774-1.629v-1.749l-2.774 1.628zm-3.078 1.749l1.87-1.085v-1.749l-1.87 1.085zm10.557-2.291l4.225-2.416v-1.628l-4.225 2.413zm-6.395 3.739l5.19-2.957v-1.749l-5.19 2.956zm-3.015 1.749l1.809-1.084v-1.691l-1.809 1.146zm-2.958 1.629l1.932-.964v-1.749l-1.932 1.084zm13.575-3.801l3.018-1.809v-1.75l-3.018 1.75zm-2.352 1.208l1.145-.604v-1.75l-1.145.664zm-3.017 1.869l1.931-1.144v-1.751l-1.931 1.085zm-2.835 5.49l11.222-6.515v-1.629l-11.222 6.455zm-3.982 2.293l2.775-1.569v-1.748l-2.775 1.688zm12.186-3.077l3.018-1.87v-1.629l-3.018 1.749zm-7.239 4.043l6.032-3.38v-1.748l-6.032 3.497zm-3.076 1.749l1.989-1.086v-1.629l-1.989 1.087zm7.117-.06l6.216-3.681v-1.749l-6.216 3.619zm-5.67 3.256l4.465-2.652v-1.75l-4.465 2.653zm-4.284 2.413l3.078-1.749v-1.749l-3.078 1.872zm13.998-4.283l2.172-1.205v-1.629l-2.172 1.206zm-3.921 2.293l2.835-1.508v-1.75l-2.835 1.63zm-5.733 3.319l4.525-2.654v-1.631l-4.525 2.657zm5.37.905l6.456-3.74v-1.751l-6.456 3.741zm-7.179 4.163l5.972-3.5v-1.809l-5.972 3.558zm-3.078 1.749l1.871-1.087v-1.747l-1.871 1.085zm-2.955 1.629l1.869-.965v-1.751l-1.869 1.087zm15.745-5.249l3.923-2.234v-1.625l-3.923 2.23zm-16.106-21.777l-5.31 3.196v-1.749l5.31-3.078zm-1.207 4.643l-4.103 2.415v-1.631l4.103-2.533zm-1.088 4.465l-3.015 1.81v-1.69l3.015-1.749zm1.329 3.198l-4.344 2.532v-1.749l4.344-2.533zm-1.329 4.646l-3.015 1.749v-1.629l3.015-1.811zm.786 3.378l-3.801 2.292v-1.75l3.801-2.171zm-1.751 4.947l-2.05 1.206v-1.629l2.05-1.326zm1.991 2.774l-4.041 2.294v-1.629l4.041-2.414zm-.24 4.043l-3.801 2.172v-1.749l3.801-2.172zm14.9-8.688l1.629-.843v-1.812l-1.629 1.026zm-4.946 2.896l3.742-2.112v-1.748l-3.742 2.172zm-3.077 13.031l6.274-3.62v-1.628l-6.274 3.619zm-4.224 2.535l2.354-1.448v-1.751l-2.354 1.449zm-18.822-31.614l7.723-4.524v-1.63l-7.723 4.405zm-3.982 2.292l2.836-1.628v-1.69l-2.836 1.569zm-3.016 1.749l1.809-1.085v-1.628l-1.809 1.086zm10.498-2.17l4.223-2.414v-1.81l-4.223 2.414zm-6.274 3.62l5.126-2.955v-1.69l-5.126 2.955zm-3.077 1.749l1.869-1.085v-1.691l-1.869 1.148zm-2.957 1.75l1.87-1.086v-1.749l-1.87 1.085zm13.513-3.983l3.018-1.749v-1.629l-3.018 1.75zm-2.231 1.329l1.026-.664v-1.631l-1.026.543zm-3.018 1.749l1.811-1.088v-1.626l-1.811 1.085zm-2.956 5.611l11.223-6.576v-1.629l-11.223 6.456zm-3.981 2.352l2.775-1.688v-1.751l-2.775 1.631zm12.186-3.197l3.018-1.751v-1.811l-3.018 1.811zm-7.119 4.163l5.914-3.5v-1.689l-5.914 3.439zm-3.075 1.751l1.869-1.089v-1.749l-1.869 1.087zm6.997-.243l6.215-3.621v-1.627l-6.215 3.618zm-5.671 3.318l4.464-2.653v-1.629l-4.464 2.653zm-4.284 2.413l3.078-1.75v-1.629l-3.078 1.75zm14.117-4.162l2.053-1.206v-1.751l-2.053 1.208zm-3.921 2.292l2.716-1.629v-1.749l-2.716 1.627zm-5.731 3.198l4.526-2.535v-1.749l-4.526 2.654zm5.249.905l6.456-3.741v-1.69l-6.456 3.74zm-7.179 4.162l5.973-3.56v-1.629l-5.973 3.499zm-3.078 1.749l1.87-1.085v-1.69l-1.87 1.147zm-2.955 1.749l1.869-1.085v-1.749l-1.869 1.085zm15.866-5.248l3.802-2.353v-1.628l-3.802 2.171zm-16.228-21.778l-5.309 3.076v-1.629l5.309-3.196zm-1.086 4.523l-4.223 2.413v-1.688l4.223-2.412zm-1.207 4.586l-3.016 1.75v-1.75l3.016-1.749zm1.448 3.077l-4.464 2.534v-1.629l4.464-2.653zm-1.448 4.706l-3.016 1.809v-1.809l3.016-1.749zm.785 3.438l-3.801 2.172v-1.627l3.801-2.293zm-1.751 4.827l-2.05 1.208v-1.631l2.05-1.206zm1.992 2.775l-4.042 2.413v-1.749l4.042-2.353zm-.241 4.044l-3.801 2.17v-1.629l3.801-2.292zm14.902-8.569l1.627-.965v-1.689l-1.627.905zm-4.949 2.716l3.741-2.051v-1.75l-3.741 2.172zm-3.076 13.09l6.274-3.498v-1.751l-6.274 3.621zm-4.223 2.535l2.473-1.449v-1.628l-2.473 1.448z" fill="#2D84E8"/><path opacity=".3" fill="#D5E1F2" d="M109.719 500.301l-45.488-26.244c-.966-.543-.845-1.509.302-2.172l13.393-7.722 49.109 28.296-13.394 7.721c-1.206.664-2.835.664-3.922.121z"/><path fill="#DAE4F2" d="M174.516 464.465v-9.051h-14.78l-32.76-18.943c-.784-.422-2.17-.422-3.137.121L91.2 455.414H76.48v9.17c0 .304.241.545.542.785l47.057 27.09c.784.422 2.172.422 3.138-.122l46.574-26.906c.423-.182.725-.666.725-.966z"/><path fill="#AEBFD6" d="M174.516 464.465v-2.715l-47.178 27.27c-.784.541-2.17.541-3.138.12l-47.72-27.451v2.896c0 .304.241.545.542.785l47.057 27.09c.784.422 2.172.422 3.138-.122l46.574-26.906c.423-.183.725-.667.725-.967z"/><path fill="#F5F8FC" d="M124.02 483.409l-47.057-27.088c-.785-.424-.664-1.328.241-1.871l46.574-26.906c.966-.544 2.293-.544 3.138-.12l47.057 27.088c.784.421.664 1.325-.24 1.87l-46.576 26.907c-.844.543-2.293.543-3.137.12z"/><path fill="#F67A3C" d="M124.201 480.271l-41.688-24.072c-.785-.422-.663-1.086.241-1.629l41.266-23.83c.845-.423 2.051-.543 2.836-.122l41.688 24.072c.785.422.665 1.087-.242 1.629l-41.265 23.832c-.845.421-2.173.542-2.836.12z"/><path fill="#EDF9EE" d="M124.563 478.16l-38.31-22.081c-.664-.302-.543-1.087.241-1.509l37.888-21.899c.784-.422 1.871-.422 2.534-.12l38.31 22.079c.664.303.543 1.087-.24 1.51l-37.889 21.899c-.784.483-1.93.604-2.534.121z"/><path fill="#F67A3C" d="M125.621 447.66l-2.715-1.63 2.715-1.566 2.593 1.567z"/><path opacity=".6" fill="#F79266" d="M130.99 450.736l-2.776-1.567 2.776-1.51 2.716 1.51zm5.309 3.078l-2.593-1.57 2.593-1.508 2.716 1.509z"/><path fill="#F67A3C" d="M141.73 456.95l-2.715-1.63 2.715-1.506 2.593 1.507zm-21.549-6.216l-2.715-1.567 2.715-1.51 2.776 1.51zm5.369 3.078l-2.593-1.57 2.593-1.508 2.715 1.508zm5.43 3.137l-2.715-1.63 2.715-1.507 2.594 1.508z"/><path opacity=".6" fill="#F79266" d="M136.29 460.024l-2.716-1.628 2.715-1.447 2.714 1.447z"/><path fill="#F67A3C" d="M114.797 453.828l-2.596-1.569 2.596-1.509 2.714 1.51zm5.429 3.076l-2.715-1.567 2.715-1.509 2.715 1.51zm5.308 3.137l-2.593-1.629 2.593-1.508 2.716 1.508z"/><path opacity=".6" fill="#F79266" d="M130.964 463.118l-2.714-1.628 2.714-1.449 2.595 1.45zm-21.536-6.201l-2.714-1.569 2.714-1.508 2.715 1.508zm5.37 3.076l-2.655-1.57 2.655-1.506 2.715 1.506zm5.429 3.137l-2.714-1.509 2.714-1.628 2.595 1.628z"/><path fill="#F67A3C" d="M125.537 466.206l-2.715-1.507 2.715-1.569 2.715 1.57z"/><path opacity=".3" fill="#D5E1F2" d="M155.566 652.772l-45.488-26.245c-.966-.543-.844-1.509.302-2.172l13.393-7.721 49.109 28.293-13.394 7.722c-1.207.666-2.836.666-3.922.123z"/><path fill="#DAE4F2" d="M220.363 616.933v-9.049h-14.782l-32.759-18.942c-.784-.423-2.172-.423-3.136.12l-32.639 18.822h-14.72v9.172c0 .302.24.543.542.785l47.058 27.086c.784.423 2.171.423 3.136-.12l46.575-26.908c.423-.18.725-.662.725-.966z"/><path fill="#AEBFD6" d="M220.363 616.933v-2.715l-47.179 27.271c-.785.544-2.172.544-3.137.122l-47.722-27.452v2.897c0 .302.241.543.543.785l47.058 27.086c.784.423 2.171.423 3.137-.12l46.575-26.908c.423-.18.725-.662.725-.966z"/><path fill="#F5F8FC" d="M169.866 635.878l-47.059-27.089c-.784-.423-.664-1.327.242-1.87l46.575-26.906c.966-.545 2.293-.545 3.137-.122l47.06 27.09c.783.421.662 1.326-.242 1.87l-46.576 26.907c-.844.543-2.292.543-3.137.12z"/><path fill="#F67A3C" d="M170.047 632.74l-41.688-24.07c-.784-.423-.663-1.087.241-1.63l41.266-23.83c.844-.423 2.051-.543 2.835-.122l41.688 24.072c.784.423.663 1.086-.24 1.63l-41.267 23.829c-.844.424-2.17.546-2.835.121z"/><path fill="#EDF9EE" d="M170.41 630.629l-38.31-22.081c-.666-.302-.544-1.086.241-1.509l37.887-21.9c.784-.421 1.871-.421 2.534-.12l38.31 22.082c.663.299.542 1.084-.242 1.506l-37.887 21.902c-.784.483-1.93.603-2.533.12z"/><path fill="#F67A3C" d="M171.468 600.13l-2.715-1.63 2.715-1.568 2.594 1.569z"/><path opacity=".6" fill="#F79266" d="M176.837 603.208l-2.775-1.57 2.775-1.508 2.715 1.508zm5.308 3.076l-2.593-1.57 2.593-1.506 2.716 1.507z"/><path fill="#F67A3C" d="M187.576 609.422l-2.715-1.63 2.715-1.508 2.594 1.509zm-21.548-6.218l-2.715-1.568 2.715-1.508 2.775 1.508zm5.369 3.076l-2.594-1.567 2.594-1.51 2.715 1.51zm5.43 3.138l-2.715-1.628 2.715-1.51 2.594 1.51z"/><path opacity=".6" fill="#F79266" d="M182.135 612.494l-2.714-1.628 2.714-1.448 2.716 1.448z"/><path fill="#F67A3C" d="M160.643 606.3l-2.594-1.569 2.594-1.509 2.715 1.51zm5.43 3.074l-2.715-1.568 2.715-1.506 2.715 1.506zm5.309 3.137l-2.594-1.628 2.594-1.509 2.715 1.51z"/><path opacity=".6" fill="#F79266" d="M176.812 615.588l-2.715-1.628 2.715-1.449 2.593 1.45zm-21.536-6.202l-2.715-1.57 2.715-1.506 2.713 1.506zm5.369 3.077l-2.656-1.569 2.656-1.508 2.714 1.508zm5.429 3.137l-2.715-1.508 2.715-1.629 2.595 1.63z"/><path fill="#F67A3C" d="M171.383 618.678l-2.714-1.509 2.714-1.569 2.715 1.57z"/><path fill="#1F3B82" d="M343.258 566.242l-8.808 1.811-1.208 3.075c-.301 2.233-.241 3.378 1.208 4.526 1.205.965 3.741.24 5.008-.364l5.672-3.437c4.223-2.354 3.86-4.044 3.438-5.493-.664-1.566-2.597-1.143-5.31-.118m18.581 10.92l-8.386-2.776-2.535 1.991c-1.327 1.689-1.869 2.654-1.207 4.343.544 1.388 3.078 1.992 4.467 2.112l6.515-.12c4.705.12 5.31-1.449 5.611-2.896.24-1.63-1.629-2.233-4.465-2.654"/><path fill="#FFC2B0" d="M332.097 468.748c-4.827 7.301-6.939 16.591-8.81 24.978-.422 1.81-.542 2.896-.058 4.646 1.628 5.911 3.437 11.402 4.102 17.556.363 3.076 5.25 3.137 4.887 0-.663-5.731-1.749-11.343-3.561-16.833-.362-1.024-.723-2.05-1.086-3.074.363.904-.12 1.629.06.784.121-.545.243-1.026.363-1.569 1.81-8.083 3.799-17.074 8.386-24.071 1.69-2.599-2.534-5.072-4.283-2.417"/><path fill="#3E96ED" d="M330.346 470.438c-3.196 5.61-5.55 15.082-7.661 22.744-.784 2.112-.301 4.044 1.025 3.921l4.467.604c1.083-.059 3.196-2.474 3.739-4.223l5.671-19.487c.905-3.198.242-5.912-1.568-6.334l-.423-.061c-.362-1.085-2.838-1.085-5.25 2.836"/><path fill="#1F3B82" d="M345.612 506.274l-22.626 12.971c-1.085.664-2.474-.182-2.474-1.448v-15.685c0-.606.304-1.147.845-1.451l22.624-12.969c1.086-.665 2.474.179 2.474 1.448v15.687c-.06.602-.362 1.145-.843 1.447"/><path fill="#FFF" d="M337.345 501.569c0 1.81-1.327 3.98-3.017 4.887-1.69.903-3.018.18-3.018-1.629 0-1.813 1.327-3.982 3.018-4.889 1.69-.904 3.017-.18 3.017 1.631"/><path fill="#FFC2B0" d="M333.486 516.651l-1.631.786c-1.267.602-2.774 0-3.319-1.328-.543-1.327 0-2.897 1.269-3.499l1.628-.784c1.268-.604 2.775 0 3.319 1.327.542 1.327-.001 2.893-1.266 3.498"/><path fill="#FFF" d="M352.427 452.821l.062.965s.12 2.836-2.716 1.389c-2.837-1.447-2.714-5.007-2.714-5.007s2.11-.303 5.368 2.653"/><path fill="#513554" d="M347.661 450.347s2.052-.12 5.069 2.415v.783s.122 2.292-2.536.966c-2.592-1.327-2.533-4.164-2.533-4.164m2.533 4.646c3.563 1.749 3.441-1.327 3.441-1.327l-.123-1.024c-3.979-3.259-6.515-3.139-6.515-3.139s-.36 3.681 3.197 5.49"/><path fill="#513554" d="M354.839 454.33l-2.292-1.086-.12-1.329 2.292 1.087zm-8.202-4.285l-.424-.183c-.242-.12-.423-.421-.423-.661s.121-.422.364-.302l.421.182c.24.121.422.421.422.663.062.301-.12.422-.36.301"/><path fill="#1F3B82" d="M360.512 456.681l-.423-.181a.741.741 0 01-.423-.664c0-.24.123-.422.363-.3l.421.18a.742.742 0 01.423.665c.061.3-.119.422-.361.3"/><path fill="#1F3B82" d="M358.281 458.371c-2.594-1.025-3.016-3.499-3.016-3.499l-.122-.844c2.774 0 5.008 1.991 5.008 1.991s.723 3.319-1.87 2.352m2.412-2.655s-2.775-2.532-6.455-2.593l.122 1.086s.481 3.318 4.042 4.704c3.497 1.329 2.291-3.197 2.291-3.197"/><path fill="#2C4482" d="M355.564 455.415c-.12-.12-.12-.24-.059-.302l.784-.723c.059-.059.183 0 .302.062.121.06.121.24.059.301l-.784.724c-.061.119-.181.06-.302-.062"/><path fill="#FCFEFF" d="M347.722 451.794c-.12-.12-.12-.239-.062-.3l.787-.725c.059-.059.181 0 .299.061.123.121.123.241.062.303l-.784.723c-.062.12-.182.059-.302-.062"/><path fill="#F67A3C" d="M346.637 523.528c3.316 9.534 3.618 19.729 3.316 29.682-.241 7.421-1.447 14.902-1.266 22.323.121 4.887 7.903 4.887 7.782 0-.182-7.602 1.024-15.324 1.267-22.925.302-10.378-.181-21.175-3.62-31.13-1.569-4.587-9.109-2.596-7.479 2.05m-15.143-8.385c1.688 6.215 2.474 12.607 3.076 19.004.363 3.801.785 7.36.422 11.161-.784 7.602-2.233 15.322-2.172 22.985.062 4.886 7.663 4.886 7.602 0-.061-7.783 1.389-15.624 2.173-23.289.421-3.86-.12-7.661-.544-11.521-.664-6.819-1.507-13.696-3.317-20.331-1.207-4.768-8.567-2.715-7.24 1.991"/><path fill="#F67A3C" d="M337.948 525.157c.725.785-2.292-3.016-1.389-2.474 1.872 1.146 12.37 8.204 14.541 8.266 2.655.06 1.087-2.474 3.078-4.224 1.869-1.688 2.292-4.343 2.472-6.878.062-.661.062-1.386-.18-2.051-.303-.663-.906-1.146-1.508-1.629-4.646-3.499-13.878-12.187-20.393-9.412-7.542 3.199.001 14.662 3.379 18.402"/><path fill="#4FB1D3" d="M332.518 469.17c-1.386 1.811-1.207 2.896-1.145 5.37.059 2.412 1.689 4.464 3.982 5.128l23.529 6.635s1.325-9.11-3.321-11.824c-2.474-1.447-6.395-3.86-9.409-5.67-4.466-2.775-10.438-3.801-13.636.361"/><path fill="#FFC2B0" d="M343.438 468.506l1.931-8.747 5.309 3.559-1.568 7.963c-.241 1.329-6.095.183-5.672-2.775"/><path fill="#FFC2B0" d="M346.395 446.668s-5.369-3.802-5.429 5.428c-.061 6.395 3.801 11.946 8.987 14.421 3.26 1.567 7.181-.424 7.362-3.621.784-4.646.784-8.988-.724-12.73.24-3.859-2.413-2.473-6.938-2.713l-3.258-.785z"/><path fill="#1F3B82" d="M343.135 464.344s-6.393-2.294-5.788-11.041c.661-9.412 9.592-8.626 14.537-9.11 2.172-.182 3.743-.482 5.973 1.447 2.054 1.751.124 5.731-2.774 6.033-1.145.121-.604 3.14-.845 4.224-.423 1.869-1.629 2.775-2.051 4.586-.424 1.688-3.018 4.405-4.707 4.584-2.956.303-4.345-.723-4.345-.723"/><path fill="#4FB1D3" d="M331.132 511.642c-1.509-.603-1.148-26.243.179-40.421l26.546 12.55c-.12 12.064-1.689 21.597-.242 36.316l-26.483-8.445z"/><path fill="#4FB1D3" d="M349.049 522.382c-6.575-2.354-12.851-4.948-16.531-9.412-1.809-1.026-1.565-2.835.483-4.041 2.11-1.209 5.248-1.328 7.059-.302l16.531 9.411c1.81 1.024 1.567 2.835-.481 4.042-2.054 1.208-5.25 1.387-7.061.302"/><path fill="#4FB1D3" d="M357.857 483.529l-4.342-2.053c-.181 11.766-1.631 21.176-.181 35.596h-.061c.061.845-.544 1.689-1.689 2.353-2.052 1.209-5.25 1.327-7.059.303-3.138-1.147-6.213-2.354-8.93-3.74 3.62 2.773 8.385 4.703 13.272 6.454 1.81 1.024 4.946.904 7.059-.302 1.146-.663 1.749-1.508 1.688-2.354h.062c-1.448-14.659.061-24.191.181-36.257"/><path fill="#1F3B82" d="M360.451 456.56l-8.023.786c-.301 0-.543-.183-.543-.481 0-.302.181-.544.481-.544l8.026-.784c.301 0 .542.18.542.482 0 .241-.241.541-.483.541"/><path fill="#4FB1D3" d="M352.427 472.368c-5.973-.903-10.015 2.836-11.463-5.671.846-.543 1.992-.301 2.595.545 1.026 1.447 3.198 2.412 5.61 2.109.725-.06 1.447.241 1.811.844l1.447 2.173z"/><path fill="#FFC2B0" d="M353.635 480.21c.421 5.008 1.204 9.593 3.319 14.239 1.506 3.317 3.075 8.024 6.334 10.136 7.421 4.705 15.324-7.359 18.822-11.946 1.87-2.472-2.353-4.887-4.225-2.472-1.989 2.592-9.29 13.996-13.09 9.109-4.041-5.249-5.791-12.609-6.335-19.004-.179-3.198-5.068-3.198-4.825-.062"/><path fill="#3E96ED" d="M351.341 479.97c1.509 12.607 5.429 20.634 10.86 24.733 2.895 1.631 5.55-2.955 4.464-5.73-5.429-4.887-7.359-12.488-7.844-21.175-.723-1.75-2.714-2.717-4.644-2.232-2.051.542-3.317 2.474-2.836 4.404"/><path fill="#FFC2B0" d="M353.635 458.672c.121 1.51-.665 2.774-1.872 2.896h-.361c-1.024-.122-1.869-1.206-1.989-2.532-.123-1.509.661-2.775 1.869-2.897 1.145-.06 2.23 1.025 2.353 2.533"/></svg>