<svg xmlns="http://www.w3.org/2000/svg" width="505" height="422" viewBox="127 120 505 422"><g opacity=".3" fill="#9CBEEB"><path d="M422.585 352.767c-.989 0-1.869-.22-2.751-.77l-29.163-16.838c-.661-.33-.991-1.1-.991-1.762 0-.77.441-1.43.991-1.76l63.169-36.428c1.76-.99 3.852-.99 5.502 0l29.164 16.838c.66.33.991 1.101.991 1.761 0 .77-.442 1.431-.991 1.761l-63.171 36.428c-.878.55-1.758.77-2.75.77zm34.005-57.337c-.768 0-1.54.22-2.199.55l-63.279 36.537c-.329.222-.551.551-.551.881 0 .33.222.771.551.88l29.163 16.84a4.703 4.703 0 004.513 0l63.168-36.427c.33-.22.551-.55.551-.88 0-.33-.221-.772-.551-.88l-29.163-16.839a3.96 3.96 0 00-2.203-.662zM327.649 538.936c-1.761 0-3.412-.33-4.621-1.102l-117.241-68.083c-1.32-.772-1.981-1.762-1.981-2.974 0-1.43.99-2.75 2.751-3.742l125.678-72.522c3.191-1.76 7.923-1.98 10.675-.44l117.239 68.085c1.322.771 1.981 1.761 1.981 2.972 0 1.43-.989 2.751-2.751 3.742l-125.678 72.522c-1.76 1.103-3.961 1.542-6.052 1.542zm-4.181-1.98c2.42 1.43 6.712 1.21 9.574-.44l125.787-72.523c1.431-.77 2.202-1.872 2.202-2.862 0-.77-.552-1.54-1.541-2.09l-117.241-68.084c-2.42-1.432-6.712-1.212-9.574.438l-125.678 72.523c-1.431.771-2.201 1.873-2.201 2.862 0 .771.55 1.542 1.541 2.091l117.131 68.084zm197.43-121.46c-.771 0-1.652-.22-2.202-.55l-66.58-38.518c-.66-.33-.991-.992-.991-1.542 0-.66.44-1.43 1.322-1.87l66.03-38.077c1.43-.88 3.632-.992 4.951-.22l66.581 38.516c.661.33.99.99.99 1.542 0 .66-.441 1.431-1.32 1.87l-66.031 38.077c-.77.442-1.76.772-2.75.772zm.331-80.226c-.772 0-1.651.22-2.313.55l-66.03 38.076c-.55.33-.881.662-.881.99 0 .33.331.55.551.661l66.581 38.518c.99.551 2.751.441 3.963-.22l66.029-38.079c.551-.33.881-.66.881-.989 0-.33-.33-.552-.551-.66L522.878 335.6c-.44-.22-.99-.329-1.649-.329z"/><path d="M458.609 521.694c-.77 0-1.542-.219-2.201-.549l-46.991-27.185.55-.88 46.992 27.183c.989.551 2.312.551 3.301 0l152.31-87.49c.221-.11.44-.44.44-.66 0-.329-.11-.552-.44-.66l-59.206-34.116.55-.88 59.206 34.115c.551.331.881.88.881 1.541 0 .66-.33 1.21-.881 1.54l-152.309 87.492c-.662.33-1.432.55-2.202.55zm-259.927-86.898c-.991 0-1.98-.219-2.862-.77l-28.942-16.728c-.661-.33-1.102-1.1-1.102-1.76 0-.772.44-1.432 1.102-1.873l28.942-16.727c1.761-.99 4.072-.99 5.833 0l28.943 16.727c.661.331 1.101 1.102 1.101 1.872s-.44 1.43-1.101 1.761l-28.943 16.728c-.881.44-1.981.77-2.971.77zm0-37.637c-.88 0-1.65.221-2.421.66l-28.943 16.73c-.33.218-.55.55-.55.878 0 .331.22.771.55.88l28.943 16.73a4.566 4.566 0 004.732 0l28.942-16.73c.331-.219.551-.549.551-.88 0-.329-.22-.77-.551-.879l-28.833-16.73c-.77-.438-1.54-.659-2.42-.659zm-23.111 49.742c-1.101 0-2.311-.33-3.301-.88l-28.173-16.287c-.771-.44-1.211-1.21-1.211-2.09s.44-1.65 1.211-2.092l8.583-4.844c1.981-1.21 4.511-1.21 6.604 0l28.173 16.288c.771.44 1.21 1.211 1.21 2.092s-.44 1.652-1.21 2.092l-8.584 4.951c-.991.55-2.202.77-3.302.77zm-19.589-26.08c-.99 0-1.871.22-2.751.77l-8.585 4.953c-.439.22-.66.66-.66 1.21 0 .44.219.88.66 1.21l28.174 16.288c1.76.99 3.851.99 5.502 0l8.583-4.95c.44-.222.66-.662.66-1.213 0-.44-.22-.88-.66-1.21l-28.172-16.289c-.769-.439-1.76-.77-2.751-.77z"/></g><path fill="#5793CE" d="M456.94 257.533c-.586 0-.939-.47-.939-.939v-40.496c0-.587.471-.939.94-.939.587 0 .94.47.94.94v40.495c.001.47-.47.94-.94.94z"/><g fill="#5793CE"><path d="M453.42 213.516h7.042v15.142h-7.041z"/><path d="M459.407 230.184c-1.41.822-3.638.822-4.931 0-1.408-.822-1.408-2.113 0-2.817 1.409-.822 3.639-.822 4.93 0 1.409.704 1.409 1.995 0 2.817z"/></g><path fill="#5793CE" d="M451.19 192.39h11.385v23.827H451.19z"/><path fill="#396CAA" d="M453.421 215.981v5.165c2.112.94 4.93.94 7.041 0v-5.165c-2.112-.94-5.046-.94-7.04 0z"/><path fill="#5793CE" d="M460.933 218.564c-2.23 1.291-5.867 1.291-8.1 0-2.23-1.292-2.23-3.405 0-4.696 2.23-1.29 5.87-1.29 8.1 0 2.23 1.291 2.23 3.404 0 4.696zm35.449 61.271c-.588 0-.94-.47-.94-.938V238.4c0-.586.47-.94.94-.94.469 0 .938.47.938.94v40.496c.117.47-.353.939-.938.939z"/><g fill="#5793CE"><path d="M492.86 235.7h7.042v15.143h-7.042z"/><path d="M498.846 252.369c-1.41.82-3.638.82-4.931 0-1.408-.822-1.408-2.113 0-2.817 1.41-.822 3.639-.822 4.93 0 1.41.703 1.41 1.995 0 2.817z"/></g><path fill="#5793CE" d="M490.747 214.573h11.386V238.4h-11.386z"/><path fill="#396CAA" d="M492.86 238.284v5.164c2.113.939 4.93.939 7.042 0v-5.164c-1.995-.94-4.93-.94-7.042 0z"/><path fill="#5793CE" d="M500.37 240.748c-2.23 1.29-5.868 1.29-8.097 0-2.232-1.292-2.232-3.404 0-4.695 2.229-1.292 5.867-1.292 8.098 0 2.23 1.29 2.23 3.404 0 4.695z"/><path fill="#BBCDE5" d="M534.763 254.128l15.26-9.038-14.555-18.194-3.757 6.34zm-110.922-99.77l24.415-14.085s-.939 13.969-.939 14.085l-13.97 4.343-9.506-4.343z"/><path fill="#BBCDE5" d="M538.988 208.468a18.485 18.485 0 00-5.279-1.995c-2.468-12.913-11.505-26.646-22.187-32.867-3.168-1.878-6.338-2.816-9.038-3.051-1.408-15.611-12.324-33.453-25.588-41.082-6.926-3.991-13.146-4.46-17.842-1.996l-.236.118c-.116.117-.232.117-.35.235l-14.439 8.451 4.812 3.756c-4.343 1.878-7.04 6.691-7.04 13.851 0 13.146 9.153 29.109 20.54 35.682l76.53 54.698c8.568 4.93 15.494.939 15.494-8.92.001-9.861-6.808-22.067-15.377-26.88z"/><path fill="#BBCDE5" d="M442.621 148.019l32.984-19.25c-6.456-3.288-12.208-3.639-16.55-1.292l-.237.118c-.116.117-.232.117-.35.235l-14.439 8.451 4.812 3.756c-2.933 1.292-5.163 3.991-6.22 7.982zm61.039 56.811l24.062-14.085c-4.109-7.161-9.86-13.382-16.083-17.021-.822-.469-1.643-.939-2.465-1.291l-30.636 17.958 25.121 14.439z"/><path fill="#BBCDE5" d="M450.955 137.808l10.682 6.22 19.72-11.62c-1.408-1.174-2.935-2.113-4.46-3.053a26.638 26.638 0 00-6.925-2.934l-19.017 11.387zm74.066 48.711l-19.25 11.268 6.69 7.512 17.49-10.329c-1.409-2.934-3.052-5.869-4.93-8.451z"/><path fill="#E8F0FB" d="M523.965 217.272a18.517 18.517 0 00-5.28-1.995c-2.467-12.911-11.506-26.645-22.186-32.867-3.17-1.878-6.34-2.817-9.039-3.052-1.409-15.611-12.324-33.453-25.589-41.083-14.202-8.216-25.705-1.525-25.705 14.908v1.644c-10.446-4.813-18.547.586-18.547 12.912 0 13.147 9.156 29.11 20.542 35.683l85.804 49.534c8.567 4.93 15.494.939 15.494-8.921-.117-9.86-7.043-21.833-15.494-26.763z"/><path d="M436.05 154.827v-1.762c-5.754-2.23-10.684-1.291-13.735 2.348 3.287-2.699 8.216-3.168 13.734-.586zm89.09 61.272a18.486 18.486 0 00-5.283-1.996c-2.464-12.912-11.503-26.645-22.185-32.866-3.168-1.878-6.337-2.817-9.038-3.051-1.408-15.612-12.324-33.454-25.588-41.083-8.92-5.165-16.667-4.461-21.363.704 4.696-3.99 11.974-4.226 20.071.469 13.265 7.63 24.181 25.472 25.59 41.083 2.816.235 5.868 1.174 9.038 3.052 10.681 6.222 19.72 19.955 22.185 32.866 1.643.234 3.403.939 5.281 1.996 8.568 4.93 15.494 16.902 15.494 26.763 0 3.521-.939 6.338-2.467 8.217 2.35-1.761 3.758-5.048 3.758-9.39 0-9.863-6.925-21.834-15.494-26.764z" fill="#2378DF"/><path fill="#B0D4FF" d="M434.288 158.817l6.455 2.935-.353-7.159v-1.527c0-6.339 1.88-10.917 5.4-12.912s8.451-1.409 13.851 1.761c11.855 6.808 22.066 23.358 23.476 37.795l.352 3.638 3.64.235c2.23.117 4.694 1.056 7.277 2.465 9.39 5.399 17.841 17.958 20.072 29.932l.586 2.934 3.052.469c1.173.235 2.466.705 3.758 1.409 7.16 4.108 13.262 14.672 13.262 23.006 0 3.169-.82 5.4-2.347 6.222-1.527.822-3.874.469-6.573-1.057l-85.805-49.533c-9.978-5.75-18.429-20.422-18.429-31.926 0-4.578 1.29-7.981 3.64-9.508.938-.586 2.111-.938 3.402-.938 1.527.351 3.29.821 5.284 1.759z"/><path fill="#BBCDE5" d="M477.132 212.577l2.23-1.174-2.23-1.644zm-6.809-30.635l2.23-1.058v1.175zm13.264 23.475l2.23-1.173-4.343-4.227z"/><g fill="#BBCDE5"><path d="M478.658 211.403l-10.683-6.338c-.588-.352-.938-1.173-.938-1.761v-12.441l12.676 7.513v12.44c0 .587-.469.822-1.055.587z"/><path d="M472.435 180.884l-11.62 7.396c-.47.353-.117 1.526.705 1.878l11.854 6.925 11.856 6.925c.704.469 1.173-.235.704-1.173l-11.503-21.012c-.587-.703-1.408-1.29-1.996-.94z"/></g><path fill="#FFF" d="M476.426 212.46l-10.68-6.339c-.588-.352-.94-1.174-.94-1.76v-12.443l12.677 7.512v12.442c-.117.705-.588.94-1.057.588z"/><path fill="#E8F0FB" d="M470.205 182.06l-11.62 7.393c-.47.353-.118 1.526.704 1.878l11.855 6.925L483 205.182c.703.47 1.173-.235.703-1.174l-11.502-21.01c-.587-.705-1.526-1.29-1.995-.939z"/><path fill="#D4ECFF" d="M455.768 226.076c0 .704-.47.938-1.058.586-.586-.352-1.055-1.174-1.055-1.878s.47-.939 1.055-.586c.59.351 1.058 1.173 1.058 1.878zm39.672 22.537c0 .704-.469.939-1.055.586-.587-.352-1.057-1.173-1.057-1.878 0-.704.47-.938 1.057-.586.587.351 1.055 1.174 1.055 1.878z"/><path opacity=".3" fill="#D5E1F2" d="M424.662 401.791l-50.12-28.64c-1.878-1.058-1.644-2.937.471-4.109l28.874-16.668c2.112-1.173 5.281-1.407 7.16-.352l50.12 28.642c1.88 1.055 1.644 2.934-.469 4.108l-28.875 16.666c-2.113 1.174-5.282 1.408-7.16.353z"/><path fill="#DAE4F2" d="M465.627 371.038V254.011l-46.6-12.208-8.568-4.93c-1.995-1.173-5.398-.939-7.63.352l-7.98 4.578h-24.767l7.394 113.037c0 .82.354 1.524 1.29 2.111l46.482 35.095c1.997 1.174 5.4.94 7.632-.352l30.985-17.84c1.293-.938 1.88-1.878 1.762-2.816z"/><path fill="#FFF" stroke="#BBCDE5" d="M406.938 236.053c-1.41 0-2.936.352-4.108 1.056l-7.98 4.578h-24.768v117.378c0 .821.352 1.525 1.292 2.112l53.758 30.636c.94.587 2.23.821 3.521.703l.588-118.082-22.303-38.38z"/><path fill="#BBCDE5" d="M425.72 392.048c1.642.704 4.107.704 6.103-.118V273.144h-6.104v118.904z"/><path fill="#E8F0FB" d="M425.131 274.552l-53.757-30.636c-1.996-1.173-1.762-3.168.586-4.46l30.987-17.84c2.23-1.292 5.752-1.409 7.63-.353l53.76 30.636c1.995 1.174 1.761 3.17-.587 4.46l-30.988 17.842c-2.23 1.29-5.636 1.407-7.63.351z"/><path fill="#FAFDFF" d="M463.75 254.128l-30.988 17.842c-2.23 1.292-5.752 1.408-7.63.353l-53.758-30.636c-.472-.235-.705-.587-.94-.822-.704 1.056-.352 2.23.94 3.052l53.758 30.636c1.995 1.174 5.4.94 7.63-.353l30.988-17.84c1.761-1.058 2.347-2.466 1.525-3.522-.234.47-.82.938-1.525 1.29z"/><path fill="#2378DF" d="M426.657 262.11l-35.799-20.775c-.94-.587-.822-1.41.233-2.113l14.438-8.333c1.056-.587 2.699-.705 3.638-.118l35.802 20.776c.938.587.821 1.408-.236 2.113l-14.438 8.334c-1.055.586-2.697.586-3.638.117z"/><path d="M407.407 242.273l-2.113-1.173c-.117-.117-.117-.235 0-.235l1.996-1.173c.116-.117.351-.117.47 0l2.111 1.173c.118.12.118.235 0 .235l-1.994 1.173c-.118 0-.352.117-.47 0zm6.927 3.991l-2.112-1.173c-.117-.117-.117-.235 0-.235l1.994-1.173a.359.359 0 01.47 0l2.112 1.173c.117.118.117.235 0 .235l-1.995 1.173h-.469zm6.923 3.992l-2.112-1.175c-.118-.116-.118-.234 0-.234l1.995-1.174c.117-.117.353-.117.47 0l2.113 1.174c.117.118.117.234 0 .234l-1.995 1.175h-.47zm6.926 3.99l-2.112-1.174c-.117-.117-.117-.234 0-.234l1.995-1.174c.117-.117.353-.117.471 0l2.111 1.174c.118.117.118.234 0 .234l-1.995 1.174h-.47z" fill="#D4ECFF"/><path fill="#0D54A9" d="M390.858 241.335c.116 0 .233-.118.233-.118l14.438-8.334c1.056-.587 2.699-.704 3.638-.117l35.802 20.776c.821-.587.938-1.41 0-1.878l-35.801-20.775c-.938-.587-2.582-.47-3.638.117l-14.438 8.333c-1.056.47-1.173 1.409-.234 1.996z"/><path fill="#173D7A" d="M438.865 297.676l20.307-11.621c1.173-.704 2.113-2.464 2.113-3.99v-7.278c0-1.525-.94-2.23-2.113-1.525l-20.307 11.62c-1.174.704-2.114 2.464-2.114 3.99v7.278c.118 1.526.94 2.23 2.114 1.526z"/><path fill="#FFF" d="M460.228 273.027c.352.352.47.822.47 1.526v7.278c0 1.525-.939 3.287-2.113 3.99l-20.308 11.62c-.35.235-.702.235-1.055.235.353.353.94.47 1.525 0l20.308-11.621c1.173-.704 2.112-2.464 2.112-3.99v-7.278c.118-1.055-.235-1.642-.939-1.76z"/><path fill="#396CAA" d="M444.97 289.813l1.878-1.056c.233-.117.469-.587.469-.821v-1.997c0-.352-.233-.47-.47-.352l-1.877 1.057c-.236.118-.471.587-.471.822v1.996c.118.35.235.468.47.35z"/><path fill="#FFF" d="M451.308 286.174l1.878-1.057c.235-.117.47-.588.47-.822V282.3c0-.352-.234-.47-.47-.352l-1.878 1.056c-.234.117-.47.587-.47.82v1.998c0 .352.117.469.47.352z"/><path fill="#173D7A" d="M438.865 350.379l20.307-11.62c1.173-.706 2.113-2.464 2.113-3.991v-7.276c0-1.525-.94-2.231-2.113-1.525l-20.307 11.618c-1.174.704-2.114 2.464-2.114 3.99v7.278c.118 1.409.94 2.114 2.114 1.526z"/><path fill="#FFF" d="M460.228 325.614c.352.35.47.82.47 1.524v7.278c0 1.525-.939 3.287-2.113 3.99l-20.308 11.62c-.35.235-.702.235-1.055.235.353.352.94.47 1.525 0l20.308-11.621c1.173-.704 2.112-2.465 2.112-3.991v-7.277c.118-.938-.235-1.642-.939-1.758z"/><path fill="#396CAA" d="M444.97 342.397l1.878-1.055c.233-.118.469-.588.469-.822v-1.996c0-.352-.233-.471-.47-.352l-1.877 1.057c-.236.117-.471.587-.471.82v1.997c.118.35.235.468.47.35z"/><path fill="#FFF" d="M451.308 338.877l1.878-1.057c.235-.117.47-.588.47-.821v-1.997c0-.353-.234-.47-.47-.353l-1.878 1.058c-.234.117-.47.588-.47.82v1.996c0 .236.117.47.47.354z"/><path fill="#173D7A" d="M438.865 376.67l20.307-11.62c1.173-.702 2.113-2.464 2.113-3.99v-7.276c0-1.526-.94-2.23-2.113-1.526l-20.307 11.62c-1.174.705-2.114 2.466-2.114 3.99v7.277c.118 1.409.94 2.114 2.114 1.526z"/><path fill="#FFF" d="M460.228 351.906c.352.352.47.82.47 1.526v7.276c0 1.525-.939 3.287-2.113 3.99l-20.308 11.623c-.35.233-.702.233-1.055.233.353.354.94.47 1.525 0l20.308-11.62c1.173-.703 2.112-2.465 2.112-3.991v-7.16c.118-1.056-.235-1.76-.939-1.877z"/><path fill="#396CAA" d="M444.97 368.69l1.878-1.056c.233-.118.469-.587.469-.821v-1.995c0-.354-.233-.47-.47-.354l-1.877 1.059c-.236.117-.471.585-.471.82v1.995c.118.352.235.587.47.352z"/><path fill="#FFF" d="M451.308 365.169l1.878-1.057c.235-.117.47-.585.47-.821v-1.995c0-.352-.234-.47-.47-.352l-1.878 1.055c-.234.118-.47.587-.47.822v1.996c0 .352.117.468.47.352z"/><path fill="#173D7A" d="M438.865 323.97l20.307-11.621c1.173-.704 2.113-2.465 2.113-3.99v-7.278c0-1.526-.94-2.23-2.113-1.526l-20.307 11.62c-1.174.704-2.114 2.465-2.114 3.99v7.278c.118 1.527.94 2.229 2.114 1.527z"/><path fill="#FFF" d="M460.228 299.32c.352.353.47.822.47 1.526v7.277c0 1.526-.939 3.288-2.113 3.99l-20.308 11.622c-.35.235-.702.235-1.055.235.353.352.94.469 1.525 0l20.308-11.621c1.173-.704 2.112-2.465 2.112-3.99v-7.278c.118-.94-.235-1.644-.939-1.761z"/><path fill="#396CAA" d="M444.97 316.104l1.878-1.055c.233-.12.469-.588.469-.822v-1.995c0-.353-.233-.47-.47-.353l-1.877 1.056c-.236.118-.471.587-.471.822v1.996c.118.35.235.47.47.35z"/><path fill="#FFF" d="M451.308 312.466l1.878-1.056c.235-.117.47-.587.47-.822v-1.995c0-.352-.234-.47-.47-.352l-1.878 1.057c-.234.117-.47.586-.47.82v1.997c0 .35.117.585.47.35z"/><path fill="#2378DF" d="M421.258 290.282l-46.95-27.115c-1.057-.587-1.88-2.23-1.88-3.638v-9.039c0-1.409.822-1.996 1.88-1.409l46.951 27.115c1.056.587 1.878 2.23 1.878 3.64v8.92c-.002 1.526-.823 2.113-1.879 1.526z"/><path opacity=".5" fill="#D4ECFF" d="M419.85 287.112l-44.253-25.588c-.585-.352-.939-1.174-.939-1.878v-6.69c0-.704.471-1.057.94-.704l44.25 25.587c.588.353.941 1.175.941 1.88v6.69c.117.703-.353 1.055-.939.703z"/><path fill="#FFF" d="M384.871 263.52l-6.573-3.874c-.469-.352-.939-1.056-.939-1.76 0-.706.471-1.057.94-.706l6.572 3.874c.47.353.94 1.057.94 1.761 0 .587-.47.938-.94.704zm5.635 1.995c0 .704-.47.94-1.057.587-.587-.352-1.056-1.174-1.056-1.878 0-.705.47-.939 1.056-.587s1.057 1.172 1.057 1.878zm3.756 2.112c0 .705-.472.94-1.057.587-.588-.352-1.055-1.173-1.055-1.878s.468-.939 1.055-.587c.586.352 1.057 1.291 1.057 1.878zm3.872 2.23c0 .705-.468.94-1.055.587-.587-.352-1.056-1.173-1.056-1.878 0-.704.47-.939 1.056-.587.587.353 1.055 1.174 1.055 1.878zm3.757 2.23c0 .704-.47.94-1.056.586-.588-.352-1.057-1.173-1.057-1.877s.47-.94 1.057-.587c.587.352 1.056 1.175 1.056 1.878zm16.199 11.269l-2.23-1.29c-.353-.236-.588-.706-.588-1.176v-2.347c0-.469.234-.705.588-.469l2.23 1.291c.352.235.587.704.587 1.174v2.347c0 .47-.352.705-.587.47z"/><path fill="#2378DF" d="M421.258 306.01l-46.95-27.114c-1.057-.587-1.88-2.23-1.88-3.64v-8.92c0-1.408.822-1.995 1.88-1.408l46.951 27.114c1.056.588 1.878 2.23 1.878 3.639v8.92c-.002 1.409-.823 2.113-1.879 1.409z"/><path opacity=".5" fill="#D4ECFF" d="M419.85 302.958l-44.253-25.588c-.585-.352-.939-1.173-.939-1.878v-6.69c0-.704.471-1.056.94-.704l44.25 25.588c.588.352.941 1.174.941 1.878v6.69c.117.587-.353.939-.939.704z"/><path fill="#FFF" d="M384.871 279.248l-6.573-3.874c-.469-.352-.939-1.057-.939-1.761s.471-1.057.94-.704l6.572 3.873c.47.352.94 1.056.94 1.76 0 .706-.47 1.058-.94.706zm5.635 1.995c0 .704-.47.939-1.057.587-.587-.353-1.056-1.174-1.056-1.88 0-.703.47-.937 1.056-.586.587.353 1.057 1.175 1.057 1.879zm3.756 2.23c0 .705-.472.939-1.057.587-.588-.352-1.055-1.174-1.055-1.878s.468-.94 1.055-.587c.586.352 1.057 1.175 1.057 1.878zm3.872 2.231c0 .704-.468.939-1.055.587s-1.056-1.173-1.056-1.878c0-.704.47-.94 1.056-.587.587.352 1.055 1.174 1.055 1.878zm3.757 2.23c0 .705-.47.939-1.056.587-.588-.352-1.057-1.173-1.057-1.878 0-.704.47-.94 1.057-.587.587.352 1.056 1.174 1.056 1.878zm16.199 11.268l-2.23-1.291c-.353-.234-.588-.704-.588-1.173v-2.348c0-.47.234-.704.588-.47l2.23 1.292c.352.234.587.704.587 1.173v2.348c0 .469-.352.586-.587.469z"/><path fill="#2378DF" d="M421.258 321.856l-46.95-27.113c-1.056-.588-1.879-2.23-1.879-3.64v-8.921c0-1.408.822-1.996 1.88-1.408l46.95 27.115c1.056.586 1.878 2.229 1.878 3.639v8.92c-.002 1.408-.823 1.995-1.879 1.408z"/><path opacity=".5" fill="#D4ECFF" d="M419.85 318.687l-44.253-25.588c-.585-.353-.938-1.174-.938-1.878v-6.692c0-.704.47-1.056.941-.704l44.25 25.589c.587.352.94 1.173.94 1.878v6.69c.116.705-.354 1.057-.94.705z"/><path fill="#FFF" d="M384.871 295.094l-6.573-3.873c-.469-.353-.939-1.057-.939-1.761s.471-1.057.94-.704l6.572 3.874c.47.352.94 1.056.94 1.76s-.47.938-.94.704zm5.635 1.995c0 .704-.47.939-1.057.587s-1.056-1.174-1.056-1.878c0-.705.47-.94 1.056-.588.587.354 1.057 1.175 1.057 1.879zm3.756 2.23c0 .705-.472.939-1.057.587-.587-.352-1.055-1.174-1.055-1.878s.468-.94 1.055-.587c.586.352 1.057 1.175 1.057 1.878zm3.872 2.114c0 .704-.468.938-1.055.586s-1.056-1.174-1.056-1.878.47-.94 1.056-.587c.587.352 1.055 1.292 1.055 1.879zm3.757 2.23c0 .705-.47.939-1.056.587-.588-.353-1.057-1.174-1.057-1.88 0-.703.47-.938 1.057-.585.587.352 1.056 1.173 1.056 1.878zm16.199 11.267l-2.23-1.291c-.353-.235-.588-.704-.588-1.174v-2.348c0-.47.234-.704.588-.47l2.23 1.292c.352.234.587.704.587 1.173v2.348c0 .47-.352.706-.587.47z"/><path fill="#2378DF" d="M421.258 337.703l-46.95-27.115c-1.057-.587-1.88-2.23-1.88-3.638v-8.921c0-1.408.822-1.995 1.88-1.408l46.951 27.113c1.056.588 1.878 2.23 1.878 3.639v8.923c-.002 1.289-.823 1.993-1.879 1.407z"/><path opacity=".5" fill="#D4ECFF" d="M419.85 334.534l-44.253-25.59c-.585-.351-.939-1.172-.939-1.877v-6.69c0-.704.471-1.057.94-.704l44.252 25.588c.587.354.94 1.174.94 1.879v6.689c.116.705-.354.939-.94.705z"/><path fill="#FFF" d="M384.871 310.823l-6.573-3.873c-.469-.353-.939-1.057-.939-1.761s.471-1.056.94-.704l6.572 3.875c.47.352.94 1.056.94 1.76 0 .703-.47 1.055-.94.703zm5.635 1.995c0 .704-.47.939-1.057.587s-1.056-1.173-1.056-1.877c0-.705.47-.94 1.056-.588s1.057 1.292 1.057 1.878zm3.756 2.229c0 .705-.472.94-1.057.588-.588-.352-1.055-1.173-1.055-1.878 0-.704.468-.94 1.055-.586.586.35 1.057 1.173 1.057 1.876zm3.872 2.233c0 .703-.468.938-1.055.586s-1.056-1.174-1.056-1.877c0-.705.47-.941 1.056-.588.587.352 1.055 1.174 1.055 1.879zm3.757 2.229c0 .704-.47.938-1.056.587-.588-.353-1.057-1.175-1.057-1.88s.47-.937 1.057-.585c.587.352 1.056 1.174 1.056 1.878zm16.199 11.267l-2.23-1.29c-.353-.233-.588-.703-.588-1.173v-2.35c0-.467.234-.703.588-.467l2.23 1.29c.352.235.587.703.587 1.173v2.348c0 .469-.352.705-.587.469z"/><path fill="#2378DF" d="M421.258 353.432l-46.95-27.115c-1.056-.587-1.879-2.23-1.879-3.638v-8.922c0-1.408.822-1.995 1.88-1.408l46.95 27.114c1.056.587 1.878 2.23 1.878 3.64v8.92c-.002 1.409-.823 1.995-1.879 1.409z"/><path opacity=".5" fill="#D4ECFF" d="M419.85 350.26l-44.253-25.588c-.585-.351-.939-1.172-.939-1.877v-6.691c0-.703.471-1.057.94-.703l44.25 25.587c.588.354.941 1.175.941 1.88v6.69c.117.703-.353 1.056-.939.703z"/><path fill="#FFF" d="M384.871 326.669l-6.573-3.874c-.469-.352-.939-1.057-.939-1.761s.471-1.056.94-.704l6.572 3.875c.47.35.94 1.055.94 1.759 0 .705-.47 1.057-.94.705zm5.635 1.994c0 .705-.47.94-1.057.589-.587-.353-1.056-1.174-1.056-1.88 0-.703.47-.938 1.056-.586.587.352 1.057 1.173 1.057 1.877zm3.756 2.231c0 .703-.472.94-1.057.587-.587-.351-1.055-1.174-1.055-1.878s.468-.94 1.055-.588c.586.353 1.057 1.175 1.057 1.879zm3.872 2.23c0 .704-.468.94-1.055.587-.587-.352-1.056-1.173-1.056-1.877s.47-.94 1.056-.587c.587.35 1.055 1.173 1.055 1.877zm3.757 2.114c0 .704-.47.938-1.056.588-.588-.353-1.057-1.176-1.057-1.88 0-.703.47-.938 1.057-.586.587.35 1.056 1.29 1.056 1.878zm16.199 11.268l-2.23-1.292c-.353-.233-.588-.703-.588-1.174v-2.347c0-.47.234-.706.588-.47l2.23 1.29c.352.236.587.706.587 1.174v2.348c0 .47-.352.705-.587.47z"/><path fill="#2378DF" d="M421.258 369.278l-46.95-27.115c-1.056-.586-1.879-2.23-1.879-3.638v-8.921c0-1.408.822-1.996 1.88-1.408l46.95 27.114c1.056.587 1.878 2.229 1.878 3.639v8.92c-.002 1.29-.823 1.997-1.879 1.409z"/><path opacity=".5" fill="#D4ECFF" d="M419.85 366.109l-44.253-25.59c-.585-.352-.939-1.173-.939-1.878v-6.69c0-.702.471-1.056.94-.702l44.25 25.587c.588.353.941 1.174.941 1.879v6.69c.117.704-.353 1.056-.939.704z"/><path fill="#FFF" d="M384.871 342.514l-6.573-3.873c-.469-.352-.939-1.056-.939-1.76 0-.705.471-1.057.94-.705l6.572 3.874c.47.352.94 1.057.94 1.76 0 .587-.47.94-.94.704zm5.635 1.996c0 .704-.47.939-1.057.588-.587-.353-1.056-1.174-1.056-1.878 0-.706.47-.941 1.056-.588.587.352 1.057 1.174 1.057 1.879zm3.756 2.113c0 .705-.472.94-1.057.588-.587-.352-1.055-1.173-1.055-1.878 0-.704.468-.94 1.055-.587.586.35 1.057 1.29 1.057 1.877zm3.872 2.231c0 .704-.468.939-1.055.587-.587-.351-1.056-1.174-1.056-1.878s.47-.94 1.056-.587c.587.352 1.055 1.173 1.055 1.878zm3.757 2.23c0 .704-.47.938-1.056.586-.588-.352-1.057-1.174-1.057-1.878 0-.703.47-.94 1.057-.586.587.352 1.056 1.173 1.056 1.878zm16.199 11.269l-2.23-1.292c-.353-.234-.588-.705-.588-1.174v-2.347c0-.47.234-.702.588-.47l2.23 1.29c.352.236.587.706.587 1.176v2.347c0 .47-.352.703-.587.47z"/><path fill="#2378DF" d="M421.258 385.006l-46.95-27.114c-1.056-.588-1.879-2.23-1.879-3.64v-8.92c0-1.408.822-1.995 1.88-1.408l46.95 27.113c1.056.587 1.878 2.23 1.878 3.639v8.922c-.002 1.408-.823 2.112-1.879 1.408z"/><path opacity=".5" fill="#D4ECFF" d="M419.85 381.952l-44.253-25.586c-.585-.354-.939-1.175-.939-1.88v-6.69c0-.703.471-1.057.94-.703l44.25 25.589c.588.353.941 1.173.941 1.879v6.689c.117.586-.353.94-.939.702z"/><path fill="#FFF" d="M384.871 358.243l-6.573-3.874c-.469-.352-.939-1.055-.939-1.761 0-.703.471-1.056.94-.703l6.572 3.873c.47.353.94 1.057.94 1.76 0 .705-.47 1.057-.94.705zm30.284 16.552c0 1.289-.939 1.877-1.996 1.172-1.174-.704-1.996-2.23-1.996-3.521s.941-1.88 1.996-1.173c1.175.704 1.996 2.229 1.996 3.522zm-24.649-14.321c0 .705-.47.939-1.057.587s-1.056-1.173-1.056-1.878.47-.94 1.056-.588c.587.353 1.057 1.176 1.057 1.879zm3.756 2.228c0 .705-.472.94-1.057.588-.587-.352-1.055-1.173-1.055-1.877 0-.706.468-.94 1.055-.588.586.353 1.057 1.174 1.057 1.877zm3.872 2.116c0 .703-.468.938-1.055.587-.587-.354-1.056-1.174-1.056-1.878 0-.705.47-.941 1.056-.59s1.055 1.294 1.055 1.88z"/><path opacity=".3" fill="#D5E1F2" d="M491.334 439.938l-50.12-28.64c-1.879-1.058-1.645-2.935.47-4.108l28.872-16.667c2.114-1.175 5.283-1.409 7.161-.354l50.12 28.642c1.878 1.056 1.644 2.935-.469 4.108l-28.875 16.666c-2.11 1.292-5.28 1.41-7.159.353z"/><path fill="#DAE4F2" d="M532.3 409.185V292.16l-46.484-12.207-8.568-4.93c-1.996-1.173-5.4-.939-7.63.352l-7.982 4.578H436.87l7.396 113.034c0 .821.352 1.526 1.292 2.113l46.48 35.097c1.995 1.174 5.398.938 7.631-.352l30.986-17.842c1.057-.941 1.762-1.878 1.645-2.818z"/><path fill="#FFF" stroke="#BBCDE5" d="M473.61 274.318c-1.41 0-2.937.352-4.109 1.057l-7.98 4.578h-24.77V397.33c0 .822.353 1.525 1.293 2.113l53.76 30.636c.938.587 2.23.821 3.52.704l.588-118.083-22.303-38.382z"/><path fill="#BBCDE5" d="M492.273 430.313c1.642.704 4.108.704 6.104-.117V311.292h-6.104v119.021z"/><path fill="#E8F0FB" d="M491.802 312.701l-53.758-30.636c-1.995-1.175-1.76-3.169.587-4.46l30.987-17.842c2.23-1.291 5.751-1.408 7.63-.352l53.76 30.636c1.994 1.173 1.761 3.168-.588 4.46l-30.987 17.841c-2.23 1.41-5.634 1.526-7.63.353z"/><path fill="#FAFDFF" d="M530.42 292.394l-30.987 17.841c-2.229 1.291-5.752 1.409-7.63.352l-53.759-30.752c-.469-.235-.704-.587-.94-.821-.703 1.056-.353 2.229.94 3.052l53.76 30.635c1.995 1.174 5.4.939 7.63-.352l30.986-17.842c1.762-1.056 2.35-2.465 1.526-3.521-.235.47-.822.939-1.526 1.408z"/><path fill="#2378DF" d="M493.33 300.258l-35.802-20.776c-.938-.586-.822-1.408.235-2.113l14.437-8.333c1.056-.587 2.701-.704 3.64-.117l35.8 20.775c.94.587.821 1.408-.233 2.112l-14.439 8.334c-1.057.588-2.7.706-3.639.118z"/><path d="M473.961 280.421l-2.112-1.173c-.117-.117-.117-.234 0-.234l1.995-1.174c.117-.118.353-.118.471 0l2.111 1.174c.12.117.12.234 0 .234l-1.995 1.173c-.117.118-.353.118-.47 0zm6.925 3.991l-2.112-1.173c-.116-.118-.116-.234 0-.234l1.996-1.174c.116-.117.35-.117.468 0l2.113 1.174c.117.117.117.234 0 .234l-1.995 1.173c-.118.118-.234.118-.47 0zm7.044 3.991l-2.114-1.174c-.117-.117-.117-.235 0-.235l1.995-1.172a.356.356 0 01.47 0l2.113 1.172c.117.118.117.235 0 .235l-1.995 1.174c-.235.117-.353.117-.47 0zm6.925 3.99l-2.113-1.173c-.117-.118-.117-.234 0-.234l1.995-1.174a.36.36 0 01.471 0l2.111 1.174c.117.117.117.234 0 .234l-1.995 1.173c-.116.118-.353.118-.469 0z" fill="#D4ECFF"/><path fill="#0D54A9" d="M457.528 279.482c.118 0 .235-.117.235-.117l14.437-8.334c1.057-.587 2.701-.704 3.64-.117l35.8 20.66c.821-.589.94-1.41 0-1.88l-35.8-20.775c-.938-.587-2.583-.47-3.64.117l-14.437 8.333c-1.057.705-1.173 1.645-.235 2.113z"/><path fill="#2378DF" d="M505.536 335.941l20.307-11.62c1.173-.705 2.113-2.465 2.113-3.99v-7.278c0-1.525-.94-2.23-2.113-1.525l-20.307 11.62c-1.174.703-2.112 2.465-2.112 3.991v7.277c0 1.408.938 2.111 2.112 1.525z"/><path fill="#FFF" d="M526.9 311.174c.351.353.47.822.47 1.526v7.278c0 1.525-.94 3.286-2.114 3.991l-20.307 11.62c-.353.234-.703.234-1.057.234.354.352.94.471 1.526 0l20.308-11.62c1.173-.705 2.112-2.466 2.112-3.99v-7.278c.118-.939-.353-1.643-.939-1.76z"/><path d="M511.64 327.959l1.877-1.055c.234-.118.47-.588.47-.822v-1.994c0-.354-.235-.472-.47-.354l-1.878 1.057c-.234.117-.47.588-.47.822v1.995c.001.35.236.587.47.35zm6.221-3.52l1.878-1.056c.235-.116.471-.588.471-.822v-1.995c0-.353-.235-.47-.47-.353l-1.879 1.057c-.236.118-.47.586-.47.822v1.996c.117.35.234.468.47.35z" fill="#FFF"/><path fill="#2378DF" d="M505.536 388.527l20.307-11.62c1.173-.706 2.113-2.465 2.113-3.99v-7.279c0-1.527-.94-2.23-2.113-1.527l-20.307 11.622c-1.174.705-2.112 2.465-2.112 3.99V387c0 1.528.938 2.232 2.112 1.528z"/><path fill="#FFF" d="M526.9 363.877c.351.353.47.822.47 1.525v7.28c0 1.524-.94 3.284-2.114 3.988l-20.307 11.622c-.353.234-.703.234-1.057.234.354.352.94.47 1.526 0l20.308-11.62c1.173-.706 2.112-2.465 2.112-3.99v-7.278c.118-1.058-.353-1.643-.939-1.76z"/><path d="M511.64 380.664l1.877-1.06c.234-.116.47-.586.47-.82v-1.995c0-.351-.235-.47-.47-.351l-1.878 1.054c-.234.119-.47.587-.47.823v1.995c.001.354.236.47.47.354zm6.221-3.639l1.878-1.058c.235-.117.471-.586.471-.822v-1.994c0-.352-.235-.47-.47-.352l-1.879 1.056c-.236.117-.47.587-.47.822v1.995c.117.353.234.47.47.353z" fill="#FFF"/><path fill="#2378DF" d="M505.536 414.82l20.307-11.622c1.173-.703 2.113-2.463 2.113-3.989v-7.278c0-1.525-.94-2.23-2.113-1.525l-20.307 11.62c-1.174.703-2.112 2.464-2.112 3.99v7.277c0 1.526.938 2.231 2.112 1.526z"/><path fill="#FFF" d="M526.9 390.17c.351.354.47.821.47 1.526v7.277c0 1.526-.94 3.287-2.114 3.991l-20.307 11.62c-.353.233-.703.233-1.057.233.354.353.94.47 1.526 0l20.307-11.62c1.174-.703 2.112-2.463 2.112-3.989v-7.278c.12-1.055-.352-1.642-.938-1.76z"/><path d="M511.64 406.956l1.877-1.058c.234-.116.47-.587.47-.82v-1.997c0-.35-.233-.469-.47-.35l-1.878 1.055c-.234.118-.47.587-.47.821v1.995c.001.354.236.47.47.354zm6.221-3.64l1.878-1.056c.235-.117.471-.588.471-.82v-1.998c0-.352-.235-.469-.47-.352l-1.879 1.056c-.235.117-.47.59-.47.821v1.997c.117.352.234.47.47.352z" fill="#FFF"/><path fill="#2378DF" d="M505.536 362.234l20.307-11.62c1.173-.703 2.113-2.465 2.113-3.99v-7.277c0-1.525-.94-2.23-2.113-1.525l-20.307 11.619c-1.174.704-2.112 2.466-2.112 3.992v7.277c0 1.524.938 2.229 2.112 1.524z"/><path fill="#FFF" d="M526.9 337.585c.351.352.47.82.47 1.524v7.279c0 1.525-.94 3.286-2.114 3.99l-20.307 11.62c-.353.234-.703.234-1.057.234.354.352.94.469 1.526 0l20.308-11.62c1.173-.703 2.112-2.465 2.112-3.991v-7.276c.118-1.056-.353-1.76-.939-1.76z"/><path d="M511.64 354.37l1.877-1.056c.234-.118.47-.588.47-.822v-1.996c0-.353-.233-.47-.47-.353l-1.878 1.057c-.234.118-.47.588-.47.822v1.995c.001.235.236.47.47.352zm6.221-3.639l1.878-1.057c.235-.117.471-.587.471-.82v-2.115c0-.35-.235-.469-.47-.35l-1.879 1.055c-.235.118-.47.587-.47.82v1.996c.117.471.234.587.47.471z" fill="#FFF"/><path fill="#2378DF" d="M487.93 328.43l-46.953-27.114c-1.055-.587-1.878-2.23-1.878-3.64v-8.92c0-1.41.822-1.996 1.878-1.41l46.952 27.116c1.057.587 1.878 2.23 1.878 3.639v8.92c.001 1.409-.82 1.996-1.877 1.409z"/><path opacity=".5" fill="#D4ECFF" d="M486.521 325.26l-44.252-25.471c-.587-.352-.939-1.173-.939-1.878v-6.69c0-.705.471-1.057.94-.705l44.251 25.588c.587.354.938 1.175.938 1.879v6.689c0 .588-.352.942-.938.588z"/><path fill="#FFF" d="M451.542 301.667l-6.572-3.873c-.47-.353-.939-1.056-.939-1.761 0-.705.47-1.057.94-.705l6.571 3.873c.471.353.938 1.057.938 1.76 0 .706-.467 1.059-.938.706zm5.635 1.997c0 .704-.47.939-1.057.587-.587-.353-1.055-1.174-1.055-1.88 0-.704.468-.938 1.055-.586.47.352 1.057 1.173 1.057 1.879zm3.756 2.229c0 .704-.47.939-1.056.587-.587-.353-1.056-1.174-1.056-1.88 0-.703.47-.937 1.056-.586.585.353 1.056 1.174 1.056 1.879zm3.872 2.23c0 .704-.468.939-1.055.588-.588-.353-1.057-1.174-1.057-1.878 0-.705.47-.94 1.057-.587.587.35 1.055 1.174 1.055 1.877zm19.837 13.499l-2.23-1.292c-.353-.233-.587-.703-.587-1.172v-2.35c0-.468.234-.702.586-.468l2.231 1.29c.354.235.588.706.588 1.175v2.349c.117.35-.234.585-.588.468z"/><path fill="#2378DF" d="M487.93 344.275l-46.953-27.114c-1.055-.587-1.878-2.23-1.878-3.639v-9.039c0-1.409.822-1.995 1.878-1.409l46.952 27.114c1.057.586 1.878 2.23 1.878 3.64v8.921c.001 1.526-.82 2.112-1.877 1.526z"/><path opacity=".5" fill="#D4ECFF" d="M486.521 341.105l-44.252-25.588c-.587-.352-.939-1.173-.939-1.878v-6.69c0-.704.471-1.057.94-.704l44.251 25.588c.587.352.938 1.173.938 1.877v6.69c0 .705-.352 1.058-.938.705z"/><path fill="#FFF" d="M451.542 317.513l-6.572-3.874c-.47-.352-.939-1.057-.939-1.76 0-.705.47-1.057.94-.705l6.571 3.874c.471.352.938 1.057.938 1.76 0 .587-.467.94-.938.705zm5.635 1.994c0 .705-.47.94-1.057.587-.587-.352-1.055-1.174-1.055-1.878s.468-.938 1.055-.588c.47.354 1.057 1.176 1.057 1.88zm3.756 2.114c0 .705-.47.94-1.056.587-.587-.35-1.056-1.172-1.056-1.879 0-.703.47-.938 1.056-.586.585.351 1.056 1.291 1.056 1.878zm3.872 2.229c0 .705-.468.94-1.055.588-.588-.35-1.057-1.175-1.057-1.878 0-.705.47-.94 1.057-.588.587.354 1.055 1.174 1.055 1.878zm19.837 13.5l-2.23-1.292c-.353-.234-.587-.704-.587-1.174v-2.347c0-.47.234-.704.586-.47l2.231 1.291c.354.234.588.705.588 1.174v2.348c.117.47-.234.704-.588.47z"/><path fill="#2378DF" d="M487.93 360.004l-46.953-27.115c-1.055-.588-1.878-2.23-1.878-3.638v-8.923c0-1.407.822-1.994 1.878-1.407l46.952 27.115c1.057.586 1.878 2.228 1.878 3.638v8.921c.001 1.41-.82 2.113-1.877 1.41z"/><path opacity=".5" fill="#D4ECFF" d="M486.521 356.952l-44.252-25.588c-.587-.353-.939-1.175-.939-1.879v-6.69c0-.704.471-1.057.94-.704l44.251 25.59c.587.35.938 1.171.938 1.877v6.69c0 .704-.352.94-.938.704z"/><path fill="#FFF" d="M451.542 333.243l-6.572-3.875c-.47-.353-.939-1.057-.939-1.76 0-.705.47-1.058.94-.705l6.571 3.872c.471.354.938 1.06.938 1.763 0 .705-.467 1.054-.938.705zm5.635 1.994c0 .704-.47.938-1.057.587-.587-.352-1.055-1.174-1.055-1.878 0-.703.468-.94 1.055-.587.47.352 1.057 1.174 1.057 1.878zm3.756 2.231c0 .703-.47.938-1.056.587-.587-.353-1.056-1.175-1.056-1.88 0-.703.47-.938 1.056-.586.585.352 1.056 1.173 1.056 1.88zm3.872 2.23c0 .703-.468.938-1.055.586s-1.057-1.173-1.057-1.878c0-.703.47-.938 1.057-.586s1.055 1.173 1.055 1.878zm19.837 13.498l-2.23-1.29c-.353-.236-.587-.706-.587-1.175v-2.347c0-.47.234-.703.586-.47l2.231 1.292c.354.233.588.703.588 1.172v2.348c.117.47-.234.588-.588.47z"/><path fill="#2378DF" d="M487.93 375.85l-46.953-27.116c-1.055-.586-1.878-2.229-1.878-3.637v-8.922c0-1.408.822-1.995 1.878-1.408l46.952 27.114c1.057.587 1.878 2.23 1.878 3.64v8.92c.001 1.408-.82 1.997-1.877 1.408z"/><path opacity=".5" fill="#D4ECFF" d="M486.521 372.681l-44.252-25.589c-.587-.354-.939-1.174-.939-1.879v-6.689c0-.704.471-1.056.94-.704l44.251 25.588c.587.352.938 1.174.938 1.878v6.691c0 .704-.352 1.057-.938.704z"/><path fill="#FFF" d="M451.542 349.088l-6.572-3.874c-.47-.353-.939-1.056-.939-1.76s.47-1.058.94-.704l6.571 3.872c.471.354.938 1.06.938 1.763 0 .703-.467.937-.938.703zm5.635 1.996c0 .704-.47.938-1.057.586s-1.055-1.173-1.055-1.878c0-.702.468-.938 1.055-.586.47.351 1.057 1.173 1.057 1.878zm3.756 2.23c0 .703-.47.938-1.056.585-.587-.35-1.056-1.173-1.056-1.877s.47-.938 1.056-.588c.585.354 1.056 1.174 1.056 1.88zm3.872 2.112c0 .704-.468.94-1.055.586-.587-.352-1.057-1.172-1.057-1.877 0-.704.47-.939 1.057-.588s1.055 1.294 1.055 1.88zm19.837 13.498l-2.23-1.29c-.353-.235-.587-.704-.587-1.175v-2.349c0-.469.234-.703.586-.469l2.231 1.293c.354.233.588.703.588 1.172v2.35c.117.468-.234.704-.588.468z"/><path fill="#2378DF" d="M487.93 391.696l-46.953-27.114c-1.055-.587-1.878-2.23-1.878-3.638v-8.922c0-1.409.822-1.996 1.878-1.409l46.952 27.114c1.057.588 1.878 2.23 1.878 3.64v8.921c.001 1.29-.82 1.995-1.877 1.408z"/><path opacity=".5" fill="#D4ECFF" d="M486.521 388.527l-44.252-25.589c-.587-.353-.939-1.174-.939-1.878v-6.69c0-.704.471-1.056.94-.704l44.251 25.588c.587.352.938 1.174.938 1.878v6.692c0 .703-.352.938-.938.703z"/><path fill="#FFF" d="M451.542 364.817l-6.572-3.873c-.47-.353-.939-1.058-.939-1.762 0-.705.47-1.057.94-.705l6.571 3.874c.471.353.938 1.056.938 1.76 0 .706-.467 1.058-.938.706zm5.635 1.995c0 .703-.47.938-1.057.587-.587-.353-1.055-1.175-1.055-1.878 0-.705.468-.94 1.055-.587.47.351 1.057 1.29 1.057 1.878zm3.756 2.23c0 .704-.47.94-1.056.588-.587-.353-1.056-1.174-1.056-1.879 0-.704.47-.938 1.056-.587.585.351 1.056 1.176 1.056 1.878zm3.872 2.231c0 .703-.468.938-1.055.587-.588-.353-1.057-1.174-1.057-1.878 0-.705.47-.94 1.057-.589.587.353 1.055 1.175 1.055 1.88zm19.837 13.498l-2.23-1.292c-.353-.233-.587-.704-.587-1.174v-2.348c0-.47.234-.704.586-.47l2.231 1.292c.354.234.588.704.588 1.172v2.35c.117.47-.234.705-.588.47z"/><path fill="#2378DF" d="M487.93 407.424l-46.953-27.114c-1.055-.587-1.878-2.23-1.878-3.639v-8.92c0-1.408.822-1.995 1.878-1.408l46.953 27.114c1.057.588 1.878 2.23 1.878 3.638v8.921c0 1.408-.822 1.996-1.878 1.408z"/><path opacity=".5" fill="#D4ECFF" d="M486.521 404.257l-44.252-25.59c-.587-.352-.939-1.175-.939-1.878v-6.574c0-.703.471-1.055.94-.703l44.25 25.588c.587.353.938 1.175.938 1.88v6.69c0 .587-.352.937-.938.587z"/><path fill="#FFF" d="M451.542 380.664l-6.572-3.875c-.47-.35-.939-1.056-.939-1.76 0-.706.47-1.058.94-.706l6.571 3.875c.471.352.938 1.056.938 1.76 0 .706-.467 1.056-.938.706zm5.635 1.994c0 .704-.47.94-1.057.588-.587-.353-1.055-1.175-1.055-1.879s.468-.94 1.055-.587c.47.352 1.057 1.172 1.057 1.878zm3.756 2.232c0 .702-.47.937-1.056.586-.587-.353-1.056-1.174-1.056-1.879s.47-.939 1.056-.588c.585.353 1.056 1.174 1.056 1.88zm3.872 2.23c0 .703-.468.937-1.055.586-.587-.353-1.057-1.174-1.057-1.879 0-.704.47-.938 1.057-.587s1.055 1.175 1.055 1.88zm19.837 13.38l-2.23-1.29c-.353-.236-.587-.705-.587-1.175v-2.348c0-.47.234-.703.586-.47l2.231 1.292c.354.234.588.703.588 1.173v2.348c.117.47-.234.705-.588.47z"/><g transform="translate(450.303 389.696)"><path fill="#2378DF" d="M37.627 33.575L-9.326 6.461c-1.055-.588-1.878-2.232-1.878-3.64v-8.92c0-1.41.822-1.996 1.878-1.41l46.952 27.114c1.057.587 1.878 2.23 1.878 3.639v8.922c.001 1.29-.821 1.996-1.877 1.409z"/><path opacity=".5" fill="#D4ECFF" d="M36.218 30.406L-8.034 4.817c-.586-.351-.939-1.174-.939-1.879v-6.689c0-.704.471-1.056.939-.704l44.252 25.588c.587.354.938 1.175.938 1.88v6.69c0 .703-.352 1.055-.938.703z"/><path fill="#FFF" d="M1.239 6.814l-6.572-3.875c-.471-.352-.939-1.056-.939-1.76 0-.705.469-1.058.939-.705L1.239 4.35c.471.35.938 1.054.938 1.759 0 .587-.467.939-.938.705z"/><ellipse transform="rotate(150.009 5.936 8.501)" fill="#FFF" cx="5.936" cy="8.501" rx="1.643" ry="2.934"/><path fill="#FFF" d="M15.911 14.208c0 .703-.469.938-1.056.586-.588-.352-1.056-1.174-1.056-1.878s.468-.939 1.056-.586c.587.352 1.056 1.172 1.056 1.878zm3.874 2.23c0 .704-.47.939-1.057.588-.587-.353-1.056-1.173-1.056-1.879 0-.704.471-.938 1.056-.586.587.35 1.057 1.172 1.057 1.877zM34.339 26.65l-2.231-1.291c-.352-.235-.586-.703-.586-1.174v-2.348c0-.471.234-.705.586-.471l2.231 1.292c.354.235.588.703.588 1.175v2.347c.117.47-.234.704-.588.47z"/></g><path fill="#5793CE" d="M409.755 410.358a.647.647 0 01-.587-.35c-.234-.354-.117-.706.235-.941l9.272-5.399c1.055-.588 1.76-1.76 1.76-2.933v-4.932c0-.352.355-.704.705-.704.353 0 .703.353.703.704v4.932c0 1.643-.938 3.285-2.347 4.106l-9.273 5.399c-.233.118-.351.118-.468.118z"/><g fill="#5793CE"><path d="M409.233 406.702l2.803 4.886-10.589 6.073-2.802-4.888z"/><path d="M412.69 410.36c0-1.293-.94-2.818-1.994-3.404-1.058-.588-1.997-.118-1.997 1.174 0 1.29.94 2.815 1.997 3.403 1.054.587 1.994 0 1.994-1.174z"/></g><path fill="#5793CE" d="M399.707 410.11l4.553 7.941-16.597 9.516-4.554-7.94z"/><path fill="#396CAA" d="M400.484 411.767l3.52-1.994c1.527 1.055 2.583 3.052 2.818 4.93l-3.522 1.994c-1.526-1.055-2.7-3.168-2.816-4.93z"/><path fill="#5793CE" d="M405.178 415.994c0-2.113-1.41-4.578-3.17-5.635-1.76-1.057-3.286-.234-3.286 1.878 0 2.114 1.409 4.578 3.17 5.635 1.877 1.056 3.286.233 3.286-1.878z"/><path fill="#D4ECFF" d="M409.404 408.95c.468-.352.468-.82 0-1.056-.471-.353-1.41-.353-1.88 0s-.47.821 0 1.055c.47.353 1.293.353 1.88 0z"/><path fill="#5793CE" d="M267.14 411.533c-.117 0-.233 0-.351-.117l-8.1-4.694c-.704-.353-1.056-1.057-1.056-1.88a2.22 2.22 0 011.057-1.877l52.584-28.759c4.813-2.699 7.864-7.746 7.864-13.262v-71.428c0-1.175-.587-2.113-1.526-2.701-.94-.586-2.112-.586-3.17 0l-17.488 9.508c-.353.234-.705 0-.94-.234-.234-.353-.117-.705.235-.939l17.489-9.508c1.408-.822 3.052-.705 4.46.118 1.409.822 2.23 2.23 2.23 3.873v71.427c0 5.986-3.287 11.621-8.568 14.438l-52.468 28.758c-.352.233-.352.587-.352.704 0 .118 0 .469.352.703l8.1 4.695c.352.235.469.588.233.94a.88.88 0 01-.584.235z"/><g fill="#5793CE"><path d="M275.253 411.997l-2.802 4.889-10.59-6.071 2.803-4.889z"/><path d="M261.271 409.537c0-1.29.94-2.815 1.996-3.403 1.057-.587 1.996-.118 1.996 1.173 0 1.292-.939 2.818-1.996 3.405-1.056.588-1.996.116-1.996-1.175z"/></g><path fill="#5793CE" d="M290.812 418.91l-4.554 7.942-16.598-9.515 4.555-7.944z"/><path fill="#396CAA" d="M273.48 410.946l-3.52-1.996c-1.528 1.06-2.584 3.053-2.819 4.931l3.521 1.995c1.525-1.057 2.701-3.052 2.818-4.93z"/><path fill="#5793CE" d="M268.784 415.29c0-2.113 1.408-4.577 3.17-5.636 1.76-1.056 3.286-.234 3.286 1.88 0 2.111-1.409 4.576-3.169 5.634-1.879.937-3.287.116-3.287-1.879z"/><path fill="#D4ECFF" d="M264.56 408.247c-.47-.352-.47-.823 0-1.057.468-.352 1.407-.352 1.877 0s.47.821 0 1.057c-.47.234-1.29.234-1.878 0z"/><path opacity=".3" fill="#D5E1F2" d="M365.621 522.808l-116.556-67.375c-3.288-1.88-2.934-5.282.94-7.396l79.346-45.776c3.756-2.23 9.625-2.466 12.913-.59l116.557 67.378c3.285 1.878 2.933 5.28-.939 7.395l-79.348 45.778c-3.875 2.229-9.626 2.464-12.913.586z"/><path fill="#6F86A6" d="M461.05 456.37l-15.965-2.111-102.823-59.393c-3.288-1.88-9.038-1.645-12.912.587l-72.89 42.02-9.626-1.29v5.517c-.118 1.29.704 2.464 2.231 3.404l116.556 67.374c3.287 1.879 9.037 1.645 12.913-.586l79.348-45.78c2.111-1.288 3.17-2.815 3.17-4.342v-5.4h-.002z"/><path fill="#C1CEDF" d="M383.697 418.928l-7.276-4.226h-80.406l-39.673 22.89-9.625-1.291v5.516c-.117 1.292.705 2.466 2.231 3.404l116.557 67.374c1.76 1.059 4.225 1.409 6.69 1.292l11.502-94.96z"/><path fill="#A4B6CE" d="M251.06 436.769l-4.225-.586v5.517c-.117 1.29.704 2.464 2.23 3.404l2.113 1.174v-9.51h-.118z"/><path fill="#95AAC6" d="M366.795 512.948c3.17 1.174 7.63.938 10.916-.704v-12.207h-10.916v12.91z"/><path fill="#EDF2F9" d="M365.621 506.96l-116.556-67.374c-3.288-1.878-2.934-5.281.94-7.394l79.346-45.777c3.756-2.231 9.625-2.467 12.912-.59l116.555 67.377c3.288 1.879 2.935 5.28-.937 7.394l-79.348 45.778c-3.874 2.232-9.625 2.465-12.912.587z"/><path fill="#FFF" d="M457.881 458.602l-79.348 45.779c-3.758 2.229-9.626 2.464-12.913.586l-116.555-67.375c-1.057-.587-1.762-1.41-1.996-2.23-.47 1.525.117 3.169 1.996 4.225l116.556 67.375c3.287 1.878 9.037 1.645 12.913-.587l79.348-45.778c2.58-1.524 3.521-3.52 2.933-5.163-.353 1.172-1.29 2.229-2.934 3.168z"/><g fill="#2378DF"><path d="M298.599 417.403l-5.282-3.051c-.47-.235-.352-.706.117-.941l6.22-3.637c.47-.236 1.174-.354 1.644-.12l5.283 3.054c.468.233.352.703-.118.938l-6.221 3.639c-.47.236-1.174.353-1.643.118zm8.216 4.695l-5.281-3.053c-.47-.234-.353-.703.117-.94l6.22-3.638c.47-.233 1.175-.351 1.645-.115l5.282 3.05c.469.236.353.704-.118.94l-6.221 3.639c-.47.233-1.292.35-1.644.117zm8.099 4.694l-5.282-3.053c-.47-.232-.352-.703.118-.938l6.22-3.64c.47-.233 1.174-.352 1.644-.117l5.282 3.053c.469.233.352.704-.118.938l-6.221 3.638c-.47.355-1.173.355-1.643.119zm11.268-3.873l-5.281-3.052c-.47-.235-.353-.705.117-.94l5.282-3.051c.469-.233 1.173-.352 1.643-.117l5.282 3.05c.469.236.352.705-.118.94l-5.282 3.053c-.468.234-1.173.35-1.643.117zm8.217 4.696l-5.281-3.052c-.47-.234-.353-.704.117-.938l5.282-3.053c.469-.235 1.173-.352 1.644-.118l5.28 3.053c.47.233.353.704-.116.938l-5.283 3.053c-.586.352-1.291.352-1.643.117zm8.099 4.694l-5.282-3.051c-.47-.235-.352-.705.119-.941l5.28-3.05c.47-.236 1.175-.354 1.644-.12l5.282 3.053c.469.235.352.704-.117.94l-5.282 3.05c-.47.353-1.175.353-1.644.119zm8.099 4.696l-5.281-3.054c-.47-.234-.352-.702.118-.938l5.282-3.052c.469-.234 1.174-.354 1.643-.117l5.282 3.052c.47.234.352.705-.117.938l-5.282 3.053c-.471.354-1.175.354-1.645.118zm8.217 4.694l-5.283-3.052c-.468-.235-.35-.703.119-.94l5.28-3.052c.47-.233 1.175-.352 1.646-.117l5.28 3.053c.47.234.353.703-.117.939l-5.282 3.052c-.47.353-1.292.353-1.643.117zm8.099 4.696l-5.282-3.052c-.47-.234-.352-.705.117-.94l5.283-3.05c.468-.234 1.173-.354 1.643-.118l5.28 3.05c.47.236.354.706-.115.94l-5.282 3.053c-.471.35-1.175.35-1.644.117zm8.216 4.695l-5.281-3.053c-.47-.233-.353-.704.116-.938l5.282-3.053c.47-.234 1.175-.352 1.644-.118l5.282 3.053c.47.234.352.703-.118.939l-5.281 3.052c-.47.353-1.292.353-1.644.118zm8.099 4.695l-5.281-3.052c-.47-.236-.352-.705.118-.94l5.282-3.051c.468-.236 1.17-.353 1.643-.12l5.28 3.053c.47.234.354.705-.117.94l-5.281 3.05c-.47.354-1.175.354-1.644.12zm8.099 4.695l-5.282-3.053c-.47-.232-.353-.703.117-.938l5.283-3.052c.468-.234 1.173-.353 1.643-.117l5.28 3.052c.472.234.354.705-.117.939l-5.28 3.052c-.47.353-1.174.353-1.644.117zm8.216 4.695l-5.28-3.052c-.472-.235-.354-.703.117-.94l5.28-3.052c.47-.233 1.175-.352 1.645-.116l5.28 3.052c.47.234.354.703-.115.938l-5.283 3.053c-.47.35-1.291.35-1.644.117zm-61.388-44.487l-5.282-3.05c-.47-.235-.352-.705.118-.94l5.282-3.052c.469-.235 1.173-.353 1.643-.117l5.282 3.052c.47.234.352.704-.117.938l-5.282 3.054c-.47.234-1.174.35-1.644.115zm-8.217-4.812l-5.281-3.052c-.47-.233-.352-.704.117-.938l5.282-3.053c.469-.234 1.174-.352 1.644-.118l5.282 3.053c.469.234.353.703-.117.939l-5.282 3.053c-.471.35-1.175.35-1.645.116zm-8.333-4.813l-11.386-6.572c-.468-.234-.352-.704.118-.94l5.282-3.051c.469-.236 1.174-.353 1.643-.118l11.385 6.573c.47.234.352.704-.117.939l-5.282 3.052c-.47.353-1.174.353-1.643.117zm5.868-5.751l-9.273-5.28c-.47-.234-.352-.705.118-.94l5.282-3.052c.469-.235 1.174-.353 1.644-.117l9.273 5.28c.469.235.353.706-.117.94l-5.281 3.052c-.472.352-1.294.352-1.646.117zm18.897 20.072l-5.281-3.053c-.47-.233-.352-.703.118-.937l5.282-3.054c.47-.235 1.173-.353 1.644-.117l5.28 3.05c.47.237.353.705-.116.94l-5.282 3.053c-.47.353-1.291.353-1.644.118zm8.1 4.695l-5.282-3.052c-.47-.235-.352-.705.117-.94l5.282-3.052c.47-.233 1.174-.352 1.644-.117l5.282 3.052c.469.234.352.704-.118.938l-5.282 3.053c-.468.353-1.173.353-1.643.118zm8.218 4.696l-5.282-3.052c-.47-.235-.353-.705.117-.94l5.282-3.051c.47-.235 1.174-.353 1.642-.12l5.283 3.054c.47.233.353.704-.117.939l-5.282 3.05c-.47.354-1.293.354-1.643.12zm8.099 4.695l-5.283-3.054c-.47-.233-.353-.703.117-.938l5.28-3.053c.473-.234 1.176-.351 1.646-.116l5.282 3.052c.469.234.35.705-.118.939l-5.282 3.053c-.47.35-1.174.35-1.642.117zm8.098 4.693l-5.28-3.05c-.472-.236-.354-.705.116-.941l5.282-3.052c.47-.233 1.173-.352 1.643-.117l5.282 3.053c.469.234.352.704-.118.938l-5.282 3.054c-.47.353-1.173.353-1.643.115zm8.218 4.697l-5.283-3.052c-.47-.234-.352-.704.117-.938l5.283-3.053c.468-.234 1.174-.353 1.643-.118l5.282 3.052c.469.237.352.704-.12.94l-5.28 3.052c-.47.35-1.292.35-1.642.117zm8.097 4.695l-5.281-3.053c-.47-.234-.354-.704.117-.938l5.28-3.051c.472-.235 1.176-.354 1.645-.118l5.283 3.05c.469.235.35.706-.12.939l-5.28 3.053c-.47.352-1.173.352-1.644.118zm8.217 4.695l-5.281-3.053c-.47-.234-.353-.704.117-.94l5.282-3.051c.47-.234 1.174-.351 1.643-.118l5.282 3.053c.47.233.353.704-.118.939l-5.28 3.05c-.471.355-1.293.355-1.645.12zm8.1 4.697l-5.281-3.055c-.472-.233-.354-.703.118-.938l5.279-3.053c.472-.235 1.175-.352 1.644-.116l5.283 3.052c.469.233.35.703-.118.938l-5.282 3.053c-.47.352-1.174.352-1.643.119zm14.437 8.449l-11.503-6.69c-.47-.234-.352-.704.116-.94l5.283-3.051c.469-.234 1.173-.352 1.644-.118l11.503 6.692c.468.233.35.703-.117.938l-5.282 3.053c-.471.234-1.175.35-1.644.116zm15.963-9.156l-9.742-5.634c-.47-.234-.352-.704.118-.94l5.282-3.05c.469-.235 1.173-.353 1.643-.12l9.742 5.636c.47.235.353.706-.118.939l-5.281 3.053c-.47.234-1.291.35-1.644.117zm-81.342-37.795l-5.283-3.05c-.47-.236-.352-.707.117-.941l5.283-3.053c.469-.233 1.174-.351 1.642-.116l5.283 3.052c.469.234.352.704-.118.938l-5.281 3.054c-.47.35-1.175.35-1.643.116zm-8.335-4.813l-5.281-3.052c-.471-.234-.353-.704.116-.938l5.282-3.053c.47-.235 1.172-.353 1.644-.12l5.28 3.055c.47.234.354.703-.117.938l-5.281 3.052c-.47.353-1.173.353-1.643.118zm-8.333-4.812l-5.282-3.052c-.47-.234-.352-.705.118-.94l5.282-3.051c.47-.234 1.174-.353 1.643-.117l5.282 3.052c.468.234.352.704-.118.939l-5.282 3.052c-.47.352-1.174.352-1.643.117zm-8.334-4.811l-5.282-3.053c-.47-.234-.353-.705.118-.94l5.28-3.051c.47-.235 1.175-.353 1.646-.118l5.28 3.052c.47.234.354.704-.117.939l-5.282 3.052c-.47.35-1.174.35-1.643.119zm33.217 19.131l-5.281-3.052c-.471-.234-.353-.704.118-.94l5.28-3.05c.47-.235 1.175-.354 1.644-.12l5.282 3.053c.47.236.352.705-.117.939l-5.282 3.053c-.47.352-1.29.352-1.644.117zm8.1 4.695l-5.282-3.052c-.471-.235-.351-.704.117-.938l5.283-3.054c.469-.233 1.174-.35 1.643-.117l5.282 3.053c.47.234.352.704-.118.939l-5.28 3.05c-.472.355-1.176.355-1.645.119zm8.217 4.695l-5.282-3.051c-.47-.234-.352-.704.117-.94l5.282-3.051c.469-.234 1.173-.353 1.644-.118l5.28 3.053c.47.233.353.705-.117.939l-5.281 3.05c-.47.352-1.291.352-1.643.119zm8.098 4.695l-5.281-3.053c-.471-.233-.353-.702.116-.938l5.282-3.052c.469-.235 1.174-.353 1.644-.117l5.282 3.053c.47.233.353.702-.117.938l-5.281 3.052c-.47.352-1.175.352-1.645.117zm8.1 4.695l-5.281-3.051c-.47-.236-.353-.706.118-.94l5.28-3.052c.47-.234 1.175-.352 1.644-.117l5.282 3.052c.469.234.352.703-.118.938l-5.282 3.054c-.47.352-1.174.352-1.643.117zm8.215 4.696l-5.281-3.052c-.47-.233-.352-.704.119-.94l5.28-3.05c.47-.235 1.175-.354 1.645-.12l5.282 3.053c.469.236.35.706-.117.939l-5.284 3.052c-.468.353-1.292.353-1.643.118zm8.099 4.694l-5.281-3.051c-.468-.235-.352-.704.119-.938l5.28-3.054c.47-.233 1.174-.35 1.644-.116l5.28 3.052c.47.234.354.704-.116.939l-5.281 3.053c-.471.35-1.174.468-1.645.116zm8.219 4.813l-5.283-3.053c-.47-.233-.352-.703.117-.94l5.282-3.05c.469-.235 1.173-.354 1.644-.118l5.282 3.053c.468.233.35.703-.12.939l-5.281 3.05c-.47.237-1.29.354-1.641.119zm8.097 4.696l-5.28-3.053c-.471-.233-.353-.704.116-.938l5.282-3.053c.47-.234 1.173-.353 1.645-.117l5.28 3.05c.47.237.353.706-.117.94l-5.281 3.052c-.471.236-1.174.353-1.645.119zm-77.587-53.995l-5.282-3.051c-.47-.236-.351-.706.118-.94l5.28-3.051c.47-.235 1.175-.354 1.645-.12l5.28 3.053c.47.234.354.705-.115.939l-5.283 3.053c-.468.35-1.29.35-1.643.117zm-8.098-4.694l-5.282-3.052c-.47-.235-.353-.705.118-.94l5.28-3.052c.47-.234 1.175-.352 1.644-.118l5.282 3.053c.47.235.352.704-.118.939l-5.281 3.052c-.47.353-1.292.353-1.643.118zm-8.1-4.696l-5.281-3.052c-.47-.234-.353-.705.117-.94l5.282-3.05c.469-.234 1.173-.354 1.644-.118l5.28 3.052c.47.233.354.705-.117.938l-5.282 3.053c-.47.352-1.29.352-1.642.117zm-8.1-4.695l-5.281-3.052c-.47-.233-.352-.702.118-.938l5.282-3.053c.469-.234 1.174-.353 1.644-.118l5.282 3.053c.469.234.352.702-.118.938l-5.282 3.053c-.47.352-1.291.352-1.644.117zm8.335-4.812l-5.281-3.052c-.47-.234-.353-.705.117-.94l1.76-1.056c.469-.234 1.173-.352 1.644-.117l5.282 3.052c.47.235.352.704-.118.939l-1.761.938c-.47.47-1.291.47-1.643.236zm10.565 6.103l-5.282-3.052c-.47-.233-.352-.703.118-.94l1.76-.937c.47-.234 1.174-.352 1.644-.117l5.28 3.052c.47.234.353.703-.116.939l-1.761 1.057c-.47.232-1.292.232-1.643-.001zm8.098 4.695l-5.282-3.053c-.47-.233-.352-.703.118-.938l1.76-.94c.47-.234 1.175-.353 1.644-.118l5.282 3.053c.469.236.353.705-.116.939l-1.763 1.057c-.586.235-1.29.235-1.643 0zm7.982 4.695l-5.281-3.051c-.471-.235-.353-.704.118-.941l1.76-1.055c.47-.234 1.174-.353 1.644-.117l5.28 3.05c.47.236.353.706-.116.94l-1.761.939c-.47.352-1.175.47-1.644.235zm8.099 4.579l-5.281-3.053c-.47-.234-.353-.705.116-.938l1.76-1.058c.472-.234 1.176-.352 1.646-.117l5.28 3.053c.472.234.354.704-.115.938l-1.762 1.057c-.47.353-1.175.353-1.644.118zm45.073 26.058l-5.281-3.052c-.47-.236-.354-.704.116-.94l1.76-1.056c.47-.234 1.176-.353 1.645-.117l5.282 3.053c.47.233.353.703-.117.938l-1.762.94c-.47.467-1.173.467-1.643.234zm8.1 4.693l-5.282-3.051c-.47-.234-.352-.704.117-.94l1.762-.937c.469-.235 1.174-.352 1.644-.118l5.28 3.052c.47.235.353.705-.116.94l-1.761 1.055c-.471.237-1.292.237-1.644 0zm8.098 4.58l-5.281-3.053c-.47-.236-.352-.704.118-.94l1.76-1.055c.472-.234 1.175-.353 1.644-.12l5.283 3.055c.469.234.35.704-.12.938l-1.76.939c-.47.47-1.292.587-1.643.236zm7.983 4.694l-5.282-3.051c-.47-.234-.352-.705.117-.94l1.76-1.056c.47-.233 1.176-.35 1.644-.117l5.283 3.052c.47.234.352.704-.117.94l-1.762 1.056c-.47.35-1.174.35-1.643.116zm-79.937-36.504l-5.28-3.053c-.47-.233-.352-.703.118-.938l5.28-3.054c.472-.234 1.176-.351 1.645-.117l5.28 3.052c.47.235.354.705-.115.94l-5.283 3.052c-.47.353-1.173.353-1.645.119zm8.218 4.694l-5.282-3.053c-.47-.233-.351-.702.117-.938l5.282-3.053c.47-.234 1.174-.353 1.644-.117l5.282 3.052c.469.235.352.703-.117.939l-5.282 3.053c-.47.352-1.292.352-1.644.117zm8.1 4.694l-5.282-3.052c-.47-.232-.352-.704.119-.938l5.28-3.051c.47-.235 1.174-.354 1.644-.118l5.282 3.052c.468.234.35.705-.12.938l-5.28 3.052c-.47.354-1.174.354-1.643.117zm8.099 4.697l-5.282-3.052c-.47-.234-.353-.703.117-.94l5.283-3.051c.469-.233 1.172-.352 1.643-.118l5.28 3.053c.472.235.353.703-.116.939l-5.281 3.052c-.471.352-1.175.352-1.644.117zm8.216 4.695l-5.282-3.051c-.47-.236-.352-.706.117-.94l5.283-3.051c.469-.235 1.172-.354 1.643-.118l5.28 3.05c.47.235.354.706-.117.94l-5.281 3.053c-.47.35-1.291.35-1.643.118zm8.099 4.695l-5.282-3.051c-.47-.235-.353-.704.118-.94l5.28-3.053c.47-.234 1.176-.35 1.645-.117l5.282 3.053c.47.233.352.704-.117.939l-5.282 3.05c-.468.355-1.174.355-1.644.119zm8.217 4.695l-5.281-3.053c-.47-.233-.353-.702.117-.938l5.282-3.052c.47-.235 1.173-.353 1.643-.117l5.28 3.052c.47.235.355.703-.116.939l-5.282 3.053c-.47.35-1.292.35-1.643.117zm8.099 4.694l-5.283-3.052c-.47-.232-.352-.703.118-.938l5.28-3.052c.472-.235 1.176-.353 1.644-.118l5.283 3.052c.469.234.35.705-.117.939l-5.284 3.05c-.467.354-1.172.354-1.641.119zm8.216 4.696l-5.282-3.052c-.47-.235-.351-.703.117-.94l5.283-3.051c.47-.233 1.173-.353 1.642-.117l5.282 3.052c.47.234.353.703-.117.938l-5.281 3.053c-.587.353-1.291.47-1.644.118zm-111.862-36.974l-15.493-8.921c-.47-.233-.352-.702.117-.938l5.282-3.053c.469-.234 1.174-.352 1.644-.116l15.494 8.92c.47.234.353.704-.117.939l-5.282 3.052c-.47.353-1.175.353-1.645.117zm100.125 57.751l-15.494-8.921c-.47-.235-.354-.705.118-.94l5.28-3.05c.47-.237 1.175-.353 1.644-.118l15.494 8.92c.47.233.353.703-.117.939l-5.282 3.052c-.47.352-1.174.352-1.643.118zm-32.514-8.451l-5.283-3.052c-.47-.234-.352-.705.117-.94l6.223-3.637c.469-.235 1.172-.354 1.642-.118l5.282 3.053c.469.235.352.703-.118.938l-6.22 3.64c-.586.35-1.291.35-1.643.116zm-59.277-34.157l-8.45-4.931c-.47-.235-.352-.704.117-.938l6.22-3.641c.47-.232 1.175-.35 1.645-.115l8.45 4.812c.47.235.353.704-.116.939l-6.222 3.638c-.47.472-1.174.472-1.644.236zm51.412 29.698l-8.45-4.932c-.471-.234-.354-.704.118-.938l6.219-3.641c.47-.233 1.175-.353 1.645-.116l8.45 4.93c.47.233.353.704-.116.938l-6.222 3.64c-.47.352-1.292.352-1.644.119zm-39.556-22.89l-8.451-4.93c-.47-.235-.352-.705.117-.94l6.22-3.64c.47-.232 1.175-.35 1.645-.115l8.45 4.812c.47.234.353.704-.117.939l-6.221 3.639c-.47.468-1.291.468-1.643.235z"/><path d="M337.569 430.666l36.739 21.127c.469.235.469.704 0 .94l-6.34 3.638c-.47.234-1.173.234-1.642 0l-36.74-21.128 7.983-4.577zm70.661 45.307l5.87 3.405c.352.233.352.587-.118.82l-2.583 1.526c-.353.234-1.057.234-1.408 0l-5.87-3.405c-.352-.233-.352-.586.117-.82l2.584-1.526c.35-.116 1.056-.234 1.408 0zm-8.216-4.694l5.868 3.404c.354.234.354.586-.118.82l-2.581 1.526c-.353.235-1.058.235-1.41 0l-5.868-3.403c-.352-.234-.352-.587.118-.822l2.583-1.525c.35-.235 1.055-.235 1.408 0zm-8.217-4.695l5.869 3.403c.352.234.352.588-.118.822l-2.582 1.525c-.353.234-1.058.234-1.41 0l-5.868-3.404c-.353-.233-.353-.587.118-.822l2.58-1.524c.473-.234 1.06-.234 1.41 0zm12.677 2.114l5.868 3.403c.354.234.354.587-.117.822l-2.582 1.525c-.352.234-1.057.234-1.41 0l-5.868-3.404c-.352-.234-.352-.587.119-.822l2.58-1.524c.47-.236 1.057-.236 1.41 0z"/></g><path fill="#D2DCEA" d="M335.337 481.608a5.432 5.432 0 01-2.465-.587l-40.73-23.476c-.704-.468-1.173-1.057-1.173-1.76 0-.822.587-1.644 1.526-2.113l26.997-15.612c1.643-.94 4.108-1.055 5.516-.233l40.73 23.476c.705.469 1.175 1.056 1.175 1.76 0 .82-.587 1.645-1.527 2.113l-26.996 15.612c-.823.585-1.996.82-3.053.82zm-12.793-43.077c-.823 0-1.76.233-2.466.588l-26.997 15.61c-.587.353-.939.704-.939 1.057 0 .352.352.586.587.703l40.73 23.476c1.057.588 3.052.47 4.226-.235l26.998-15.61c.587-.353.938-.704.938-1.057 0-.351-.352-.587-.587-.704l-40.73-23.476c-.352-.235-1.057-.352-1.76-.352z"/><path d="M325.947 456.019l3.99-2.23c.353-.233 1.057-.233 1.41.119.468.234.468.586.117.82l-3.99 2.232c-.352.234-1.057.234-1.409-.12-.47-.234-.47-.587-.118-.821zm-8.451 4.697l5.87-3.29c.352-.231 1.056-.231 1.408.119.47.235.47.587.117.822l-5.869 3.287c-.352.233-1.057.233-1.408-.117-.47-.235-.588-.587-.118-.821zm21.597 2.58l7.63-4.225c.351-.233 1.055-.233 1.408.118.47.233.47.587.117.82l-7.629 4.227c-.353.234-1.057.234-1.409-.117-.352-.236-.468-.586-.117-.823zm-1.291-6.572l2.465-1.41c.353-.232 1.057-.232 1.41.119.47.233.47.586.116.82l-2.464 1.41c-.352.234-1.057.234-1.409-.118-.47-.234-.586-.585-.118-.821zm-5.634-4.227l1.644-.938c.352-.233 1.056-.233 1.41.117.467.234.467.588.116.82l-1.644.94c-.352.235-1.056.235-1.408-.116-.47-.236-.47-.585-.118-.823zm-6.926-3.52l1.996-1.056c.352-.234 1.056-.234 1.408.117.47.235.47.589.117.822l-1.996 1.057c-.352.233-1.056.233-1.408-.12-.469-.233-.469-.585-.117-.82zm-7.746 4.343l5.282-2.936c.352-.233 1.056-.233 1.41.118.468.235.468.588.116.823l-5.28 2.934c-.353.233-1.058.233-1.409-.117-.47-.234-.47-.587-.119-.821zm2.7-5.164l3.756-2.114c.353-.232 1.056-.232 1.41.119.468.234.468.588.116.82l-3.757 2.112c-.352.237-1.056.237-1.408-.116-.469-.234-.469-.587-.117-.821zm8.334 13.732l6.69-3.756c.352-.233 1.056-.233 1.408.118.47.234.47.588.118.82l-6.69 3.758c-.353.233-1.057.233-1.409-.117-.469-.236-.587-.588-.118-.823zm3.404 1.878l11.62-6.455c.353-.233 1.056-.233 1.41.116.47.235.47.588.116.82l-11.62 6.459c-.353.233-1.058.233-1.409-.12-.47-.35-.587-.703-.117-.82zm-1.644-6.571l6.691-3.758c.352-.234 1.056-.234 1.408.118.468.234.468.587.117.82l-6.69 3.757c-.353.235-1.058.235-1.409-.117-.352-.234-.47-.588-.117-.82zm-6.925 7.629l2.464-1.41c.352-.233 1.057-.233 1.41.119.468.233.468.587.116.82l-2.465 1.409c-.352.235-1.057.235-1.408-.117-.352-.353-.47-.704-.117-.821zm-.821-10.565l7.981-4.461c.352-.233 1.056-.233 1.41.119.468.233.468.585.116.82l-7.98 4.46c-.353.235-1.058.235-1.409-.116-.47-.235-.589-.587-.118-.822z" fill="#FFF"/><path fill="#BBCDE5" d="M269.303 368.728l-2.47-1.235-4.803-2.059.412.823c-3.569-.685-7.549-.823-11.118-.136l.275-.963-5.626 2.472c-.686.274-1.373.686-2.059.96-7 4.117-7 10.568 0 14.686 6.999 4.117 18.391 4.117 25.389 0 7-3.979 7-10.568 0-14.548z"/><path fill="#90A9CB" d="M262.579 372.57c-3.293 1.923-8.646 1.923-11.94 0-3.293-1.92-3.293-4.939 0-6.862 3.293-1.92 8.646-1.92 11.94 0 3.293 1.785 3.293 4.942 0 6.862z"/><path fill="#DAE4F2" d="M256.54 370.374c-1.646 0-2.882-1.234-2.882-2.88v-36.23h5.765v36.23c0 1.646-1.237 2.88-2.883 2.88z"/><path fill="#90A9CB" d="M258.598 332.634c-1.098.686-3.019.686-4.118 0-1.097-.686-1.097-1.784 0-2.333 1.098-.687 3.02-.687 4.118 0 1.098.548 1.098 1.647 0 2.333z"/><path fill="#DAE4F2" d="M256.54 332.497c-1.235 0-2.333-1.099-2.333-2.334v-34.036h4.667v34.036c-.001 1.373-.961 2.334-2.334 2.334z"/><path fill="#396CAA" d="M290.027 313.97v-1.373l1.92-.275 2.06-1.51c.275-.275.96-.275 1.373 0l1.509.96 1.51-.273v1.372c0 .137-.137.274-.411.411l-4.941 2.196c-.412.137-.961.137-1.236 0l-1.646-.96c-.138-.137-.138-.412-.138-.549z"/><path fill="#5793CE" d="M290.165 312.322l3.842-2.88c.275-.276.96-.276 1.373 0l2.882 1.645c.41.275.41.548-.137.822l-4.941 2.196c-.411.138-.96.138-1.235 0l-1.646-.96c-.413-.274-.413-.548-.138-.823z"/><path fill="#DAE4F2" d="M283.852 318.771c.549 0 1.098-.137 1.509-.41l5.9-3.432c.275-.137.412-.549.275-.96-.136-.274-.55-.412-.96-.274l-5.901 3.432c-.411.273-1.235.273-1.647 0l-9.744-5.628a.724.724 0 00-.96.273c-.138.275-.138.686.273.961l9.745 5.628c.41.274.96.41 1.51.41z"/><g transform="translate(123.742 234.272)"><radialGradient id="a" cx="-145.667" cy="16.695" r="4.911" gradientTransform="translate(1772.252 -133.422) scale(11.8856)" gradientUnits="userSpaceOnUse"><stop offset="0" stop-color="#01c8ef"/><stop offset=".089" stop-color="#03bee9"/><stop offset=".239" stop-color="#08a5d7"/><stop offset=".429" stop-color="#107bbb"/><stop offset=".446" stop-color="#1177b8"/><stop offset="1" stop-color="#112564"/></radialGradient><path fill="url(#a)" d="M103.429 72.012l9.47-5.49-5.353-2.334-4.529 3.157z"/><path fill="#5BA1F5" d="M164.09 63.914c-.549-.275-1.098-.55-1.647-.961l-20.038-14.822c-3.705-2.608-7.411-3.294-10.293-1.922-.136 0-.136.137-.274.137l-27.859 16.195 2.47.823 9.745 4.392 13.313 9.47 10.429 5.49.413.137c2.47-2.059 5.215-3.843 6.724-6.862 2.608-4.529 9.744-5.765 13.999-9.47.412.275.823.549 1.235.686 1.096-.822 1.371-2.057 1.783-3.293z"/><path fill="#2378DF" d="M173.01 57.189c-.412 0-.824.138-1.098.412l-27.174 15.783.961 4.117.96-.548c-1.51 2.47-3.981 3.979-6.176 5.9l3.019.687 26.625-15.508c.137 0 .274-.137.412-.137.41-.138.686-.412.96-.687 2.059-1.509 3.157-4.254 3.157-7.686v-.411c.139-1.098-.686-1.922-1.646-1.922z"/><path fill="#EAEAEA" d="M135.68 45.523c1.647 0 3.568.686 5.353 1.785-1.784-1.235-3.568-1.785-5.352-1.785z"/><path fill="#5793CE" d="M148.169 74.618v-.274c0-1.098-.823-1.921-1.921-1.921s-1.921.824-1.921 1.921v.274c0 2.471-.823 4.392-2.196 5.078-1.51.824-3.98.275-6.312-1.51l-20.175-14.822c-3.157-2.333-6.313-3.157-8.921-2.333l16.606-9.607-19.213 11.117 2.47.823 9.744 4.392 13.313 9.471 10.43 5.489.412.137c2.47-2.059 5.214-3.843 6.724-6.861.275-.413.55-.824.96-1.374-.136.138 0 0 0 0z"/><path fill="#DAE4F2" d="M140.072 84.363c-2.196 0-4.666-.96-6.999-2.607l-20.174-14.822c-2.47-1.784-4.804-2.333-6.313-1.51-1.372.686-2.195 2.608-2.195 5.078 0 1.098-.824 1.921-1.921 1.921-1.098 0-1.921-.823-1.921-1.921 0-3.979 1.509-6.999 4.253-8.372 2.883-1.509 6.588-.823 10.293 1.922l20.175 14.822c2.47 1.784 4.803 2.333 6.313 1.509 1.373-.686 2.196-2.608 2.196-5.078v-.275c0-1.097.824-1.921 1.921-1.921s1.921.824 1.921 1.921v.274c0 3.98-1.509 7-4.255 8.373-1.098.412-2.196.686-3.294.686z"/></g><g transform="translate(119.571 103.823)"><path fill="#F67A3C" d="M128.322 247.887s-3.843-1.92-6.175.961c-2.333 2.882-5.627 9.606-5.765 14.136-.137 4.529 3.568 4.254 5.765 3.158 2.196-1.099 8.646-10.432 9.058-12.216.411-1.784-.412-4.254-1.098-4.804-.549-.549-1.785-1.235-1.785-1.235z"/><path fill="#8FCF92" d="M129.146 246.926l.137 3.979c0 .824-.411 1.648-1.098 2.06-.687.413-1.647.687-2.882.413-2.882-.413-3.156-1.236-3.293-5.217-.137-3.979 7.136-1.235 7.136-1.235z"/><path fill="#F67A3C" d="M114.461 240.337s-3.843-1.92-6.175.962c-2.333 2.882-5.627 9.605-5.764 14.137-.137 4.528 3.567 4.254 5.764 3.156 2.195-1.098 8.646-10.432 9.057-12.216.412-1.784-.411-4.253-1.098-4.803-.548-.548-1.784-1.236-1.784-1.236z"/><path fill="#8FCF92" d="M115.284 239.376l.137 3.981c0 .823-.411 1.647-1.098 2.06-.686.411-1.646.686-2.882.411-2.882-.412-3.157-1.236-3.294-5.217-.274-3.98 7.137-1.235 7.137-1.235z"/><path fill="#FF9C71" d="M149.183 167.188c-1.098-18.253-19.763 2.744-19.763 2.744l-12.763 12.49-11.528 12.626c-2.196 2.47-3.295 5.764-2.882 9.058l4.666 35.41c.275 1.783 1.785 3.018 3.431 3.018.549 0 1.098 0 1.784-.138 4.118-.686 3.843-4.528 3.843-4.528l-.823-33.075 24.154-14.547c0-.139 10.979-4.804 9.881-23.058z"/><path fill="#FF9C71" d="M163.044 174.188c-1.097-18.253-19.763 2.744-19.763 2.744l-12.763 12.49-11.529 12.626c-2.195 2.47-3.293 5.764-2.882 9.058l4.667 35.409c.273 1.783 1.784 3.021 3.43 3.021.549 0 1.098 0 1.784-.139 4.117-.688 3.843-4.529 3.843-4.529l-.824-33.075 24.155-14.547c.001-.139 10.981-4.804 9.882-23.058z"/><path fill="#7FBBFF" d="M152.066 115.448c14.136 5.901 13.862 14.274 13.862 14.274s-2.746 30.604-1.784 51.191c.411 8.509-45.427 9.195-38.703-13.587 8.098-26.899 5.079-48.72 8.784-52.014 3.841-3.431 14.135-1.373 17.841.136z"/><path fill="#FFC2B0" d="M156.594 122.86c-.686 2.882-4.529 4.392-8.372 3.431-3.843-.961-6.45-4.118-5.765-7 .686-2.883 4.529-4.392 8.372-3.431 3.843 1.098 6.451 4.255 5.765 7z"/><path fill="#FFF" d="M150.556 127.252c-.824 0-1.784-.137-2.608-.275-4.254-1.098-7-4.666-6.175-7.822.411-1.647 1.646-2.882 3.431-3.568 1.784-.687 3.843-.824 5.764-.275 2.06.549 3.843 1.647 4.941 3.02 1.234 1.509 1.646 3.157 1.234 4.803-.411 1.647-1.647 2.882-3.431 3.568-.96.411-2.058.549-3.156.549zm-2.196-10.979c-.96 0-1.921.136-2.744.547-1.373.549-2.334 1.511-2.608 2.745-.687 2.47 1.647 5.353 5.215 6.176 1.784.412 3.568.412 4.941-.274 1.373-.549 2.333-1.509 2.608-2.745.275-1.234 0-2.47-.96-3.567-.961-1.236-2.471-2.196-4.254-2.608-.688-.137-1.375-.274-2.198-.274z"/><path fill="#FFC2B0" d="M146.301 114.9s.138.548-.136 5.078c-.137 1.372 4.803 2.744 6.175 1.51 1.236-1.236.824-2.608 1.099-7.411.274-4.942-7.138.823-7.138.823z"/><path fill="#EA9C92" d="M153.438 113.939s-1.235 4.392-7.274 6.176l.137-3.98 7.137-2.196z"/><circle fill="#FFC2B0" cx="146.729" cy="105.372" r="10.842"/><path fill="#EA9C92" d="M149.183 105.841s-6.039 2.608-10.156 2.608-3.294-3.431-3.294-3.431l12.352-1.784 1.098 2.607z"/><path fill="#2378DF" d="M137.792 106.528s5.216-2.195 9.745-1.236c1.098.274 2.058.824 2.745 1.647.274.274.548.548.823.548.824.137 2.196-3.156 3.706-3.292 1.646-.138 2.607 1.097 1.372 3.156s-.823 4.392-.275 4.666c.55.275 6.863-4.529 1.373-15.508-5.625-10.979-19.762-5.078-21.958-2.882 0 0-2.333 2.059-4.254.274.136-.136-2.061 15.783 6.723 12.627z"/><path fill="#FFC2B0" d="M157.966 152.092v8.234c0 .961-.411 1.921-1.098 2.47l-17.017 15.508 1.921 3.019 22.507-16.332c1.098-.823 1.783-1.921 1.921-3.157l1.51-14.41-9.744 4.668z"/><path fill="#7FBBFF" d="M164.692 125.604s5.215 7.823 7.136 28.272c0 0-8.783 2.882-13.862 1.234-5.077-1.645 6.726-29.506 6.726-29.506z"/><path fill="#396CAA" d="M157.005 135.349s-2.059 10.842-2.195 15.92c0 1.372.823 2.607 2.195 3.157v-19.077z"/></g><path fill="#00377A" d="M272.184 293.108l-3.705-.55-24.292-13.998c-.824-.411-2.196-.411-3.019.137l-17.156 9.883-2.333-.275v2.333c0 .273.138.548.55.823l27.584 15.92c.823.41 2.196.41 3.02-.137l18.802-10.841c.548-.274.823-.687.687-.961v-2.334h-.138z"/><path fill="#4386D7" d="M253.932 284.188l-1.784-.96h-18.94l-9.332 5.353-2.333-.275v2.333c0 .273.137.548.55.823l27.583 15.92c.413.274.961.274 1.51.274l2.746-23.468z"/><path fill="#5793CE" d="M222.641 288.443l-.96-.137v2.333c0 .273.137.548.548.823l.548.275v-3.294h-.136z"/><path fill="#1856A1" d="M249.952 307.382c.687.274 1.784.274 2.607-.137v-3.842h-2.607v3.979z"/><path fill="#FFF" d="M249.677 304.91l-27.584-15.918c-.824-.411-.688-1.236.274-1.785l18.802-10.842c.96-.55 2.195-.55 3.02-.137l27.585 15.92c.823.41.686 1.235-.274 1.784l-18.803 10.843c-.96.549-2.333.685-3.02.136z"/><path fill="#C3CFE0" d="M249.13 302.578l-22.92-13.175c-.686-.411-.549-.96.136-1.51l10.02-5.626c.686-.412 1.921-.412 2.47-.137l22.92 13.175c.685.412.55.96-.138 1.509l-10.018 5.628c-.687.41-1.785.548-2.47.136z"/><path fill="#FFC2B0" d="M242.129 275.953l-.274 1.921c-.275 1.646-.137 3.293.137 4.803l.274 1.646c.137.96.96 1.647 1.92 1.785.688.137 1.373-.412 1.51-1.098l.412-4.117s1.098 1.373 1.509 1.373c.549 0-.548-4.116-1.646-6.313-1.097-2.197-3.842 0-3.842 0z"/><path fill="#FFC2B0" d="M251.463 245.76l-3.02 5.9a12.345 12.345 0 00-1.233 4.392l-1.236 20.038-3.842-.137-1.785-22.507c0-.686 0-1.373.137-2.059l2.058-11.392 8.92 5.764z"/><path fill="#00377A" d="M248.717 306.559l-2.333-3.02-24.291-14c-.823-.411-1.372-1.646-1.372-2.744v-19.9l-1.373-1.784 1.373-.824c.274-.137.548-.137.96 0l27.449 15.92c.823.41 1.372 1.646 1.372 2.745v21.684c0 .549-.136.96-.548 1.099l-1.237.824z"/><path fill="#4386D7" d="M231.974 295.167l-1.784-.961-9.47-16.468v-10.843l-1.372-1.784 1.373-.824c.274-.137.548-.137.96 0l27.449 15.92a3.24 3.24 0 011.097 1.234l-18.253 13.726z"/><path fill="#386FB2" d="M219.896 265.797l-.685-.823 1.372-.824c.274-.137.548-.137.96 0l.55.275-2.197 1.372z"/><path fill="#1856A1" d="M249.404 280.482c.548.549 1.098 1.509 1.098 2.333l-2.745 1.51-1.236-2.196 2.883-1.647z"/><path fill="#3C8EF0" d="M247.757 281.03l-27.448-15.92c-.824-.411-1.373 0-1.373 1.098v21.685c0 1.098.686 2.195 1.372 2.744l27.448 15.92c.823.412 1.373 0 1.373-1.098v-21.684c.137-1.097-.55-2.333-1.372-2.744z"/><path fill="#FFC2B0" d="M261.344 285.285l-.413.96c-.55 1.098-1.373 1.921-2.333 2.607l-2.744 1.647a2.492 2.492 0 01-2.744 0h-.137c-.824-.549-.961-1.784-.275-2.47l2.882-2.883s-1.647 1.236-2.058.686c-.275-.41 1.509-2.196 3.019-2.196 1.509 0 2.882-1.235 2.882-1.235l1.92 2.884z"/><path fill="#7FBBFF" d="M254.07 218.997s-10.431 11.391-14.686 21.821c0 0 3.568 6.451 12.353 8.921 8.783 2.608 2.333-30.742 2.333-30.742z"/><path fill="#396CAA" d="M249.815 249.19l1.646-16.33-3.98 15.371c.687.274 1.51.548 2.334.96z"/><path fill="#FFF" d="M261.892 216.664l-2.744-.824s1.372 2.06 3.294 2.608c1.92.548 2.332-1.099 2.332-1.099l-2.882-.685z"/><path fill="#5793CE" d="M441.33 407.425c-.94 0-1.761-.234-2.582-.703l-35.918-20.776c-1.174-.704-1.76-1.761-1.76-3.052s.586-2.465 1.76-3.17l9.978-5.986c.352-.233.704-.117.938.234.235.352.117.705-.233.941l-9.978 5.984c-.704.471-1.057 1.176-1.057 1.996s.47 1.525 1.175 1.879l35.917 20.776a3.822 3.822 0 003.874 0l12.325-7.513c.35-.234.704-.118.938.234s.116.703-.234.939l-12.325 7.512c-.94.47-1.878.705-2.818.705z"/><path fill="#F67A3C" d="M352.504 239.88l-30.368-17.526c-.604-.302-1.209-.302-1.51-.15l-2.872 1.661s1.36.454 2.115.756v22.058c0 1.813 1.057 3.928 2.417 4.683l29.007 16.77v2.568l3.022-1.663c.452-.302.755-.906.755-1.963v-22.51c.002-1.814-1.207-3.929-2.566-4.685z"/><path fill="#FF9C71" d="M349.633 270.7l-30.367-17.525c-1.36-.756-2.417-2.87-2.417-4.684v-22.51c0-1.814 1.057-2.568 2.417-1.814l30.367 17.526c1.36.755 2.417 2.87 2.417 4.684v22.51c0 1.813-1.057 2.57-2.417 1.813z"/><path d="M329.388 245.47c0 1.36-.906 1.813-2.115 1.209-1.057-.604-2.116-2.267-2.116-3.475 0-1.361.907-1.814 2.116-1.21 1.209.455 2.115 2.116 2.115 3.477zm6.195 3.475c0 1.359-.906 1.813-2.115 1.208-1.057-.604-2.114-2.266-2.114-3.475 0-1.36.906-1.813 2.114-1.208 1.209.605 2.115 2.267 2.115 3.475zm6.194 3.625c0 1.36-.906 1.814-2.114 1.209-1.06-.604-2.116-2.266-2.116-3.475 0-1.36.907-1.813 2.116-1.208 1.208.605 2.114 2.115 2.114 3.475z" fill="#FFF"/><path fill="#2378DF" d="M335.281 211.477l-30.367-17.525c-.604-.302-1.209-.302-1.512-.15l-2.87 1.662s1.36.453 2.115.755v22.059c0 1.813 1.058 3.927 2.417 4.683l29.007 16.77v2.569l3.022-1.663c.453-.302.755-.906.755-1.963v-22.511c-.15-1.816-1.207-3.78-2.567-4.686z"/><path fill="#B0D4FF" d="M332.26 242.298l-30.368-17.526c-1.36-.756-2.417-2.871-2.417-4.683v-22.511c0-1.813 1.058-2.568 2.417-1.813l30.368 17.526c1.359.755 2.417 2.87 2.417 4.684v22.51c.15 1.813-1.058 2.568-2.417 1.813z"/><path d="M312.166 217.067c0 1.36-.906 1.813-2.115 1.208-1.058-.604-2.115-2.266-2.115-3.475 0-1.36.906-1.813 2.115-1.208s2.115 2.115 2.115 3.475zm6.194 3.626c0 1.36-.906 1.813-2.115 1.208-1.058-.604-2.115-2.265-2.115-3.475 0-1.36.906-1.813 2.115-1.208 1.208.454 2.115 2.116 2.115 3.475zm6.194 3.475c0 1.359-.906 1.813-2.115 1.208-1.058-.604-2.115-2.267-2.115-3.475 0-1.36.906-1.812 2.115-1.208 1.209.604 2.115 2.266 2.115 3.475z" fill="#FFF"/></svg>