<svg xmlns="http://www.w3.org/2000/svg" width="505" height="422" viewBox="111.75 97 505 422" enable-background="new 111.75 97 505 422"><filter height="415.6%" width="510%" x="-198.3%" y="-155.9%" id="h" filterUnits="objectBoundingBox"><feOffset in="SourceAlpha" result="shadowOffsetOuter1"/><feGaussianBlur stdDeviation="2.5" in="shadowOffsetOuter1" result="shadowBlurOuter1"/><feColorMatrix values="0 0 0 0 0 0 0 0 0 1 0 0 0 0 0.918817935 0 0 0 1 0" in="shadowBlurOuter1" result="shadowMatrixOuter1"/><feMerge><feMergeNode in="shadowMatrixOuter1"/><feMergeNode in="SourceGraphic"/></feMerge></filter><filter height="435.7%" width="510%" x="-198.3%" y="-167.8%" id="g" filterUnits="objectBoundingBox"><feOffset in="SourceAlpha" result="shadowOffsetOuter1"/><feGaussianBlur stdDeviation="2.5" in="shadowOffsetOuter1" result="shadowBlurOuter1"/><feColorMatrix values="0 0 0 0 0 0 0 0 0 1 0 0 0 0 0.918817935 0 0 0 1 0" in="shadowBlurOuter1" result="shadowMatrixOuter1"/><feMerge><feMergeNode in="shadowMatrixOuter1"/><feMergeNode in="SourceGraphic"/></feMerge></filter><filter height="435.7%" width="510%" x="-198.3%" y="-167.8%" id="e" filterUnits="objectBoundingBox"><feOffset in="SourceAlpha" result="shadowOffsetOuter1"/><feGaussianBlur stdDeviation="2.5" in="shadowOffsetOuter1" result="shadowBlurOuter1"/><feColorMatrix values="0 0 0 0 0 0 0 0 0 1 0 0 0 0 0.918817935 0 0 0 1 0" in="shadowBlurOuter1" result="shadowMatrixOuter1"/><feMerge><feMergeNode in="shadowMatrixOuter1"/><feMergeNode in="SourceGraphic"/></feMerge></filter><filter height="415.6%" width="510%" x="-198.3%" y="-155.9%" id="c" filterUnits="objectBoundingBox"><feOffset in="SourceAlpha" result="shadowOffsetOuter1"/><feGaussianBlur stdDeviation="2.5" in="shadowOffsetOuter1" result="shadowBlurOuter1"/><feColorMatrix values="0 0 0 0 0 0 0 0 0 1 0 0 0 0 0.918817935 0 0 0 1 0" in="shadowBlurOuter1" result="shadowMatrixOuter1"/><feMerge><feMergeNode in="shadowMatrixOuter1"/><feMergeNode in="SourceGraphic"/></feMerge></filter><filter height="302.3%" width="346.3%" x="-121.2%" y="-99.2%" id="bj" filterUnits="objectBoundingBox"><feOffset in="SourceAlpha" result="shadowOffsetOuter1"/><feGaussianBlur stdDeviation="2.5" in="shadowOffsetOuter1" result="shadowBlurOuter1"/><feColorMatrix values="0 0 0 0 0 0 0 0 0 1 0 0 0 0 0.918817935 0 0 0 1 0" in="shadowBlurOuter1" result="shadowMatrixOuter1"/><feMerge><feMergeNode in="shadowMatrixOuter1"/><feMergeNode in="SourceGraphic"/></feMerge></filter><filter height="302.3%" width="346.3%" x="-121.2%" y="-99.2%" id="bf" filterUnits="objectBoundingBox"><feOffset in="SourceAlpha" result="shadowOffsetOuter1"/><feGaussianBlur stdDeviation="2.5" in="shadowOffsetOuter1" result="shadowBlurOuter1"/><feColorMatrix values="0 0 0 0 0 0 0 0 0 1 0 0 0 0 0.918817935 0 0 0 1 0" in="shadowBlurOuter1" result="shadowMatrixOuter1"/><feMerge><feMergeNode in="shadowMatrixOuter1"/><feMergeNode in="SourceGraphic"/></feMerge></filter><filter height="302.3%" width="346.3%" x="-121.2%" y="-99.2%" id="bb" filterUnits="objectBoundingBox"><feOffset in="SourceAlpha" result="shadowOffsetOuter1"/><feGaussianBlur stdDeviation="2.5" in="shadowOffsetOuter1" result="shadowBlurOuter1"/><feColorMatrix values="0 0 0 0 0 0 0 0 0 1 0 0 0 0 0.918817935 0 0 0 1 0" in="shadowBlurOuter1" result="shadowMatrixOuter1"/><feMerge><feMergeNode in="shadowMatrixOuter1"/><feMergeNode in="SourceGraphic"/></feMerge></filter><filter height="302.3%" width="346.3%" x="-121.2%" y="-99.2%" id="aX" filterUnits="objectBoundingBox"><feOffset in="SourceAlpha" result="shadowOffsetOuter1"/><feGaussianBlur stdDeviation="2.5" in="shadowOffsetOuter1" result="shadowBlurOuter1"/><feColorMatrix values="0 0 0 0 0 0 0 0 0 1 0 0 0 0 0.918817935 0 0 0 1 0" in="shadowBlurOuter1" result="shadowMatrixOuter1"/><feMerge><feMergeNode in="shadowMatrixOuter1"/><feMergeNode in="SourceGraphic"/></feMerge></filter><filter height="302.3%" width="346.3%" x="-121.2%" y="-99.2%" id="aT" filterUnits="objectBoundingBox"><feOffset in="SourceAlpha" result="shadowOffsetOuter1"/><feGaussianBlur stdDeviation="2.5" in="shadowOffsetOuter1" result="shadowBlurOuter1"/><feColorMatrix values="0 0 0 0 0 0 0 0 0 1 0 0 0 0 0.918817935 0 0 0 1 0" in="shadowBlurOuter1" result="shadowMatrixOuter1"/><feMerge><feMergeNode in="shadowMatrixOuter1"/><feMergeNode in="SourceGraphic"/></feMerge></filter><filter height="302.3%" width="346.3%" x="-121.2%" y="-99.2%" id="aP" filterUnits="objectBoundingBox"><feOffset in="SourceAlpha" result="shadowOffsetOuter1"/><feGaussianBlur stdDeviation="2.5" in="shadowOffsetOuter1" result="shadowBlurOuter1"/><feColorMatrix values="0 0 0 0 0 0 0 0 0 1 0 0 0 0 0.918817935 0 0 0 1 0" in="shadowBlurOuter1" result="shadowMatrixOuter1"/><feMerge><feMergeNode in="shadowMatrixOuter1"/><feMergeNode in="SourceGraphic"/></feMerge></filter><filter height="435.7%" width="510%" x="-198.3%" y="-167.8%" id="ah" filterUnits="objectBoundingBox"><feOffset in="SourceAlpha" result="shadowOffsetOuter1"/><feGaussianBlur stdDeviation="2.5" in="shadowOffsetOuter1" result="shadowBlurOuter1"/><feColorMatrix values="0 0 0 0 0 0 0 0 0 1 0 0 0 0 0.918817935 0 0 0 1 0" in="shadowBlurOuter1" result="shadowMatrixOuter1"/><feMerge><feMergeNode in="shadowMatrixOuter1"/><feMergeNode in="SourceGraphic"/></feMerge></filter><filter height="415.6%" width="510%" x="-198.3%" y="-155.9%" id="af" filterUnits="objectBoundingBox"><feOffset in="SourceAlpha" result="shadowOffsetOuter1"/><feGaussianBlur stdDeviation="2.5" in="shadowOffsetOuter1" result="shadowBlurOuter1"/><feColorMatrix values="0 0 0 0 0 0 0 0 0 1 0 0 0 0 0.918817935 0 0 0 1 0" in="shadowBlurOuter1" result="shadowMatrixOuter1"/><feMerge><feMergeNode in="shadowMatrixOuter1"/><feMergeNode in="SourceGraphic"/></feMerge></filter><filter height="415.6%" width="510%" x="-198.3%" y="-155.9%" id="ae" filterUnits="objectBoundingBox"><feOffset in="SourceAlpha" result="shadowOffsetOuter1"/><feGaussianBlur stdDeviation="2.5" in="shadowOffsetOuter1" result="shadowBlurOuter1"/><feColorMatrix values="0 0 0 0 0 0 0 0 0 1 0 0 0 0 0.918817935 0 0 0 1 0" in="shadowBlurOuter1" result="shadowMatrixOuter1"/><feMerge><feMergeNode in="shadowMatrixOuter1"/><feMergeNode in="SourceGraphic"/></feMerge></filter><filter height="435.7%" width="510%" x="-198.3%" y="-167.8%" id="aa" filterUnits="objectBoundingBox"><feOffset in="SourceAlpha" result="shadowOffsetOuter1"/><feGaussianBlur stdDeviation="2.5" in="shadowOffsetOuter1" result="shadowBlurOuter1"/><feColorMatrix values="0 0 0 0 0 0 0 0 0 1 0 0 0 0 0.918817935 0 0 0 1 0" in="shadowBlurOuter1" result="shadowMatrixOuter1"/><feMerge><feMergeNode in="shadowMatrixOuter1"/><feMergeNode in="SourceGraphic"/></feMerge></filter><filter height="435.7%" width="510%" x="-198.3%" y="-167.8%" id="Y" filterUnits="objectBoundingBox"><feOffset in="SourceAlpha" result="shadowOffsetOuter1"/><feGaussianBlur stdDeviation="2.5" in="shadowOffsetOuter1" result="shadowBlurOuter1"/><feColorMatrix values="0 0 0 0 0 0 0 0 0 1 0 0 0 0 0.918817935 0 0 0 1 0" in="shadowBlurOuter1" result="shadowMatrixOuter1"/><feMerge><feMergeNode in="shadowMatrixOuter1"/><feMergeNode in="SourceGraphic"/></feMerge></filter><filter height="415.6%" width="510%" x="-198.3%" y="-155.9%" id="T" filterUnits="objectBoundingBox"><feOffset in="SourceAlpha" result="shadowOffsetOuter1"/><feGaussianBlur stdDeviation="2.5" in="shadowOffsetOuter1" result="shadowBlurOuter1"/><feColorMatrix values="0 0 0 0 0 0 0 0 0 1 0 0 0 0 0.918817935 0 0 0 1 0" in="shadowBlurOuter1" result="shadowMatrixOuter1"/><feMerge><feMergeNode in="shadowMatrixOuter1"/><feMergeNode in="SourceGraphic"/></feMerge></filter><filter height="415.6%" width="510%" x="-198.3%" y="-155.9%" id="P" filterUnits="objectBoundingBox"><feOffset in="SourceAlpha" result="shadowOffsetOuter1"/><feGaussianBlur stdDeviation="2.5" in="shadowOffsetOuter1" result="shadowBlurOuter1"/><feColorMatrix values="0 0 0 0 0 0 0 0 0 1 0 0 0 0 0.918817935 0 0 0 1 0" in="shadowBlurOuter1" result="shadowMatrixOuter1"/><feMerge><feMergeNode in="shadowMatrixOuter1"/><feMergeNode in="SourceGraphic"/></feMerge></filter><linearGradient id="a" gradientUnits="userSpaceOnUse" x1="448.71" y1="36.955" x2="448.943" y2="37.004" gradientTransform="matrix(209.323 0 0 71.7352 -93498.477 -2433.137)"><stop offset="0" stop-color="#02e8fd" stop-opacity=".427"/><stop offset="1" stop-color="#01ccfb" stop-opacity="0"/></linearGradient><linearGradient id="b" gradientUnits="userSpaceOnUse" x1="449.01" y1="37.584" x2="447.939" y2="37.586" gradientTransform="matrix(209.323 0 0 71.7352 -93498.477 -2433.137)"><stop offset="0" stop-color="#01e4fc" stop-opacity="0"/><stop offset=".482" stop-color="#02ebfc"/><stop offset="1" stop-color="#01e2fb" stop-opacity="0"/></linearGradient><path fill="url(#a)" stroke="url(#b)" stroke-width="1.444" d="M489.787 238.273l-80.695-46.626a29.33 29.33 0 00-29.268-.048l-64.776 37.149 5.357 9.339 64.778-37.148a18.564 18.564 0 0118.522.03l80.695 46.625 5.387-9.321z"/><g transform="translate(1018.728 146.083)" filter="url(#c)"><path fill="#00F6FF" d="M-622.398 49.863l-2.096-1.211 2.096-1.208 2.095 1.208-2.095 1.211z"/><path fill="#03E2F9" d="M-620.303 48.653l-2.095-1.208v-2.418l2.095 1.208v2.418z"/><path fill="#69E0FF" d="M-622.398 47.445l-2.096 1.208v-2.418l2.096-1.208v2.418z"/></g><linearGradient id="d" gradientUnits="userSpaceOnUse" x1="411.309" y1="48.278" x2="410.607" y2="48.007" gradientTransform="matrix(25.059 0 0 17.035 -9936.31 -612.798)"><stop offset="0" stop-color="#00f6ff" stop-opacity="0"/><stop offset="1" stop-color="#02cde7"/></linearGradient><path fill="url(#d)" d="M373.167 201.626v2.419l-18.824 10.593v-2.417l-2.095-1.21 18.825-10.592 2.094 1.207z"/><g transform="translate(968.215 168.41)" filter="url(#e)"><path fill="#00F6FF" d="M-611.779 45.019l-2.094 1.209V43.81l2.094-1.209v2.418z"/><path fill="#03E2F9" d="M-613.872 46.228l-2.095-1.209V42.6l2.095 1.209v2.419z"/><path fill="#69E0FF" d="M-613.872 43.81l-2.095-1.209 2.095-1.21 2.094 1.21-2.094 1.209z"/></g><linearGradient id="f" gradientUnits="userSpaceOnUse" x1="410.197" y1="47.784" x2="409.496" y2="47.49" gradientTransform="matrix(24.775 0 0 17.527 -9714.188 -619.271)"><stop offset="0" stop-color="#00f6ff" stop-opacity="0"/><stop offset="1" stop-color="#02cde7"/></linearGradient><path fill="url(#f)" d="M450.89 221.985l-2.094 1.208-18.587-11.003 2.095-1.209v-2.418l18.586 11.004v2.418z"/><g transform="translate(1061.775 167.064)" filter="url(#g)"><path fill="#00F6FF" d="M-629.471 46.335l-2.095-1.209 2.095-1.209 2.094 1.209-2.094 1.209z"/><path fill="#03E2F9" d="M-631.566 45.125v-2.417l2.095-1.209v2.418l-2.095 1.208z"/><path fill="#69E0FF" d="M-629.526 43.981v-2.482l2.149 1.241v2.481l-2.149-1.24z"/></g><g transform="translate(1095.016 186.144)" filter="url(#h)"><path fill="#00F6FF" d="M-635.003 43.245l-2.095-1.21 2.095-1.208 2.096 1.208-2.096 1.21z"/><path fill="#03E2F9" d="M-632.908 42.035l-2.096-1.208v-2.418l2.096 1.208v2.418z"/><path fill="#69E0FF" d="M-635.003 40.826l-2.095 1.208v-2.418l2.095-1.208v2.418z"/></g><path fill="#01E5FB" d="M318.925 247.614l-.601-1.043 71.693-41.251a10.248 10.248 0 0110.241.013l79.063 45.741-.605 1.043-79.063-45.742a9.04 9.04 0 00-9.035-.011l-71.693 41.25z"/><path fill="#01E5FB" d="M318.26 256.26l-.601-1.043 74.707-42.986a4.22 4.22 0 014.217.005l82.071 47.483-.603 1.043-82.073-47.483a3.017 3.017 0 00-3.012-.003L318.26 256.26z"/><path opacity=".3" fill="#0D054C" enable-background="new" d="M292.565 196.768l103.829 61.682c1.045.612 1.479 2.132.973 3.394-.207.513-.549.927-.973 1.175l-102.936 60.332c-2.706 1.586-5.865 1.586-8.573 0l-105.168-60.925c-1.045-.611-1.481-2.13-.975-3.393.206-.512.549-.926.975-1.175l104.274-61.089c2.706-1.588 5.867-1.588 8.574-.001z"/><path fill="#01E1FA" d="M284.781 206.947l-87.931 51.515a1.7 1.7 0 00-.694.844c-.375.932-.054 2.052.693 2.489l88.685 51.376c2.189 1.282 4.736 1.282 6.925 0l86.801-50.875c.298-.176.542-.472.694-.844.375-.932.053-2.053-.695-2.491l-87.554-52.015c-2.187-1.282-4.736-1.281-6.924.001zm7.228-.521l87.557 52.016c1.016.596 1.428 2.037.947 3.234-.198.492-.53.893-.947 1.138l-86.801 50.875c-2.376 1.393-5.158 1.393-7.533 0l-88.688-51.375c-1.016-.595-1.429-2.037-.948-3.233.196-.493.531-.895.948-1.139l87.931-51.515c2.376-1.394 5.157-1.394 7.534-.001z"/><linearGradient id="i" gradientUnits="userSpaceOnUse" x1="448.375" y1="35.81" x2="447.652" y2="35.573" gradientTransform="matrix(184.8823 0 0 108.85 -82545.336 -3625.633)"><stop offset="0" stop-color="#00c2fa"/><stop offset="1" stop-color="#0b78ff"/></linearGradient><path fill="url(#i)" d="M291.388 215.464l73.156 43.461c.736.431 1.045 1.502.686 2.391a1.671 1.671 0 01-.686.829l-72.525 42.508c-1.908 1.118-4.134 1.118-6.041 0l-74.101-42.926c-.736-.432-1.044-1.502-.686-2.391.131-.344.372-.635.686-.828l73.47-43.043c1.909-1.119 4.134-1.119 6.041-.001z"/><linearGradient id="j" gradientUnits="userSpaceOnUse" x1="446.745" y1="36.297" x2="447.416" y2="36.314" gradientTransform="matrix(158.0602 0 0 85.0655 -70374.164 -2825.207)"><stop offset="0" stop-color="#1a22be"/><stop offset=".661" stop-color="#0b0d7e"/><stop offset="1" stop-color="#1a22be"/></linearGradient><path fill="url(#j)" d="M301.965 227.906l52.709 6.65v24.838c.077.346.055.726-.085 1.073a1.437 1.437 0 01-.592.715l-62.645 36.716c-1.648.966-3.57.966-5.216 0l-62.643-36.715c-.396-.232-.648-.677-.708-1.165h-.013v-25.462h52.754l10.612-6.219c1.646-.966 3.569-.966 5.217 0l10.61-.431z"/><path fill="#0B0F89" d="M235.042 250.265c.54.263.88.811.881 1.41v8.882a.523.523 0 01-.753.471l-1.635-.799a1.568 1.568 0 01-.879-1.411v-8.882a.523.523 0 01.752-.47l1.634.799zm-5.055-2.785c.54.264.881.811.881 1.411v8.883a.523.523 0 01-.754.469l-1.635-.799a1.572 1.572 0 01-.881-1.411v-8.882a.523.523 0 01.753-.47l1.636.799z"/><linearGradient id="k" gradientUnits="userSpaceOnUse" x1="441.278" y1="36.428" x2="440.357" y2="36.263" gradientTransform="matrix(82.1547 0 0 85.0655 -35894.465 -2825.644)"><stop offset="0" stop-color="#0f0856"/><stop offset="1" stop-color="#0b0f89"/></linearGradient><path fill="url(#k)" d="M301.656 234.174h52.71v24.838c.075.346.054.726-.086 1.073a1.435 1.435 0 01-.593.715l-62.642 36.716c-1.648.967-3.572.967-5.217 0v-69.563c1.646-.965 3.569-.965 5.217 0l10.611 6.221z"/><path fill="#0B0F89" d="M317.825 263.254l25.676-15.104c.237-.14.524-.021.639.265a.64.64 0 01.049.252v2.351c0 .659-.313 1.262-.805 1.553l-25.675 15.102c-.239.14-.524.022-.64-.264a.626.626 0 01-.048-.253v-2.35c-.002-.661.31-1.263.804-1.552z"/><linearGradient id="l" gradientUnits="userSpaceOnUse" x1="421.359" y1="43.85" x2="420.636" y2="43.492" gradientTransform="matrix(32.547 0 0 23.5268 -13370.918 -768.88)"><stop offset="0" stop-color="#00c2fa"/><stop offset="1" stop-color="#0b78ff"/></linearGradient><path fill="url(#l)" d="M319.096 264.092l25.675-15.104c.239-.14.525-.022.643.265a.705.705 0 01.048.252v2.351c0 .659-.313 1.262-.805 1.552L318.98 268.51c-.237.141-.524.022-.64-.263a.686.686 0 01-.048-.254v-2.349c0-.659.312-1.263.804-1.552z"/><linearGradient id="m" gradientUnits="userSpaceOnUse" x1="421.359" y1="45.343" x2="420.637" y2="45.076" gradientTransform="matrix(32.547 0 0 20.34 -13370.918 -654.968)"><stop offset="0" stop-color="#00c2fa"/><stop offset="1" stop-color="#0b78ff"/></linearGradient><path fill="url(#m)" d="M319.096 271.407l25.675-15.104c.239-.14.525-.021.643.266a.7.7 0 01.048.252v-.311c0 .66-.313 1.262-.805 1.552l-25.677 15.104c-.237.139-.524.021-.64-.265a.68.68 0 01-.048-.252v.31c0-.659.312-1.262.804-1.552z"/><path fill="#0B0F89" d="M291.354 196.658l62.643 36.717c.636.372.901 1.297.593 2.065a1.44 1.44 0 01-.593.715l-62.643 36.717c-1.648.966-3.57.966-5.217 0l-62.643-36.717c-.637-.372-.901-1.297-.593-2.065.125-.313.333-.564.593-.715l62.643-36.717c1.646-.966 3.569-.966 5.217 0z"/><linearGradient id="n" gradientUnits="userSpaceOnUse" x1="447.346" y1="36.127" x2="446.176" y2="36.317" gradientTransform="matrix(153.5756 0 0 90.4187 -68339.445 -3039.79)"><stop offset="0" stop-color="#188eff"/><stop offset="1" stop-color="#1b37d6"/></linearGradient><path fill="url(#n)" d="M291.303 196.624l60.769 36.101c.611.359.866 1.248.569 1.988-.109.285-.31.527-.569.687l-60.245 35.312c-1.584.928-3.434.928-5.016 0l-61.555-35.659c-.611-.359-.867-1.249-.569-1.987.12-.3.321-.542.569-.688l61.03-35.753c1.584-.931 3.434-.931 5.017-.001z"/><path fill="none" stroke="#00BDFA" stroke-width=".722" d="M290.471 207.57a3.342 3.342 0 00-3.454 0l-45.134 26.453a.757.757 0 00-.3.367c-.168.421-.023.926.301 1.116l45.133 26.453c1.092.64 2.361.64 3.453 0l45.135-26.453a.747.747 0 00.3-.367c.167-.42.022-.927-.301-1.116l-45.133-26.453z"/><linearGradient id="o" gradientUnits="userSpaceOnUse" x1="442.182" y1="38.209" x2="441.455" y2="38.245" gradientTransform="matrix(88.1718 0 0 51.6361 -38662.406 -1738.945)"><stop offset="0" stop-color="#1a22be"/><stop offset="1" stop-color="#0b0f89"/></linearGradient><path fill="url(#o)" d="M290.199 213.912l34.943 20.378c.356.207.505.721.333 1.146a.807.807 0 01-.332.397l-34.942 20.379a2.838 2.838 0 01-2.912 0l-34.943-20.379c-.356-.207-.503-.72-.332-1.147a.805.805 0 01.331-.397l34.943-20.378a2.834 2.834 0 012.911.001z"/><linearGradient id="p" gradientUnits="userSpaceOnUse" x1="442.106" y1="38.348" x2="441.383" y2="38.113" gradientTransform="matrix(88.1718 0 0 51.6361 -38662.406 -1741.32)"><stop offset="0" stop-color="#00c2fa"/><stop offset="1" stop-color="#0b78ff"/></linearGradient><path fill="url(#p)" d="M290.199 211.917l34.943 20.379c.356.208.505.721.333 1.146a.807.807 0 01-.332.397l-34.942 20.378a2.838 2.838 0 01-2.912 0l-34.943-20.378c-.356-.208-.503-.72-.332-1.146a.796.796 0 01.331-.397l34.943-20.379a2.836 2.836 0 012.911 0z"/><linearGradient id="q" gradientUnits="userSpaceOnUse" x1="398.877" y1="55.431" x2="397.579" y2="55.544" gradientTransform="matrix(18.8945 0 0 10.977 -7220.88 -362.36)"><stop offset="0" stop-color="#1a22be"/><stop offset="1" stop-color="#0b0f89"/></linearGradient><path fill="url(#q)" d="M300.901 242.75l1.333.675c.133.077.188.269.124.429a.292.292 0 01-.124.149l-13.052 7.611a1.055 1.055 0 01-1.087 0l-1.333-.778c-.134-.078-.188-.166-.124-.326a.294.294 0 01.124-.148l13.051-7.612c.343-.2.744-.2 1.088 0z"/><linearGradient id="r" gradientUnits="userSpaceOnUse" x1="446.743" y1="36.391" x2="447.414" y2="36.408" gradientTransform="matrix(158.0602 0 0 85.0655 -70374.164 -2873.207)"><stop offset="0" stop-color="#1a22be"/><stop offset=".661" stop-color="#0b0d7e"/><stop offset="1" stop-color="#1a22be"/></linearGradient><path fill="url(#r)" d="M301.965 187.842l52.709 6.65v24.838a1.83 1.83 0 01-.085 1.074 1.437 1.437 0 01-.592.715l-62.645 36.716c-1.648.966-3.57.966-5.216 0l-62.643-36.716c-.396-.232-.648-.677-.708-1.165h-.013v-25.462h52.754l10.612-6.219c1.646-.966 3.569-.966 5.217 0l10.61-.431z"/><path fill="#0B0F89" d="M235.042 210.201c.54.263.88.809.881 1.409v8.882a.522.522 0 01-.753.472l-1.635-.799a1.567 1.567 0 01-.879-1.411v-8.883a.523.523 0 01.752-.469l1.634.799zm-5.055-2.785c.54.264.881.812.881 1.411v8.883a.524.524 0 01-.754.47l-1.635-.799a1.57 1.57 0 01-.881-1.411v-8.882a.524.524 0 01.753-.47l1.636.798z"/><linearGradient id="s" gradientUnits="userSpaceOnUse" x1="441.279" y1="36.522" x2="440.356" y2="36.356" gradientTransform="matrix(82.1547 0 0 85.0655 -35894.465 -2873.644)"><stop offset="0" stop-color="#0f0856"/><stop offset="1" stop-color="#0b0f89"/></linearGradient><path fill="url(#s)" d="M301.656 194.11h52.71v24.838c.075.346.054.726-.086 1.073a1.44 1.44 0 01-.593.715l-62.641 36.716c-1.648.967-3.571.967-5.217 0V187.89c1.646-.966 3.569-.966 5.217 0l10.61 6.22z"/><path fill="#0B0F89" d="M317.825 223.188l25.676-15.103c.237-.14.524-.021.639.264.034.08.049.166.049.253v2.35c0 .659-.313 1.262-.805 1.552l-25.675 15.104c-.239.139-.524.021-.64-.265a.624.624 0 01-.048-.252v-2.351c0-.659.311-1.261.804-1.552z"/><linearGradient id="t" gradientUnits="userSpaceOnUse" x1="421.358" y1="44.187" x2="420.635" y2="43.829" gradientTransform="matrix(32.547 0 0 23.5268 -13370.918 -816.88)"><stop offset="0" stop-color="#00c2fa"/><stop offset="1" stop-color="#0b78ff"/></linearGradient><path fill="url(#t)" d="M319.096 224.027l25.675-15.104c.239-.139.525-.022.643.265a.7.7 0 01.048.252v2.351c0 .66-.313 1.262-.805 1.551l-25.677 15.104c-.237.14-.524.022-.64-.264a.685.685 0 01-.048-.253v-2.349c0-.659.312-1.262.804-1.553z"/><linearGradient id="u" gradientUnits="userSpaceOnUse" x1="421.358" y1="45.734" x2="420.635" y2="45.467" gradientTransform="matrix(32.547 0 0 20.34 -13370.918 -702.968)"><stop offset="0" stop-color="#00c2fa"/><stop offset="1" stop-color="#0b78ff"/></linearGradient><path fill="url(#u)" d="M319.096 231.343l25.675-15.104c.239-.14.525-.021.643.265a.7.7 0 01.048.252v-.311c0 .659-.313 1.262-.805 1.552l-25.677 15.104c-.237.139-.524.022-.64-.265a.68.68 0 01-.048-.252v.31c0-.659.312-1.262.804-1.551z"/><path fill="#0B0F89" d="M291.354 156.593l62.643 36.717c.636.372.901 1.297.593 2.065a1.436 1.436 0 01-.593.715l-62.643 36.717c-1.648.966-3.57.966-5.217 0l-62.643-36.717c-.637-.372-.901-1.297-.593-2.065.125-.313.333-.564.593-.716l62.643-36.716c1.646-.965 3.569-.965 5.217 0z"/><linearGradient id="v" gradientUnits="userSpaceOnUse" x1="447.345" y1="36.214" x2="446.177" y2="36.404" gradientTransform="matrix(153.5756 0 0 90.4187 -68339.445 -3087.79)"><stop offset="0" stop-color="#188eff"/><stop offset="1" stop-color="#1b37d6"/></linearGradient><path fill="url(#v)" d="M291.303 156.559l60.769 36.101c.611.359.866 1.248.569 1.987a1.39 1.39 0 01-.569.687l-60.245 35.311c-1.584.928-3.434.928-5.016 0l-61.554-35.658c-.612-.359-.868-1.248-.57-1.987.121-.3.321-.542.57-.688l61.029-35.754c1.583-.929 3.434-.929 5.017 0v.001z"/><path fill="#00BDFA" d="M290.318 167.765a3.047 3.047 0 00-3.148 0l-45.133 26.454a.44.44 0 00-.171.22c-.115.288-.018.633.171.743l45.134 26.455c.998.583 2.15.583 3.148 0l45.133-26.455a.448.448 0 00.174-.219c.114-.287.016-.633-.174-.743l-45.134-26.455zm.306-.519l45.133 26.453c.459.269.65.935.427 1.488-.09.226-.241.407-.427.516l-45.133 26.453a3.643 3.643 0 01-3.758 0l-45.133-26.453c-.459-.269-.649-.935-.428-1.489.091-.225.242-.406.428-.516l45.134-26.453a3.643 3.643 0 013.757.001z"/><linearGradient id="w" gradientUnits="userSpaceOnUse" x1="442.18" y1="38.362" x2="441.452" y2="38.399" gradientTransform="matrix(88.1718 0 0 51.6361 -38662.406 -1786.945)"><stop offset="0" stop-color="#1a22be"/><stop offset="1" stop-color="#0b0f89"/></linearGradient><path fill="url(#w)" d="M290.199 173.847l34.943 20.38c.356.207.505.72.333 1.146a.814.814 0 01-.332.398l-34.942 20.378a2.838 2.838 0 01-2.912 0l-34.943-20.379c-.356-.207-.503-.721-.332-1.147a.796.796 0 01.331-.397l34.943-20.379a2.836 2.836 0 012.911 0z"/><linearGradient id="x" gradientUnits="userSpaceOnUse" x1="442.106" y1="38.501" x2="441.382" y2="38.266" gradientTransform="matrix(88.1718 0 0 51.6361 -38662.406 -1789.32)"><stop offset="0" stop-color="#00c2fa"/><stop offset="1" stop-color="#0b78ff"/></linearGradient><path fill="url(#x)" d="M290.199 171.852l34.943 20.379c.356.208.505.72.333 1.146a.807.807 0 01-.332.397l-34.942 20.379a2.842 2.842 0 01-2.912 0l-34.943-20.379c-.356-.208-.503-.72-.332-1.146a.805.805 0 01.331-.397l34.943-20.379a2.84 2.84 0 012.911 0z"/><linearGradient id="y" gradientUnits="userSpaceOnUse" x1="398.877" y1="56.152" x2="397.579" y2="56.265" gradientTransform="matrix(18.8945 0 0 10.977 -7220.88 -410.352)"><stop offset="0" stop-color="#1a22be"/><stop offset="1" stop-color="#0b0f89"/></linearGradient><path fill="url(#y)" d="M300.901 202.685l1.333.675c.133.078.188.269.124.429a.28.28 0 01-.124.147l-13.052 7.612c-.343.2-.743.2-1.087 0l-1.333-.778c-.134-.078-.188-.165-.124-.325a.29.29 0 01.124-.148l13.051-7.612c.343-.2.744-.2 1.088 0z"/><linearGradient id="z" gradientUnits="userSpaceOnUse" x1="446.744" y1="36.483" x2="447.414" y2="36.5" gradientTransform="matrix(158.0602 0 0 85.0655 -70374.164 -2921.02)"><stop offset="0" stop-color="#1a22be"/><stop offset=".661" stop-color="#0b0d7e"/><stop offset="1" stop-color="#1a22be"/></linearGradient><path fill="url(#z)" d="M301.965 147.939l52.709 6.651v24.839c.077.346.055.725-.085 1.073a1.442 1.442 0 01-.592.715l-62.643 36.716c-1.648.966-3.57.966-5.217 0l-62.643-36.716c-.396-.231-.648-.676-.708-1.165h-.013V154.59h52.754l10.612-6.22c1.646-.965 3.569-.965 5.217 0l10.609-.431z"/><path fill="#0B0F89" d="M235.042 170.299c.54.263.881.81.881 1.41v8.882a.523.523 0 01-.753.47l-1.635-.799a1.567 1.567 0 01-.879-1.41v-8.882a.521.521 0 01.752-.47l1.634.799zm-5.055-2.784c.538.263.881.81.881 1.409v8.883a.523.523 0 01-.754.47l-1.635-.798a1.573 1.573 0 01-.881-1.41v-8.883a.522.522 0 01.753-.469l1.636.798z"/><linearGradient id="A" gradientUnits="userSpaceOnUse" x1="441.278" y1="36.615" x2="440.357" y2="36.45" gradientTransform="matrix(82.1547 0 0 85.0655 -35894.465 -2921.457)"><stop offset="0" stop-color="#0f0856"/><stop offset="1" stop-color="#0b0f89"/></linearGradient><path fill="url(#A)" d="M301.656 154.207h52.71v24.838c.075.346.054.726-.086 1.073a1.44 1.44 0 01-.593.715l-62.641 36.716c-1.648.966-3.571.966-5.217 0v-69.562c1.646-.965 3.569-.965 5.217 0l10.61 6.22z"/><path fill="#0B0F89" d="M317.825 183.286l25.676-15.103c.237-.14.524-.022.639.265.034.08.049.165.049.251v2.351c0 .66-.313 1.261-.805 1.552l-25.675 15.104c-.239.14-.524.021-.64-.264a.626.626 0 01-.048-.253v-2.35c-.002-.66.31-1.262.804-1.553z"/><linearGradient id="B" gradientUnits="userSpaceOnUse" x1="421.359" y1="44.522" x2="420.636" y2="44.164" gradientTransform="matrix(32.547 0 0 23.528 -13370.918 -864.727)"><stop offset="0" stop-color="#00c2fa"/><stop offset="1" stop-color="#0b78ff"/></linearGradient><path fill="url(#B)" d="M319.096 184.125l25.675-15.104c.239-.14.525-.021.643.265a.7.7 0 01.048.252v2.35c0 .66-.313 1.261-.805 1.551l-25.677 15.105c-.237.14-.524.021-.64-.264a.689.689 0 01-.048-.253v-2.35c0-.659.312-1.261.804-1.552z"/><linearGradient id="C" gradientUnits="userSpaceOnUse" x1="421.358" y1="46.119" x2="420.634" y2="45.851" gradientTransform="matrix(32.547 0 0 20.3406 -13370.918 -750.765)"><stop offset="0" stop-color="#00c2fa"/><stop offset="1" stop-color="#0b78ff"/></linearGradient><path fill="url(#C)" d="M319.096 191.441l25.675-15.104c.239-.14.525-.021.643.265a.7.7 0 01.048.252v-.311c0 .66-.313 1.263-.805 1.553l-25.677 15.103c-.237.14-.524.022-.64-.265a.68.68 0 01-.048-.252v.31c0-.66.312-1.262.804-1.551z"/><path fill="#0B0F89" d="M291.354 116.691l62.643 36.716c.636.373.901 1.296.593 2.065a1.44 1.44 0 01-.593.715l-62.643 36.717c-1.648.965-3.57.965-5.217 0l-62.643-36.717c-.637-.372-.901-1.297-.593-2.065.125-.312.333-.563.593-.715l62.643-36.717c1.646-.965 3.569-.965 5.217.001z"/><linearGradient id="D" gradientUnits="userSpaceOnUse" x1="447.345" y1="36.303" x2="446.177" y2="36.494" gradientTransform="matrix(153.5756 0 0 90.417 -68339.445 -3135.59)"><stop offset="0" stop-color="#188eff"/><stop offset="1" stop-color="#1b37d6"/></linearGradient><path fill="url(#D)" d="M291.303 116.656l60.769 36.101c.611.359.866 1.248.569 1.988-.109.285-.31.527-.569.687l-60.245 35.311c-1.583.928-3.432.928-5.016 0l-61.554-35.657c-.612-.359-.868-1.248-.57-1.987.121-.299.321-.541.57-.688l61.029-35.753c1.584-.93 3.434-.93 5.017-.002z"/><path fill="#00BDFA" d="M290.318 127.863a3.038 3.038 0 00-3.148 0l-45.133 26.453a.437.437 0 00-.171.221c-.115.288-.018.632.171.743l45.134 26.453c.998.585 2.15.585 3.148 0l45.133-26.453a.46.46 0 00.174-.22c.114-.288.016-.633-.174-.743l-45.133-26.454h-.001zm.306-.52l45.133 26.454c.459.268.65.935.427 1.487-.09.226-.241.407-.427.516l-45.133 26.454a3.647 3.647 0 01-3.758 0l-45.133-26.455c-.459-.267-.649-.934-.428-1.487a1.03 1.03 0 01.428-.516l45.133-26.454a3.645 3.645 0 013.758.001z"/><linearGradient id="E" gradientUnits="userSpaceOnUse" x1="442.24" y1="38.464" x2="441.072" y2="38.652" gradientTransform="matrix(88.1713 0 0 51.6361 -38662.188 -1836.414)"><stop offset="0" stop-color="#188eff"/><stop offset="1" stop-color="#1b37d6"/></linearGradient><path opacity=".3" fill="url(#E)" enable-background="new" d="M290.12 132.549l34.943 20.379c.355.207.502.72.331 1.147a.8.8 0 01-.331.397l-34.943 20.377a2.838 2.838 0 01-2.912 0l-34.942-20.378c-.354-.208-.504-.72-.331-1.147a.804.804 0 01.331-.397l34.942-20.379a2.836 2.836 0 012.911 0l.001.001z"/><g opacity=".5"><linearGradient id="F" gradientUnits="userSpaceOnUse" x1="447.979" y1="34.913" x2="447.979" y2="35.889" gradientTransform="matrix(183.1643 0 0 131.746 -81765.781 -4404.367)"><stop offset="0" stop-color="#6be9ff" stop-opacity="0"/><stop offset="1" stop-color="#01f3fa"/></linearGradient><path fill="url(#F)" d="M364.438 195.345c.235 43.277.235 65.211 0 65.804a1.678 1.678 0 01-.679.829l-71.84 42.508c-1.888 1.119-4.094 1.119-5.983 0l-73.396-42.927c-.73-.431-1.035-1.502-.68-2.39.095-.242.095-21.515 0-63.824h152.578z"/><linearGradient id="G" gradientUnits="userSpaceOnUse" x1="441.953" y1="34.928" x2="441.953" y2="35.903" gradientTransform="matrix(88.9148 0 0 130.742 -39047.309 -4371.242)"><stop offset="0" stop-color="#6be9ff" stop-opacity="0"/><stop offset="1" stop-color="#01f3fa"/></linearGradient><path fill="url(#G)" d="M285.936 195.345v109.141l-73.397-42.927c-.729-.431-1.034-1.502-.68-2.39.095-.242.095-21.515 0-63.824h74.077z"/><linearGradient id="H" gradientUnits="userSpaceOnUse" x1="360.161" y1="34.852" x2="360.161" y2="35.897" gradientTransform="matrix(11.155 0 0 158.54 -3793.958 -5357.297)"><stop offset="0" stop-color="#6be9ff" stop-opacity="0"/><stop offset="1" stop-color="#01f3fa"/></linearGradient><path fill="url(#H)" d="M218.988 137.897l9.313 5.32v127.026l-9.313-5.321V137.897z"/><linearGradient id="I" gradientUnits="userSpaceOnUse" x1="359.724" y1="34.934" x2="359.724" y2="35.878" gradientTransform="matrix(11.155 0 0 158.54 -3764.442 -5339.672)"><stop offset="0" stop-color="#6be9ff" stop-opacity="0"/><stop offset="1" stop-color="#01f3fa"/></linearGradient><path fill="url(#I)" d="M243.629 152.655l9.311 5.32v127.026l-9.311-5.32V152.655z"/><linearGradient id="J" gradientUnits="userSpaceOnUse" x1="359.288" y1="35.162" x2="359.288" y2="35.86" gradientTransform="matrix(11.155 0 0 158.54 -3734.958 -5322.172)"><stop offset="0" stop-color="#6be9ff" stop-opacity="0"/><stop offset="1" stop-color="#01f3fa"/></linearGradient><path fill="url(#J)" d="M268.239 167.287l9.313 5.32v127.026l-9.313-5.321V167.287z"/><linearGradient id="K" gradientUnits="userSpaceOnUse" x1="549.624" y1="34.851" x2="549.624" y2="35.895" gradientTransform="matrix(-11.155 0 0 158.54 6483.552 -5356.172)"><stop offset="0" stop-color="#6be9ff" stop-opacity="0"/><stop offset="1" stop-color="#01f3fa"/></linearGradient><path fill="url(#K)" d="M357.147 138.884l-9.313 5.32v127.027l9.313-5.321V138.884z"/><linearGradient id="L" gradientUnits="userSpaceOnUse" x1="549.188" y1="34.933" x2="549.188" y2="35.877" gradientTransform="matrix(-11.155 0 0 158.54 6454.036 -5338.422)"><stop offset="0" stop-color="#6be9ff" stop-opacity="0"/><stop offset="1" stop-color="#01f3fa"/></linearGradient><path fill="url(#L)" d="M332.506 153.642l-9.313 5.32v127.027l9.313-5.321V153.642z"/><linearGradient id="M" gradientUnits="userSpaceOnUse" x1="548.752" y1="35.16" x2="548.752" y2="35.858" gradientTransform="matrix(-11.155 0 0 158.54 6424.56 -5320.922)"><stop offset="0" stop-color="#6be9ff" stop-opacity="0"/><stop offset="1" stop-color="#01f3fa"/></linearGradient><path fill="url(#M)" d="M307.896 168.274l-9.313 5.319V300.62l9.313-5.32V168.274z"/></g><linearGradient id="N" gradientUnits="userSpaceOnUse" x1="446.748" y1="34.836" x2="446.828" y2="35.377" gradientTransform="matrix(159.3904 0 0 141.026 -70670.563 -4608.695)"><stop offset="0" stop-color="#02e8fd" stop-opacity="0"/><stop offset=".305" stop-color="#02e5fd" stop-opacity=".385"/><stop offset="1" stop-color="#01ccfb" stop-opacity="0"/></linearGradient><linearGradient id="O" gradientUnits="userSpaceOnUse" x1="446.733" y1="34.741" x2="446.659" y2="35.363" gradientTransform="matrix(159.3904 0 0 141.026 -70670.563 -4608.695)"><stop offset="0" stop-color="#01e4fc" stop-opacity="0"/><stop offset=".236" stop-color="#02ebfc"/><stop offset="1" stop-color="#01e2fb" stop-opacity="0"/></linearGradient><path fill="url(#N)" stroke="url(#O)" stroke-width="1.444" d="M554.569 288.524l46.798 27.887a1.93 1.93 0 01-.028 3.337l-122.644 70.207 4.688 8.189 122.644-70.207a11.363 11.363 0 004.118-4.047c3.215-5.393 1.448-12.371-3.946-15.584l-46.797-27.887-4.833 8.105z"/><g transform="translate(1246.944 313.662)" filter="url(#P)"><linearGradient id="Q" gradientUnits="userSpaceOnUse" x1="-2262.034" y1="110.92" x2="-2263.201" y2="111.103" gradientTransform="matrix(5.018 0 0 2.897 10693.175 -300.584)"><stop offset="0" stop-color="#188eff"/><stop offset="1" stop-color="#1b37d6"/></linearGradient><path fill="url(#Q)" d="M-660.103 22.176l-2.096-1.209 2.096-1.209 2.094 1.209-2.094 1.209z"/><linearGradient id="R" gradientUnits="userSpaceOnUse" x1="-2484.846" y1="85.589" x2="-2485.087" y2="84.904" gradientTransform="matrix(2.509 0 0 4.345 5575.72 -351.267)"><stop offset="0" stop-color="#00c2fa"/><stop offset="1" stop-color="#0b78ff"/></linearGradient><path fill="url(#R)" d="M-658.009 20.967l-2.094-1.209V17.34l2.094 1.208v2.419z"/><linearGradient id="S" gradientUnits="userSpaceOnUse" x1="-2483.755" y1="86.9" x2="-2484.992" y2="84.948" gradientTransform="matrix(2.509 0 0 4.345 5573.21 -351.267)"><stop offset="0" stop-color="#00c2fa"/><stop offset="1" stop-color="#0b78ff"/></linearGradient><path fill="url(#S)" d="M-660.103 19.758l-2.096 1.209v-2.419l2.096-1.208v2.418z"/></g><g transform="translate(1201.527 339.952)" filter="url(#T)"><linearGradient id="U" gradientUnits="userSpaceOnUse" x1="-2169.704" y1="109.422" x2="-2170.872" y2="109.605" gradientTransform="matrix(5.018 0 0 2.897 10237.365 -300.587)"><stop offset="0" stop-color="#188eff"/><stop offset="1" stop-color="#1b37d6"/></linearGradient><path fill="url(#U)" d="M-652.6 17.833l-2.095-1.21 2.095-1.208 2.094 1.208-2.094 1.21z"/><linearGradient id="V" gradientUnits="userSpaceOnUse" x1="-2391.022" y1="84.59" x2="-2391.263" y2="83.906" gradientTransform="matrix(2.509 0 0 4.345 5347.818 -351.265)"><stop offset="0" stop-color="#00c2fa"/><stop offset="1" stop-color="#0b78ff"/></linearGradient><path fill="url(#V)" d="M-650.506 16.623l-2.094-1.208v-2.42l2.094 1.209v2.419z"/><linearGradient id="W" gradientUnits="userSpaceOnUse" x1="-2389.932" y1="85.9" x2="-2391.166" y2="83.95" gradientTransform="matrix(2.509 0 0 4.345 5345.308 -351.265)"><stop offset="0" stop-color="#00c2fa"/><stop offset="1" stop-color="#0b78ff"/></linearGradient><path fill="url(#W)" d="M-652.6 15.415l-2.095 1.208v-2.419l2.095-1.209v2.42z"/></g><linearGradient id="X" gradientUnits="userSpaceOnUse" x1="408.626" y1="46.302" x2="409.377" y2="45.971" gradientTransform="matrix(24.775 0 0 17.527 -9561.672 -465.428)"><stop offset="0" stop-color="#00f6ff" stop-opacity="0"/><stop offset="1" stop-color="#02cde7"/></linearGradient><path fill="url(#X)" d="M557.537 350.408v-2.418l18.588-11.004v2.419l2.094 1.208-18.587 11.004-1.552-.896-.543-.313z"/><g transform="translate(1234.108 320.95)" filter="url(#Y)"><path fill="#00F6FF" d="M-657.983 20.872l-2.094-1.209 2.094-1.208 2.095 1.208-2.095 1.209z"/><path fill="#03E2F9" d="M-655.888 19.663l-2.095-1.208v-2.419l2.095 1.209v2.418z"/><path fill="#69E0FF" d="M-657.983 18.455l-2.094 1.208v-2.418l2.094-1.209v2.419z"/></g><linearGradient id="Z" gradientUnits="userSpaceOnUse" x1="408.986" y1="46.773" x2="408.284" y2="46.479" gradientTransform="matrix(24.775 0 0 17.527 -9532.672 -512.115)"><stop offset="0" stop-color="#00f6ff" stop-opacity="0"/><stop offset="1" stop-color="#02cde7"/></linearGradient><path fill="url(#Z)" d="M602.422 311.432l-2.095 1.209-18.588-11.005 2.096-1.208v-2.418l18.587 11.004v2.418z"/><g transform="translate(1243.296 274.214)" filter="url(#aa)"><path fill="#00F6FF" d="M-659.463 28.631l-2.094-1.209 2.094-1.208 2.096 1.208-2.096 1.209z"/><path fill="#03E2F9" d="M-661.557 27.422v-2.417l2.094-1.209v2.418l-2.094 1.208z"/><path fill="#69E0FF" d="M-659.463 26.214v-2.418l2.096 1.209v2.417l-2.096-1.208z"/></g><path fill="#01E5FB" d="M486.786 257.136l.603-1.044 103.854 59.996a1.81 1.81 0 01-.005 3.135l-95.273 54.661-.599-1.048 95.271-54.66a.6.6 0 00.002-1.043l-103.853-59.997z"/><path opacity=".3" fill="#0D054C" enable-background="new" d="M316.619 402.215l91.722-53.322 129.674 75.375-91.748 53.334c-9.095 5.289-22.854 5.863-30.729 1.282l-101.122-58.802c-7.879-4.582-6.891-12.581 2.203-17.867z"/><path opacity=".3" fill="#0D054C" enable-background="new" d="M335.259 404.199l75.687-44.002 107.005 62.2-75.708 44.012c-7.505 4.362-18.857 4.836-25.358 1.058l-83.445-48.524c-6.5-3.782-5.686-10.38 1.819-14.744z"/><path fill="#01E1FA" d="M517.055 422.397L410.65 360.546l-75.537 43.914c-7.321 4.253-8.101 10.568-1.819 14.223l83.446 48.522c6.4 3.723 17.639 3.251 25.055-1.059l75.26-43.749zM334.81 403.94l75.841-44.091 107.604 62.548-76.157 44.271c-7.595 4.416-19.063 4.895-25.66 1.06l-83.446-48.524c-6.721-3.909-5.869-10.797 1.818-15.264z"/><linearGradient id="ab" gradientUnits="userSpaceOnUse" x1="451.6" y1="34.706" x2="450.97" y2="34.763" gradientTransform="matrix(413.6331 0 0 164.1688 -186354.688 -5276.164)"><stop offset="0" stop-color="#02e8fd" stop-opacity="0"/><stop offset=".378" stop-color="#02e5fd" stop-opacity=".385"/><stop offset="1" stop-color="#01ccfb" stop-opacity="0"/><stop offset="1" stop-color="#01ccfb" stop-opacity="0"/></linearGradient><linearGradient id="ac" gradientUnits="userSpaceOnUse" x1="451.669" y1="34.852" x2="450.906" y2="34.929" gradientTransform="matrix(413.6331 0 0 164.1688 -186354.688 -5276.164)"><stop offset="0" stop-color="#01e4fc" stop-opacity="0"/><stop offset=".351" stop-color="#02ebfc"/><stop offset="1" stop-color="#01e2fb" stop-opacity="0"/></linearGradient><path fill="url(#ab)" stroke="url(#ac)" stroke-width="1.444" d="M104.13 493.809l14.376 3.976 208.601-124.136a15.24 15.24 0 0115.355-.135l99.721 57.001c3.252 1.859 5.666.795 6.758-2.218 1.01-2.785.381-6.102-1.414-7.129l-99.721-57.002a26.012 26.012 0 00-26.204.229L104.128 493.809h.002z"/><linearGradient id="ad" gradientUnits="userSpaceOnUse" x1="450.637" y1="34.889" x2="450.151" y2="35.021" gradientTransform="matrix(314.882 0 0 138.2866 -141556.813 -4400.54)"><stop offset="0" stop-color="#11d1ff"/><stop offset="1" stop-color="#4fdcff" stop-opacity="0"/></linearGradient><path fill="url(#ad)" d="M137.269 494.139l-.604-1.043 196.372-113.747a4.821 4.821 0 014.759-.043l61.728 34.301-.586 1.053-61.726-34.3a3.62 3.62 0 00-3.57.031L137.269 494.139z"/><g transform="translate(875.312 390.014)" filter="url(#ae)"><path fill="#00F6FF" d="M-598.704 9.56l-2.094-1.209 2.094-1.209 2.095 1.21-2.095 1.208z"/><path fill="#03E2F9" d="M-596.609 8.352l-2.095-1.21V4.724l2.095 1.21v2.418z"/><path fill="#69E0FF" d="M-598.704 7.142l-2.094 1.21V5.934l2.094-1.21v2.418z"/></g><g transform="translate(982.48 370.36)" filter="url(#af)"><path fill="#00F6FF" d="M-616.409 12.81l-2.095-1.211 2.095-1.208 2.094 1.208-2.094 1.211z"/><path fill="#03E2F9" d="M-614.315 11.599l-2.094-1.208v-2.42l2.094 1.21v2.418z"/><path fill="#69E0FF" d="M-616.409 10.391l-2.095 1.208V9.181l2.095-1.21v2.42z"/></g><linearGradient id="ag" gradientUnits="userSpaceOnUse" x1="410.782" y1="45.846" x2="411.533" y2="45.515" gradientTransform="matrix(24.775 0 0 17.527 -9885.078 -416.897)"><stop offset="0" stop-color="#00f6ff" stop-opacity="0"/><stop offset="1" stop-color="#02cde7"/></linearGradient><path fill="url(#ag)" d="M287.564 390.923v-2.418l18.587-11.003v2.417l2.095 1.21-18.587 11.004-1.552-.895-.543-.315z"/><g transform="translate(910.701 369.484)" filter="url(#ah)"><path fill="#00F6FF" d="M-604.55 12.853l-2.095-1.208 2.095-1.21 2.094 1.21-2.094 1.208z"/><path fill="#03E2F9" d="M-602.456 11.645l-2.094-1.21V8.018l2.094 1.207v2.42z"/><path fill="#69E0FF" d="M-604.55 10.435l-2.095 1.21v-2.42l2.095-1.207v2.417z"/></g><g transform="translate(729.029 307.169)"><circle opacity=".15" fill="#03E1F9" enable-background="new" cx="-289.322" cy="-40.358" r="6.394"/><circle fill="#03E1F9" cx="-289.322" cy="-40.358" r="1.33"/><circle opacity=".3" fill="#03E1F9" enable-background="new" cx="-289.322" cy="-40.358" r="3.723"/><linearGradient id="ai" gradientUnits="userSpaceOnUse" x1="-1475.161" y1="37.192" x2="-1475.161" y2="38.186" gradientTransform="matrix(1.594 0 0 33.461 2062.085 -1311.823)"><stop offset="0" stop-color="#04f1fc" stop-opacity="0"/><stop offset="1" stop-color="#03e1f9"/></linearGradient><path fill="url(#ai)" d="M-289.987-68.624h1.329v27.932h-1.329v-27.932z"/></g><g transform="translate(729.029 307.169)"><circle opacity=".15" fill="#03E1F9" enable-background="new" cx="-180.102" cy="94.951" r="6.394"/><circle fill="#03E1F9" cx="-180.102" cy="94.951" r="1.33"/><circle opacity=".3" fill="#03E1F9" enable-background="new" cx="-180.102" cy="94.951" r="3.723"/><linearGradient id="aj" gradientUnits="userSpaceOnUse" x1="-1406.642" y1="41.235" x2="-1406.642" y2="42.23" gradientTransform="matrix(1.594 0 0 33.461 2062.085 -1311.823)"><stop offset="0" stop-color="#04f1fc" stop-opacity="0"/><stop offset="1" stop-color="#03e1f9"/></linearGradient><path fill="url(#aj)" d="M-180.767 66.685h1.331v27.933h-1.331V66.685z"/></g><g transform="translate(729.029 307.169)"><circle opacity=".15" fill="#03E1F9" enable-background="new" cx="-144.284" cy="159.589" r="6.394"/><circle fill="#03E1F9" cx="-144.284" cy="159.589" r="1.33"/><circle opacity=".3" fill="#03E1F9" enable-background="new" cx="-144.284" cy="159.589" r="3.723"/><linearGradient id="ak" gradientUnits="userSpaceOnUse" x1="-1384.171" y1="43.168" x2="-1384.171" y2="44.161" gradientTransform="matrix(1.594 0 0 33.461 2062.085 -1311.823)"><stop offset="0" stop-color="#04f1fc" stop-opacity="0"/><stop offset="1" stop-color="#03e1f9"/></linearGradient><path fill="url(#ak)" d="M-144.948 131.324h1.329v27.933h-1.329v-27.933z"/></g><g transform="translate(864.151 415.949)"><circle opacity=".15" fill="#03E1F9" enable-background="new" cx="-592.302" cy="28.938" r="6.394"/><circle fill="#03E1F9" cx="-592.302" cy="28.938" r="1.33"/><circle opacity=".3" fill="#03E1F9" enable-background="new" cx="-592.302" cy="28.938" r="3.723"/><linearGradient id="al" gradientUnits="userSpaceOnUse" x1="-1935.481" y1="39.263" x2="-1935.481" y2="40.259" gradientTransform="matrix(1.594 0 0 33.461 2492.854 -1311.81)"><stop offset="0" stop-color="#04f1fc" stop-opacity="0"/><stop offset="1" stop-color="#03e1f9"/></linearGradient><path fill="url(#al)" d="M-592.967.672h1.33v27.933h-1.33V.672z"/></g><g transform="translate(1038.25 97.403)"><circle opacity=".15" fill="#03E1F9" enable-background="new" cx="-621.067" cy="81.567" r="6.394"/><circle fill="#03E1F9" cx="-621.067" cy="81.567" r="1.33"/><circle opacity=".3" fill="#03E1F9" enable-background="new" cx="-621.067" cy="81.567" r="3.723"/><linearGradient id="am" gradientUnits="userSpaceOnUse" x1="-2301.724" y1="40.837" x2="-2301.724" y2="41.831" gradientTransform="matrix(1.594 0 0 33.461 3047.882 -1311.788)"><stop offset="0" stop-color="#04f1fc" stop-opacity="0"/><stop offset="1" stop-color="#03e1f9"/></linearGradient><path fill="url(#am)" d="M-621.731 53.302h1.33v27.933h-1.33V53.302z"/></g><g transform="translate(777.54 97.976)"><circle opacity=".15" fill="#03E1F9" enable-background="new" cx="-577.993" cy="81.472" r="6.393"/><circle fill="#03E1F9" cx="-577.993" cy="81.472" r="1.33"/><circle opacity=".3" fill="#03E1F9" enable-background="new" cx="-577.993" cy="81.473" r="3.723"/><linearGradient id="an" gradientUnits="userSpaceOnUse" x1="-1753.282" y1="40.834" x2="-1753.282" y2="41.828" gradientTransform="matrix(1.594 0 0 33.461 2216.738 -1311.812)"><stop offset="0" stop-color="#04f1fc" stop-opacity="0"/><stop offset="1" stop-color="#03e1f9"/></linearGradient><path fill="url(#an)" d="M-578.658 53.207h1.33V81.14h-1.33V53.207z"/></g><g transform="translate(960.899 283.048)"><circle opacity=".15" fill="#03E1F9" enable-background="new" cx="-608.287" cy="50.896" r="6.393"/><circle fill="#03E1F9" cx="-608.287" cy="50.895" r="1.33"/><circle opacity=".3" fill="#03E1F9" enable-background="new" cx="-608.287" cy="50.896" r="3.724"/><linearGradient id="ao" gradientUnits="userSpaceOnUse" x1="-2139.004" y1="39.921" x2="-2139.004" y2="40.915" gradientTransform="matrix(1.594 0 0 33.461 2801.287 -1311.816)"><stop offset="0" stop-color="#04f1fc" stop-opacity="0"/><stop offset="1" stop-color="#03e1f9"/></linearGradient><path fill="url(#ao)" d="M-608.952 22.63h1.33v27.934h-1.33V22.63z"/></g><g transform="translate(960.899 283.048)"><circle opacity=".15" fill="#03E1F9" enable-background="new" cx="-733.301" cy="66.688" r="6.393"/><circle fill="#03E1F9" cx="-733.301" cy="66.688" r="1.33"/><circle opacity=".3" fill="#03E1F9" enable-background="new" cx="-733.301" cy="66.688" r="3.723"/><linearGradient id="ap" gradientUnits="userSpaceOnUse" x1="-2217.433" y1="40.392" x2="-2217.433" y2="41.387" gradientTransform="matrix(1.594 0 0 33.461 2801.287 -1311.816)"><stop offset="0" stop-color="#04f1fc" stop-opacity="0"/><stop offset="1" stop-color="#03e1f9"/></linearGradient><path fill="url(#ap)" d="M-733.966 38.423h1.33v27.933h-1.33V38.423z"/></g><path fill="#5C7AD7" d="M431.816 462.498l-88.236-51.182c-.911-.528-1.357-1.234-1.362-1.977l-.004-1.641h.006c.048.698.494 1.361 1.36 1.863l88.236 51.182c2.023 1.175 5.561 1.026 7.896-.329v1.755c-2.337 1.356-5.872 1.504-7.896.329z"/><path fill="#5C7AD7" d="M497.414 427.027c1.186-.691 1.831-1.563 1.918-2.409l.001 1.403c.011.114.013.229 0 .342v.027c-.092.843-.739 1.709-1.919 2.398l-57.707 33.386v-1.764l57.707-33.383z"/><linearGradient id="aq" gradientUnits="userSpaceOnUse" x1="447.319" y1="35.727" x2="445.5" y2="36.114" gradientTransform="matrix(145.1421 0 0 84.4489 -64375.973 -2608.938)"><stop offset="0" stop-color="#fff"/><stop offset="1" stop-color="#486bd7"/></linearGradient><path fill="url(#aq)" d="M344.151 404.909l23.609-13.727 95.616 55.54-23.509 13.83c-2.341 1.36-5.882 1.51-7.91.332l-88.375-51.377c-2.027-1.179-1.773-3.237.569-4.598z"/><path fill="#0B0F89" d="M381.107 423.751l18.601-10.814 26.3 15.287L407.4 439.04c-1.845 1.072-4.635 1.188-6.231.26l-20.508-11.925c-1.598-.93-1.398-2.553.446-3.624z"/><path fill="#4C6BCB" d="M395.507 439.124c.387.222.388.581.004.802l-15.828-9.1c.385-.222 1.01-.22 1.396.003l14.428 8.295z"/><path fill="#5C7AD7" d="M490.262 418.979l-74.722-43.317 1.021-.592 74.723 43.317-1.022.592z"/><linearGradient id="ar" gradientUnits="userSpaceOnUse" x1="447.881" y1="35.575" x2="446.061" y2="35.96" gradientTransform="matrix(157.82 0 0 91.686 -70091.797 -2872.848)"><stop offset="0" stop-color="#fff"/><stop offset="1" stop-color="#486bd7"/></linearGradient><path fill="url(#ar)" d="M497.407 426.896l-34.216 19.878-95.595-55.533 34.221-19.88c1.279-.742 2.916-1.122 4.47-1.122 1.279 0 2.502.259 3.418.786l.013.009 6.815 3.958-1.021.592 74.626 43.359 1.021-.595 6.816 3.96c.916.532 1.367 1.248 1.367 1.993 0 .902-.657 1.854-1.935 2.597v-.002z"/><path fill="#0B0F89" d="M483.602 429.702a1.154 1.154 0 01-.593.153.891.891 0 01-.453-.108l-4.387-2.631c-.269-.163-.233-.443.075-.628l4.203-2.521c.168-.102.387-.154.591-.154.172 0 .334.035.455.108l4.386 2.633c.269.161.235.441-.075.627l-4.202 2.521zm-6.044-3.625a1.19 1.19 0 01-.592.153.888.888 0 01-.454-.11l-4.387-2.631c-.268-.16-.235-.44.075-.627l4.202-2.521c.17-.102.388-.153.592-.153.171 0 .335.035.455.109l4.386 2.631c.269.161.236.441-.075.628l-4.202 2.521zm-6.043-3.223c-.18.102-.385.155-.593.153a.904.904 0 01-.453-.108l-4.387-2.632c-.269-.161-.233-.442.076-.628l4.201-2.521c.169-.102.388-.154.594-.154a.9.9 0 01.454.109l4.385 2.63c.268.162.235.442-.075.629l-4.202 2.522zm-6.044-3.625c-.18.103-.385.156-.591.153a.92.92 0 01-.455-.107l-4.386-2.632c-.269-.162-.234-.442.074-.627l4.203-2.521c.168-.104.387-.155.591-.155.171 0 .335.036.455.109l4.386 2.632c.268.161.235.441-.075.627l-4.202 2.521zm23.841 6.845c-.184.104-.39.157-.601.156a.897.897 0 01-.459-.111l-4.44-2.662c-.271-.164-.237-.447.075-.635l2.116-1.271c.171-.104.392-.155.599-.155.173 0 .337.036.46.11l4.442 2.662c.271.164.235.448-.077.638l-2.115 1.268zm-6.043-3.222c-.184.104-.39.158-.6.156a.905.905 0 01-.46-.11l-4.44-2.664c-.271-.163-.237-.447.076-.636l2.115-1.269c.182-.104.389-.158.599-.156.173 0 .337.036.461.11l4.44 2.664c.271.163.237.447-.076.636l-2.115 1.269zm-5.642-3.626a1.184 1.184 0 01-.598.156.903.903 0 01-.46-.11l-4.441-2.664c-.271-.163-.238-.447.077-.635l2.113-1.27a1.2 1.2 0 01.601-.154.92.92 0 01.459.108l4.441 2.665c.271.163.237.445-.075.635l-2.117 1.269zm-6.042-3.625c-.184.104-.39.158-.6.156a.897.897 0 01-.459-.111l-4.441-2.663c-.272-.164-.237-.447.075-.636l2.116-1.269c.183-.104.389-.158.599-.156.172 0 .338.037.46.109l4.44 2.664c.271.164.238.448-.075.635l-2.115 1.269v.002zm-12.157.003a1.18 1.18 0 01-.592.153.903.903 0 01-.454-.109l-4.387-2.632c-.267-.16-.233-.441.076-.628l4.203-2.521c.167-.102.386-.153.592-.153.169 0 .332.037.453.11l4.387 2.632c.268.159.232.44-.076.628l-4.202 2.52zm-6.044-3.223a1.18 1.18 0 01-.592.153.898.898 0 01-.454-.109l-4.387-2.632c-.267-.162-.234-.442.076-.627l4.201-2.521c.171-.102.388-.154.593-.154.17 0 .335.036.455.109l4.385 2.63c.269.162.235.443-.074.629l-4.203 2.522zm-5.64-3.627a1.16 1.16 0 01-.592.154.899.899 0 01-.453-.108l-4.387-2.631c-.269-.163-.235-.442.074-.628l4.203-2.521c.169-.103.386-.154.591-.154.17 0 .334.036.454.109l4.387 2.631c.269.16.235.442-.074.628l-4.203 2.52zm-6.043-3.625a1.183 1.183 0 01-.592.153.916.916 0 01-.456-.108l-4.385-2.632c-.269-.16-.236-.441.075-.628l4.202-2.521c.17-.101.386-.152.593-.152.169 0 .332.036.453.107l4.386 2.633c.269.161.236.44-.075.629l-4.201 2.519zm-6.137-3.33a1.148 1.148 0 01-.592.153.895.895 0 01-.454-.107l-4.387-2.632c-.267-.162-.233-.442.074-.628l4.203-2.521c.171-.103.388-.155.594-.155a.9.9 0 01.454.109l4.387 2.631c.266.163.232.444-.076.629l-4.203 2.521zm-5.95-3.519a1.173 1.173 0 01-.592.154.896.896 0 01-.454-.108l-4.387-2.633c-.268-.16-.235-.441.074-.628l4.203-2.521c.169-.102.387-.151.594-.151a.9.9 0 01.452.107l4.388 2.631c.267.162.233.441-.076.628l-4.202 2.521zm-6.044-3.222a1.186 1.186 0 01-.592.154.899.899 0 01-.453-.109l-4.388-2.63c-.268-.162-.233-.442.075-.628l4.202-2.522c.169-.103.386-.154.593-.154.169 0 .332.037.455.109l4.385 2.632c.269.163.235.443-.075.628l-4.202 2.52zm-6.043-3.626a1.173 1.173 0 01-.591.155.896.896 0 01-.455-.109l-4.386-2.632c-.269-.16-.234-.441.074-.628l4.202-2.521c.169-.102.388-.153.594-.153.169 0 .332.036.453.107l4.386 2.632c.269.162.234.441-.074.63l-4.203 2.519zm-5.639-3.624a1.159 1.159 0 01-.593.153.92.92 0 01-.455-.107l-4.385-2.635c-.269-.16-.235-.44.074-.627l4.203-2.521c.17-.102.386-.153.592-.153.17 0 .332.036.453.108l4.387 2.634c.269.16.235.44-.075.626l-4.201 2.522zm-6.092-3.224a1.209 1.209 0 01-.599.153.92.92 0 01-.459-.108l-7.146-4.242c-.271-.161-.237-.441.076-.628l4.249-2.521a1.19 1.19 0 01.599-.153c.17 0 .335.035.459.107l7.146 4.243c.27.16.235.44-.077.628l-4.248 2.521zm59.744 27.794a1.198 1.198 0 01-.599.156.914.914 0 01-.459-.109l-4.441-2.665c-.271-.163-.237-.447.075-.635l2.116-1.269c.184-.104.389-.158.599-.157.172 0 .338.037.461.111l4.44 2.663c.271.163.236.447-.076.636l-2.116 1.269zm-6.042-3.625c-.184.103-.39.157-.6.155a.926.926 0 01-.46-.108l-4.44-2.666c-.271-.163-.237-.447.075-.635l2.116-1.27c.183-.104.389-.157.6-.154.173 0 .337.034.459.108l4.441 2.663c.271.165.237.447-.075.638l-2.116 1.269zm-6.044-3.223c-.184.104-.39.158-.599.156a.917.917 0 01-.461-.111l-4.44-2.663c-.271-.163-.237-.448.075-.635l2.116-1.27c.184-.104.389-.158.599-.157.172 0 .338.037.46.11l4.441 2.664c.271.162.238.447-.075.636l-2.116 1.27zm-6.043-3.626c-.184.104-.39.157-.6.156a.905.905 0 01-.46-.11l-4.44-2.663c-.272-.163-.237-.448.075-.637l2.115-1.271c.173-.102.393-.153.6-.153.173 0 .338.036.46.11l4.441 2.663c.271.162.237.447-.075.635l-2.116 1.27zm-5.641-3.625c-.184.103-.39.158-.598.155a.924.924 0 01-.461-.108l-4.441-2.665c-.271-.163-.237-.446.077-.636l2.116-1.27c.183-.104.389-.157.597-.156.173 0 .338.038.463.112l4.439 2.661c.271.166.237.448-.076.637l-2.116 1.27zm-6.043-3.221a1.217 1.217 0 01-.599.154.912.912 0 01-.459-.11l-4.442-2.665c-.27-.162-.237-.444.076-.633l2.116-1.271a1.2 1.2 0 01.6-.156c.174 0 .336.036.46.11l4.44 2.665c.271.164.237.446-.077.635l-2.115 1.271zm-6.043-3.628c-.183.105-.39.158-.599.157a.933.933 0 01-.461-.111l-4.441-2.663c-.27-.162-.237-.447.078-.636l2.115-1.27c.17-.103.391-.154.598-.154.173 0 .339.036.461.109l4.441 2.664c.27.163.236.446-.077.635l-2.115 1.269zm-6.044-3.624a1.17 1.17 0 01-.598.155.916.916 0 01-.462-.11l-4.44-2.663c-.271-.163-.235-.448.077-.636l2.115-1.27c.173-.104.391-.156.6-.156a.93.93 0 01.459.11l4.441 2.663c.271.164.237.448-.075.637l-2.117 1.27zm-6.044-3.222a1.19 1.19 0 01-.598.153.905.905 0 01-.46-.11l-4.442-2.663c-.271-.163-.237-.447.078-.635l2.115-1.27a1.18 1.18 0 01.599-.157c.172 0 .338.037.461.11l4.44 2.665c.27.163.236.446-.077.636l-2.115 1.268-.001.003zm-5.663-3.617a1.262 1.262 0 01-.604.146.987.987 0 01-.464-.104l-7.227-4.013c-.272-.152-.239-.417.078-.595l2.135-1.184c.174-.098.395-.147.605-.147a.97.97 0 01.465.103l7.226 4.013c.274.153.24.419-.076.595l-2.138 1.186zm-14.953 5.23a1.193 1.193 0 01-.593.152.896.896 0 01-.455-.109l-4.385-2.632c-.269-.159-.236-.441.075-.626l4.202-2.521c.169-.104.386-.153.592-.153.169 0 .333.035.454.107l4.386 2.631c.269.162.234.443-.075.63l-4.201 2.521zm6.042 3.624c-.18.103-.384.154-.591.153a.885.885 0 01-.454-.109l-4.387-2.631c-.268-.161-.235-.443.075-.628l4.202-2.521c.169-.102.387-.154.593-.154a.89.89 0 01.454.11l4.386 2.632c.27.159.233.441-.075.626l-4.203 2.522zm6.044 3.624c-.18.104-.385.156-.593.154a.91.91 0 01-.454-.107l-4.385-2.633c-.269-.161-.235-.441.074-.626l4.203-2.521c.169-.103.386-.154.592-.154.17 0 .332.036.453.107l4.388 2.631c.268.163.233.443-.075.628l-4.203 2.521zm6.045 3.225a1.202 1.202 0 01-.593.153.906.906 0 01-.455-.108l-4.386-2.632c-.268-.162-.234-.442.075-.626l4.203-2.523a1.18 1.18 0 01.591-.152c.17 0 .333.036.455.109l4.386 2.629c.269.162.233.443-.074.63l-4.202 2.52zm6.043 3.625a1.157 1.157 0 01-.594.153.895.895 0 01-.454-.109l-4.387-2.63c-.268-.162-.234-.442.077-.627l4.202-2.521c.169-.103.385-.154.592-.154.169 0 .333.035.453.108l4.387 2.632c.269.16.236.442-.076.628l-4.2 2.52zm11.683 6.849a1.195 1.195 0 01-.593.154.895.895 0 01-.453-.109l-4.388-2.631c-.267-.161-.233-.442.075-.628l4.203-2.521c.169-.102.386-.154.592-.154.171 0 .335.038.455.11l4.386 2.63c.269.161.234.442-.075.627l-4.202 2.522zm6.043 3.624a1.17 1.17 0 01-.592.155.881.881 0 01-.453-.11l-4.387-2.63c-.269-.162-.234-.442.075-.627l4.202-2.521a1.16 1.16 0 01.592-.155c.171 0 .332.036.455.109l4.385 2.632c.27.16.235.442-.074.627l-4.203 2.52zm6.045 3.224a1.165 1.165 0 01-.593.152.915.915 0 01-.454-.107l-4.387-2.634c-.269-.16-.235-.44.075-.628l4.203-2.519c.169-.104.386-.153.591-.153a.89.89 0 01.454.107l4.387 2.632c.268.161.235.442-.075.627l-4.201 2.523zm6.043 3.625a1.176 1.176 0 01-.593.153.896.896 0 01-.453-.108l-4.387-2.632c-.268-.16-.233-.44.075-.627l4.202-2.521c.17-.102.386-.153.592-.153.171 0 .335.037.455.107l4.388 2.634c.267.16.233.44-.076.627l-4.203 2.52zm6.043 3.625a1.157 1.157 0 01-.593.154.895.895 0 01-.453-.108l-4.388-2.631c-.268-.163-.234-.443.075-.628l4.203-2.521c.168-.103.387-.154.592-.154.171 0 .333.036.454.108l4.386 2.632c.269.16.236.441-.074.627l-4.202 2.521zm5.64 3.223a1.154 1.154 0 01-.593.153.922.922 0 01-.455-.107l-4.386-2.632c-.266-.161-.233-.442.076-.628l4.201-2.521c.17-.103.388-.155.593-.155a.9.9 0 01.455.11l4.386 2.63c.269.162.234.443-.076.629l-4.201 2.521zm6.044 3.626a1.178 1.178 0 01-.594.154.878.878 0 01-.454-.11l-4.386-2.63c-.268-.161-.234-.443.075-.628l4.203-2.521c.169-.102.386-.153.591-.153.171 0 .333.036.454.109l4.388 2.632c.267.16.232.44-.076.627l-4.201 2.52zm8.815 4.834a1.18 1.18 0 01-.599.153.895.895 0 01-.458-.108l-7.146-4.24c-.271-.162-.238-.442.075-.63l4.249-2.521c.171-.102.391-.153.598-.153.172 0 .337.037.459.108l7.146 4.242c.271.162.237.442-.076.628l-4.248 2.521zm-82.187-40.685c-.172.102-.39.15-.599.15a.918.918 0 01-.46-.106l-8.758-5.108c-.271-.159-.238-.434.074-.617l4.248-2.476c.17-.101.39-.151.597-.151.173 0 .337.036.459.105l8.76 5.11c.271.158.237.434-.075.618l-4.246 2.475zm76.147 44.313a1.204 1.204 0 01-.599.151.938.938 0 01-.457-.105l-8.761-5.11c-.271-.158-.239-.434.076-.616l4.246-2.478c.184-.101.389-.153.597-.149.172 0 .337.034.459.106l8.76 5.109c.271.157.236.433-.075.616l-4.246 2.476zm-70.059-40.689a1.172 1.172 0 01-.592.153.895.895 0 01-.454-.109l-4.387-2.631c-.268-.161-.233-.441.074-.628l4.204-2.521c.169-.102.387-.154.593-.154.17 0 .33.037.454.109l4.387 2.631c.266.16.233.441-.076.628l-4.203 2.522zm6.044 3.222c-.18.103-.383.155-.592.154a.895.895 0 01-.454-.109l-4.387-2.632c-.268-.159-.234-.442.075-.627l4.202-2.521c.17-.102.386-.153.592-.153.17 0 .334.037.453.109l4.388 2.631c.268.161.234.443-.074.628l-4.203 2.52zm6.044 3.626a1.166 1.166 0 01-.593.153.907.907 0 01-.454-.107l-4.386-2.633c-.269-.161-.234-.441.074-.628l4.203-2.52c.168-.104.386-.156.591-.156.172 0 .335.037.454.11l4.387 2.631c.269.162.235.443-.075.628l-4.201 2.522zm5.789 3.463a1.17 1.17 0 01-.593.152.896.896 0 01-.453-.108l-4.386-2.631c-.269-.161-.236-.441.075-.628l4.202-2.521a1.17 1.17 0 01.592-.152c.171 0 .334.035.453.108l4.387 2.632c.27.16.236.44-.075.627l-4.202 2.521zm5.893 3.386c-.18.102-.383.154-.591.153a.92.92 0 01-.454-.107l-4.386-2.633c-.269-.161-.234-.441.075-.628l4.203-2.521c.169-.101.386-.152.592-.152.17 0 .332.035.454.108l4.386 2.632c.268.159.234.442-.074.627l-4.205 2.521zm6.046 3.627a1.188 1.188 0 01-.594.151.887.887 0 01-.454-.108l-4.385-2.632c-.269-.161-.236-.441.074-.626l4.203-2.522c.17-.101.386-.153.592-.153a.89.89 0 01.454.108l4.387 2.631c.268.162.233.443-.074.628l-4.203 2.521v.002zm6.044 3.625a1.186 1.186 0 01-.594.152.898.898 0 01-.454-.109l-4.385-2.631c-.269-.161-.235-.441.074-.629l4.203-2.521c.169-.102.386-.153.592-.153.17 0 .332.036.453.109l4.387 2.631c.269.161.234.441-.076.628l-4.2 2.523zm6.041 3.222a1.19 1.19 0 01-.592.152.912.912 0 01-.453-.107l-4.386-2.633c-.269-.16-.235-.441.074-.628l4.201-2.521a1.19 1.19 0 01.594-.154c.169 0 .334.037.455.109l4.386 2.632c.269.162.233.442-.074.627l-4.205 2.523zm6.042 3.623c-.18.104-.383.157-.591.154a.9.9 0 01-.454-.107l-4.387-2.632c-.267-.162-.233-.441.074-.628l4.203-2.521c.17-.102.388-.156.593-.156.17 0 .334.037.454.112l4.387 2.63c.269.161.234.442-.074.626l-4.205 2.522zm6.044 3.225a1.17 1.17 0 01-.593.153.91.91 0 01-.453-.108l-4.386-2.633c-.27-.161-.234-.441.075-.628l4.203-2.521c.169-.102.386-.153.591-.153.17 0 .334.036.454.108l4.387 2.633c.268.159.234.44-.076.626l-4.202 2.523zm5.642 3.625c-.18.104-.385.156-.593.153a.906.906 0 01-.453-.107l-4.387-2.632c-.269-.162-.235-.442.075-.629l4.202-2.52c.169-.103.386-.155.594-.155a.89.89 0 01.452.109l4.387 2.632c.268.162.234.442-.075.628l-4.202 2.521zm-68.498-33.029c-.181.1-.384.151-.592.15a.909.909 0 01-.455-.107l-11.631-6.761c-.268-.156-.234-.43.076-.608l4.207-2.446c.168-.1.387-.148.593-.148.171 0 .333.034.456.103l11.63 6.764c.269.155.234.429-.076.608l-4.208 2.445zm6.049 3.623c-.18.102-.384.154-.592.152a.897.897 0 01-.454-.108l-4.385-2.632c-.268-.161-.235-.442.074-.627l4.201-2.521c.169-.103.388-.153.594-.153.17 0 .332.035.454.108l4.386 2.632c.269.161.234.44-.076.628l-4.202 2.521zm6.045 3.221a1.164 1.164 0 01-.593.154.898.898 0 01-.454-.11l-4.385-2.631c-.27-.16-.235-.44.074-.627l4.201-2.521c.17-.102.389-.153.593-.153.17 0 .333.036.455.108l4.387 2.632c.266.161.233.442-.075.627l-4.203 2.521zm5.639 3.625a1.15 1.15 0 01-.592.153.905.905 0 01-.454-.107l-4.387-2.631c-.269-.163-.235-.443.076-.628l4.202-2.521a1.16 1.16 0 01.591-.153c.17 0 .332.037.454.107l4.387 2.632c.268.161.235.441-.074.628l-4.203 2.52zm6.044 3.626a1.184 1.184 0 01-.592.154.906.906 0 01-.455-.107l-4.386-2.633c-.269-.161-.235-.443.074-.628l4.203-2.521a1.18 1.18 0 01.592-.153c.171 0 .333.036.454.109l4.387 2.632c.268.16.235.441-.075.627l-4.202 2.52zm6.044 3.223a1.187 1.187 0 01-.593.154.903.903 0 01-.454-.109l-4.387-2.632c-.269-.161-.235-.44.075-.629l4.202-2.52a1.16 1.16 0 01.591-.153c.171 0 .334.035.455.109l4.386 2.63c.27.161.234.441-.074.628l-4.201 2.522zm6.042 3.625a1.17 1.17 0 01-.592.155.884.884 0 01-.453-.11l-4.388-2.63c-.268-.162-.234-.442.075-.628l4.202-2.521c.17-.102.388-.153.593-.153.17 0 .333.036.454.107l4.387 2.633c.268.16.233.441-.075.627l-4.203 2.52zm6.044 3.223a1.162 1.162 0 01-.592.153.89.89 0 01-.454-.107l-4.389-2.632c-.266-.162-.233-.442.076-.627l4.203-2.521c.168-.103.386-.154.592-.154a.88.88 0 01.454.109l4.387 2.63c.268.161.233.441-.075.628l-4.202 2.521zm6.043 3.626c-.18.102-.384.154-.593.152a.913.913 0 01-.454-.108l-4.385-2.632c-.269-.161-.235-.441.074-.628l4.202-2.521c.17-.101.388-.152.593-.152.17 0 .332.035.453.109l4.387 2.631c.269.16.234.44-.075.628l-4.202 2.521zm5.641 3.626a1.202 1.202 0 01-.593.153.889.889 0 01-.453-.109l-4.387-2.632c-.269-.159-.234-.441.076-.627l4.201-2.521c.171-.102.387-.153.593-.153.17 0 .333.036.454.107l4.387 2.635c.268.159.234.439-.076.627l-4.202 2.52zm6.043 3.223c-.18.102-.385.155-.593.153a.896.896 0 01-.453-.109l-4.387-2.631c-.268-.161-.234-.442.075-.629l4.202-2.52c.169-.103.386-.154.592-.154a.9.9 0 01.456.109l4.385 2.629c.268.163.234.443-.075.628l-4.202 2.521v.003zm13.301 7.658a1.216 1.216 0 01-.591.147.92.92 0 01-.454-.105l-11.646-6.77c-.268-.155-.233-.428.075-.606l4.198-2.441c.168-.097.387-.148.591-.148.171 0 .332.036.455.105l11.646 6.771c.266.155.233.428-.077.607l-4.197 2.44zm-31.085-11.28c-.185.1-.391.15-.6.148a.943.943 0 01-.459-.105l-28.488-16.419c-.271-.157-.237-.43.077-.61l4.257-2.455a1.23 1.23 0 01.598-.148c.173 0 .339.034.462.105l28.484 16.42c.273.155.239.429-.074.609l-4.257 2.455zm-37.009-21.354c-.18.102-.385.155-.593.154a.92.92 0 01-.454-.109l-4.386-2.632c-.267-.16-.233-.441.076-.628l4.201-2.521c.169-.102.387-.154.591-.154.172 0 .335.038.456.11l4.385 2.63c.27.161.236.442-.074.627l-4.202 2.523zm7.159 4.275c-.18.104-.383.156-.589.155a.87.87 0 01-.45-.11l-5.639-3.422c-.267-.162-.233-.444.075-.631l4.171-2.531c.168-.102.382-.155.586-.155.169 0 .331.037.45.11l5.64 3.422c.267.161.234.444-.073.63l-4.171 2.532zm43.202 25.131a1.17 1.17 0 01-.592.154.874.874 0 01-.453-.109l-4.387-2.631c-.269-.161-.235-.441.074-.628l4.203-2.521c.169-.102.386-.153.592-.153.169 0 .332.036.453.109l4.387 2.632c.269.16.235.44-.074.627l-4.203 2.52zm-6.011-3.625c-.179.103-.38.156-.586.152a.882.882 0 01-.45-.107l-5.64-3.423c-.266-.162-.233-.443.076-.631l4.169-2.531c.179-.103.382-.155.589-.154.168 0 .329.036.45.109l5.638 3.423c.268.161.234.443-.075.63l-4.171 2.532zm-62.48-36.255a1.19 1.19 0 01-.592.153.902.902 0 01-.454-.108l-4.386-2.632c-.268-.162-.235-.442.074-.628l4.204-2.521c.169-.102.385-.153.592-.153.169 0 .331.036.453.109l4.387 2.629c.269.162.235.443-.075.63l-4.203 2.521zm6.045 3.625a1.182 1.182 0 01-.594.153.898.898 0 01-.454-.109l-4.386-2.63c-.268-.162-.235-.442.076-.627l4.201-2.523c.171-.101.387-.153.594-.153.169 0 .332.036.453.109l4.387 2.632c.268.16.234.442-.077.628l-4.2 2.52zm6.041 3.224a1.17 1.17 0 01-.592.153.912.912 0 01-.453-.108l-4.388-2.634c-.267-.159-.233-.441.075-.628l4.203-2.521c.168-.102.387-.153.592-.153.17 0 .334.037.454.108l4.386 2.633c.269.16.235.442-.074.628l-4.203 2.522zm68.474 39.884c-.182.1-.387.151-.594.148a.928.928 0 01-.456-.104l-10.407-5.983c-.269-.154-.235-.425.076-.605l4.219-2.426a1.25 1.25 0 01.595-.146c.172 0 .334.034.455.104l10.408 5.983c.269.155.234.425-.075.604l-4.221 2.425zm-32.853-39.722c-.18.103-.385.155-.594.153a.911.911 0 01-.453-.107l-4.385-2.632c-.269-.161-.235-.442.074-.627l4.203-2.521c.168-.103.386-.154.592-.154.169 0 .333.035.454.108l4.386 2.632c.269.162.236.442-.075.627l-4.202 2.521z"/><path fill="#5C7AD7" d="M501.604 352.375c0-3.779-1.225-5.616-3.66-7.054l-88.102-51.31c-.9-.524-1.724-.71-2.361-.453 0 0 .852-.512.988-.563.634-.241 1.447-.051 2.334.466l88.102 51.309c2.435 1.438 3.66 3.274 3.66 7.054v67.206c0 1.807-.493 2.823-1.272 3.18l-.692.396c.62-.455 1.004-1.432 1.004-3.024v-67.207h-.001z"/><path fill="#5C7AD7" d="M501.758 352.667l.807-.56v67.118l-.807.56v-67.118z"/><path fill="#0F0A5E" d="M498.096 422.469l-88.159-51.247c-2.213-1.278-3.663-2.659-3.663-7.046v-67.124c0-3.443 1.64-3.963 3.663-2.789l88.159 51.247c2.438 1.438 3.662 3.271 3.662 7.047v67.123c0 3.293-1.639 3.966-3.662 2.789z"/><linearGradient id="as" gradientUnits="userSpaceOnUse" x1="444.514" y1="34.572" x2="442.857" y2="36.163" gradientTransform="matrix(113.418 0 0 153.9386 -49919.809 -5018.367)"><stop offset="0" stop-color="#fff"/><stop offset="1" stop-color="#486bd7"/></linearGradient><path fill="url(#as)" d="M498.389 346.142c1.636.953 2.968 3.264 2.968 5.155v69.195c0 1.89-1.332 2.655-2.968 1.703l-88.746-51.632c-1.635-.951-2.966-3.265-2.966-5.157v-69.193c0-1.892 1.331-2.657 2.966-1.705l88.746 51.634z"/><path fill="#0B0F89" d="M497.729 349.948v64.6L409.9 363.531v-64.598l87.829 51.015z"/><linearGradient id="at" gradientUnits="userSpaceOnUse" x1="430.583" y1="37.931" x2="430.862" y2="37.072" gradientTransform="matrix(47.167 0 0 52.9421 -19864.03 -1638.492)"><stop offset="0" stop-color="#7cf1ff"/><stop offset="1" stop-color="#01b8ff"/></linearGradient><path fill="url(#at)" d="M429.663 345.423c0 10.873 8.812 24.176 19.687 29.717 10.872 5.538 19.688 1.218 19.688-9.654 0-10.87-8.815-24.177-19.688-29.716-10.875-5.541-19.687-1.217-19.687 9.653zm1.416.626c0-2.64.565-4.857 1.567-6.612l8.631 28.189c-6.036-6.022-10.198-14.373-10.198-21.579v.002zm18.392 27.734c-1.763-.896-3.468-2.028-5.078-3.33l5.395-13.218 5.525 18.236c.036.111.08.213.127.315-1.867-.279-3.877-.935-5.969-2.003zm14.655-11.085c1.041-2.055 1.389-3.944 1.389-5.783 0-.669-.045-1.309-.126-1.928 1.424 3.309 2.232 6.682 2.232 9.833 0 6.686-3.645 10.666-9.064 11.043l5.569-13.165zm-3.957-7.706c.69 1.566 1.499 3.541 1.499 5.797 0 1.563-.462 3.291-1.384 5.195l-1.813 5.152-6.574-22.961c.688.312 1.38.606 2.081.887.98.383.863-1.119-.114-1.563 0 0-2.947-1.271-4.849-2.239-1.787-.909-4.789-2.672-4.789-2.672-.98-.554-1.095.891-.118 1.445 0 0 .931.589 1.911 1.147l2.832 9.233-3.979 9.945-6.625-23.138c1.097.498 2.082.887 2.082.887.981.383.861-1.121-.116-1.564 0 0-2.943-1.269-4.85-2.237a54.308 54.308 0 01-1.168-.617c3.254-3.296 8.844-3.72 15.195-.483 4.735 2.411 9.048 6.427 12.281 11.051-.078-.046-.156-.095-.233-.135-1.792-.913-3.056.003-3.056 1.679.001 1.506.866 3.22 1.787 5.191z"/><linearGradient id="au" gradientUnits="userSpaceOnUse" x1="438.425" y1="35.774" x2="439.545" y2="35.774" gradientTransform="matrix(75.5642 0 0 107.8558 -32601.271 -3629.344)"><stop offset="0" stop-color="#1a22be"/><stop offset=".637" stop-color="#0b0d7e"/><stop offset="1" stop-color="#1a22be"/></linearGradient><path fill="url(#au)" d="M604.396 195.521v65.487c.049.217.033.455-.054.671a.894.894 0 01-.37.448l-19.709 11.608a3.167 3.167 0 01-3.267 0l-39.202-22.976c-.247-.145-.405-.424-.442-.729h-.009v-65.877l63.053 11.368z"/><path fill="#0B0F89" d="M548.353 244.563a.981.981 0 01.552.882v5.56a.328.328 0 01-.471.294l-1.023-.5a.984.984 0 01-.552-.883v-5.558a.328.328 0 01.473-.295l1.021.5zm-3.163-1.742c.337.165.55.507.55.883v5.559a.326.326 0 01-.471.293l-1.023-.5a.98.98 0 01-.551-.881v-5.559a.327.327 0 01.472-.295l1.023.5z"/><linearGradient id="av" gradientUnits="userSpaceOnUse" x1="413.905" y1="36.005" x2="413.797" y2="35.867" gradientTransform="matrix(28.0622 0 0 95.8328 -11023.592 -3220.773)"><stop offset="0" stop-color="#0f0856"/><stop offset="1" stop-color="#0b0f89"/></linearGradient><path fill="url(#av)" d="M604.321 195.397v65.488c.048.217.034.454-.053.671a.892.892 0 01-.371.448l-19.709 11.609a3.172 3.172 0 01-3.267 0v-79.545l23.4 1.329z"/><path fill="#0B0F89" d="M564.769 171.803l39.204 22.978c.398.233.563.812.37 1.292a.904.904 0 01-.37.448l-19.709 11.61a3.17 3.17 0 01-3.266 0l-39.203-22.978c-.399-.234-.564-.812-.372-1.292a.913.913 0 01.372-.448l19.71-11.61a3.17 3.17 0 013.264 0z"/><linearGradient id="aw" gradientUnits="userSpaceOnUse" x1="438.927" y1="39.316" x2="437.76" y2="39.507" gradientTransform="matrix(72.758 0 0 42.967 -31327.97 -1503.344)"><stop offset="0" stop-color="#188eff"/><stop offset="1" stop-color="#1b37d6"/></linearGradient><path fill="url(#aw)" d="M564.74 171.782l38.028 22.592c.382.225.541.781.355 1.244a.873.873 0 01-.355.431l-18.21 10.73a3.048 3.048 0 01-3.141 0l-38.52-22.315c-.382-.225-.543-.781-.355-1.244a.862.862 0 01.355-.43l18.7-11.007a3.045 3.045 0 013.143-.001z"/><path fill="#00BDFA" d="M562.113 178.728l-8.753 5.188a.36.36 0 00-.139.175c-.087.214-.014.471.139.56l28.245 16.554a1.979 1.979 0 002.046.002l8.754-5.188a.362.362 0 00.14-.175c.085-.213.013-.471-.14-.559l-28.245-16.554a1.98 1.98 0 00-2.046 0l-.001-.003zm30.596 16.036c.421.247.588.823.395 1.303a.96.96 0 01-.392.47l-8.754 5.187a2.58 2.58 0 01-2.657 0l-28.245-16.554c-.42-.248-.587-.824-.395-1.304a.955.955 0 01.393-.469l8.754-5.188a2.578 2.578 0 012.658 0l28.243 16.553v.002z"/><linearGradient id="ax" gradientUnits="userSpaceOnUse" x1="419.196" y1="47.016" x2="418.469" y2="47.052" gradientTransform="matrix(31.8292 0 0 18.6986 -12756.528 -689.367)"><stop offset="0" stop-color="#1a22be"/><stop offset="1" stop-color="#0b0f89"/></linearGradient><path fill="url(#ax)" d="M564.049 182.601l21.867 12.753c.222.129.315.451.205.717a.496.496 0 01-.205.249l-2.375 1.386a1.777 1.777 0 01-1.822 0l-21.868-12.755c-.224-.129-.315-.45-.208-.716a.504.504 0 01.208-.25l2.375-1.385a1.775 1.775 0 011.821 0l.002.001z"/><linearGradient id="ay" gradientUnits="userSpaceOnUse" x1="419.12" y1="47.162" x2="418.397" y2="46.926" gradientTransform="matrix(31.8292 0 0 18.6966 -12756.528 -690.786)"><stop offset="0" stop-color="#00c2fa"/><stop offset="1" stop-color="#0b78ff"/></linearGradient><path fill="url(#ay)" d="M564.049 181.353l21.867 12.752c.222.129.315.451.205.718a.49.49 0 01-.205.248l-2.375 1.386a1.777 1.777 0 01-1.822 0l-21.868-12.752c-.224-.13-.315-.451-.208-.719a.5.5 0 01.208-.248v.071-.071l2.375-1.385a1.775 1.775 0 011.821 0h.002z"/><linearGradient id="az" gradientUnits="userSpaceOnUse" x1="360.443" y1="69.953" x2="359.147" y2="70.066" gradientTransform="matrix(11.8243 0 0 6.8691 -3658.467 -280.738)"><stop offset="0" stop-color="#1a22be"/><stop offset="1" stop-color="#0b0f89"/></linearGradient><path fill="url(#az)" d="M594.273 197.669l.835.422c.083.048.116.168.077.267a.186.186 0 01-.079.094l-8.167 4.763a.665.665 0 01-.681 0l-.834-.487c-.084-.048-.116-.104-.076-.204a.17.17 0 01.076-.091l8.168-4.764a.665.665 0 01.681 0z"/><linearGradient id="aA" gradientUnits="userSpaceOnUse" x1="444.745" y1="35.447" x2="444.745" y2="36.423" gradientTransform="matrix(122.649 0 0 103.55 -54018.629 -3482.102)"><stop offset="0" stop-color="#6be9ff" stop-opacity="0"/><stop offset="1" stop-color="#01f3fa"/></linearGradient><path opacity=".21" fill="url(#aA)" enable-background="new" d="M580.061 188.467H477.853c.043 57.736.043 86.55 0 86.441-.237-.595-.033-1.312.455-1.602l49.168-28.754c1.266-.749 2.74-.749 4.006 0l48.124 28.475c.197.118.359.313.455.556.105.266.105-28.105 0-85.116z"/><linearGradient id="aB" gradientUnits="userSpaceOnUse" x1="435.295" y1="35.571" x2="435.295" y2="36.547" gradientTransform="matrix(59.5615 0 0 98.214 -25424.207 -3300.695)"><stop offset="0" stop-color="#6be9ff" stop-opacity="0"/><stop offset="1" stop-color="#01f3fa"/></linearGradient><path opacity=".1" fill="url(#aB)" enable-background="new" d="M527.474 192.923h-49.622c.043 54.766.043 82.095 0 81.987-.236-.596-.032-1.313.455-1.603l49.167-28.754v-51.63z"/><g transform="matrix(1 0 0 -1 1124.387 242.045)"><linearGradient id="aC" gradientUnits="userSpaceOnUse" x1="-1804.986" y1="-893.057" x2="-1804.986" y2="-895.365" gradientTransform="matrix(110.867 0 0 130.577 199517.828 116671.281)"><stop offset="0" stop-color="#6be9ff" stop-opacity="0"/><stop offset="1" stop-color="#01f3fa"/></linearGradient><path fill="url(#aC)" d="M-641.759-28.813l6.236 3.564v85.091l-6.236-3.563v-85.092zm16.507 9.885l6.237 3.565v85.091l-6.237-3.565v-85.091zm16.485 9.802l6.237 3.564v85.091l-6.237-3.564V-9.126zm59.558-19.025l-6.238 3.564v85.089l6.238-3.563v-85.09zm-16.508 9.884l-6.237 3.564v85.091l6.238-3.564-.001-85.091zm-16.485 9.802L-588.44-4.9v85.09l6.238-3.564V-8.465z"/></g><linearGradient id="aD" gradientUnits="userSpaceOnUse" x1="382.731" y1="37.527" x2="382.638" y2="38.076" gradientTransform="matrix(15.5066 0 0 55.172 -5416.435 -1832.957)"><stop offset="0" stop-color="#188eff"/><stop offset="1" stop-color="#1b37d6"/></linearGradient><path opacity=".5" fill="url(#aD)" enable-background="new" d="M511.576 232.548l4.729 2.905c-.341.729-.515 1.501-.455 2.167l2.714 30.294c.442 4.938 2.383 8.622 5.428 10.561l-4.535-2.626.021.001c-3.202-1.89-5.252-5.636-5.706-10.722l-2.713-30.293c-.115-1.262.818-2.893.517-2.287z"/><linearGradient id="aE" gradientUnits="userSpaceOnUse" x1="422.276" y1="55.916" x2="421.109" y2="55.972" gradientTransform="matrix(34.706 0 0 11.1157 -14088.759 -413.065)"><stop offset="0" stop-color="#188eff"/><stop offset="1" stop-color="#1b37d6"/></linearGradient><path opacity=".5" fill="url(#aE)" enable-background="new" d="M535.954 210.603l23.119-6.427c.432-.121.807-.077 1.102.099l4.751 2.759c-.288-.154-.647-.186-1.059-.073l-23.118 6.425-4.795-2.785v.002z"/><linearGradient id="aF" gradientUnits="userSpaceOnUse" x1="422.508" y1="42.021" x2="421.784" y2="41.524" gradientTransform="matrix(34.945 0 0 29.768 -14226.3 -1020.791)"><stop offset="0" stop-color="#00c2fa"/><stop offset="1" stop-color="#0b78ff"/></linearGradient><path opacity=".8" fill="url(#aF)" enable-background="new" d="M516.306 235.453l-4.729-2.905c.313-.632.743-1.227 1.259-1.679l23.118-20.265 4.795 2.785-23.119 20.266a5.505 5.505 0 00-1.324 1.798z"/><linearGradient id="aG" gradientUnits="userSpaceOnUse" x1="435.406" y1="36.536" x2="435.082" y2="35.851" gradientTransform="matrix(59.6776 0 0 89.1829 -25431.215 -2985.852)"><stop offset="0" stop-color="#00c2fa"/><stop offset="1" stop-color="#0b78ff"/></linearGradient><path opacity=".8" fill="url(#aG)" enable-background="new" d="M517.63 233.653c-1.14.999-1.894 2.68-1.78 3.966l2.714 30.294c.623 6.955 4.219 11.419 9.684 12.032l12.502 1.397 12.497-15.828c5.468-6.924 9.063-15.539 9.685-23.214l2.714-33.427c.115-1.417-.639-2.229-1.778-1.912l-23.117 6.425-23.121 20.267z"/><linearGradient id="aH" gradientUnits="userSpaceOnUse" x1="429.081" y1="37.46" x2="428.757" y2="36.776" gradientTransform="matrix(44.5026 0 0 66.5063 -18545.559 -2226.254)"><stop offset="0" stop-color="#00c2fa"/><stop offset="1" stop-color="#0b78ff"/></linearGradient><path fill="url(#aH)" d="M523.507 236.315c-.848.744-1.409 1.999-1.324 2.957l2.023 22.59c.465 5.188 3.145 8.517 7.222 8.974l9.322 1.041 9.32-11.803c4.077-5.163 6.757-11.587 7.223-17.311l2.024-24.927c.086-1.057-.477-1.663-1.326-1.426l-17.24 4.792-17.244 15.113z"/><path fill="#00BDFA" d="M540.602 217.628l.065-.017 20.384-5.666c1.228-.342 2.065.559 1.949 2.001l-2.392 29.472c-.555 6.829-3.747 14.48-8.604 20.63l-11.125 14.087-11.186-1.25c-4.976-.557-8.244-4.617-8.805-10.882l-2.394-26.709c-.11-1.235.597-2.81 1.67-3.75l20.438-17.916zm.294.545l-20.333 17.824c-.935.82-1.559 2.21-1.465 3.243l2.391 26.709c.54 6.001 3.609 9.815 8.273 10.337l10.854 1.213 10.917-13.825c4.785-6.061 7.931-13.6 8.475-20.306l2.393-29.472c.086-1.06-.406-1.589-1.187-1.372l-20.318 5.649z"/><g opacity=".5"><linearGradient id="aI" gradientUnits="userSpaceOnUse" x1="444.753" y1="35.773" x2="444.753" y2="36.749" gradientTransform="matrix(122.698 0 0 88.2538 -54040.883 -2926.55)"><stop offset="0" stop-color="#6be9ff" stop-opacity="0"/><stop offset="1" stop-color="#01f3fa"/></linearGradient><path fill="url(#aI)" d="M580.394 230.617c.159 28.989.159 43.682 0 44.078a1.12 1.12 0 01-.454.556l-48.123 28.477a3.858 3.858 0 01-4.007 0l-49.168-28.756c-.49-.289-.693-1.006-.456-1.602.063-.162.063-14.413 0-42.753h102.208z"/><linearGradient id="aJ" gradientUnits="userSpaceOnUse" x1="435.295" y1="35.797" x2="435.295" y2="36.773" gradientTransform="matrix(59.5615 0 0 87.582 -25424.207 -2904.332)"><stop offset="0" stop-color="#6be9ff" stop-opacity="0"/><stop offset="1" stop-color="#01f3fa"/></linearGradient><path fill="url(#aJ)" d="M527.474 230.898v73.11l-49.164-28.757c-.49-.289-.694-1.006-.458-1.602.064-.162.064-14.413 0-42.753h49.622v.002z"/><linearGradient id="aK" gradientUnits="userSpaceOnUse" x1="307.088" y1="35.57" x2="307.088" y2="36.614" gradientTransform="matrix(7.472 0 0 106.201 -1808.82 -3564.914)"><stop offset="0" stop-color="#6be9ff" stop-opacity="0"/><stop offset="1" stop-color="#01f3fa"/></linearGradient><path fill="url(#aK)" d="M482.628 192.415l6.236 3.563v85.091l-6.236-3.563v-85.091z"/><linearGradient id="aL" gradientUnits="userSpaceOnUse" x1="306.651" y1="35.651" x2="306.651" y2="36.595" gradientTransform="matrix(7.472 0 0 106.201 -1789.046 -3553.04)"><stop offset="0" stop-color="#6be9ff" stop-opacity="0"/><stop offset="1" stop-color="#01f3fa"/></linearGradient><path fill="url(#aL)" d="M499.135 202.3l6.237 3.564v85.091l-6.237-3.564V202.3z"/><linearGradient id="aM" gradientUnits="userSpaceOnUse" x1="306.234" y1="35.878" x2="306.234" y2="36.576" gradientTransform="matrix(7.473 0 0 106.201 -1769.75 -3541.227)"><stop offset="0" stop-color="#6be9ff" stop-opacity="0"/><stop offset="1" stop-color="#01f3fa"/></linearGradient><path fill="url(#aM)" d="M515.62 212.102l6.237 3.563v85.092l-6.237-3.564v-85.091z"/><linearGradient id="aN" gradientUnits="userSpaceOnUse" x1="602.697" y1="35.568" x2="602.697" y2="36.612" gradientTransform="matrix(-7.472 0 0 106.201 5075.414 -3564.04)"><stop offset="0" stop-color="#6be9ff" stop-opacity="0"/><stop offset="1" stop-color="#01f3fa"/></linearGradient><path fill="url(#aN)" d="M575.178 193.075l-6.238 3.564v85.091l6.238-3.563v-85.092z"/><linearGradient id="aO" gradientUnits="userSpaceOnUse" x1="601.804" y1="35.877" x2="601.804" y2="36.575" gradientTransform="matrix(-7.473 0 0 106.201 5036.343 -3540.477)"><stop offset="0" stop-color="#6be9ff" stop-opacity="0"/><stop offset="1" stop-color="#01f3fa"/></linearGradient><path fill="url(#aO)" d="M542.185 212.763l-6.238 3.564v85.09l6.238-3.563v-85.091z"/></g><g transform="translate(1190.625 249.06)" filter="url(#aP)"><linearGradient id="aQ" gradientUnits="userSpaceOnUse" x1="-2056.207" y1="81.002" x2="-2056.931" y2="80.774" gradientTransform="matrix(8.577 0 0 4.951 16989.705 -366.205)"><stop offset="0" stop-color="#00c2fa"/><stop offset="1" stop-color="#0b78ff"/></linearGradient><path fill="url(#aQ)" d="M-649.314 36.37l-3.579-2.065 3.579-2.067 3.581 2.067-3.581 2.065z"/><linearGradient id="aR" gradientUnits="userSpaceOnUse" x1="-2184.607" y1="66.825" x2="-2185.843" y2="64.873" gradientTransform="matrix(4.289 0 0 7.427 8726.73 -452.863)"><stop offset="0" stop-color="#00c2fa"/><stop offset="1" stop-color="#0b78ff"/></linearGradient><path fill="url(#aR)" d="M-645.733 34.304l-3.581-2.067v-4.133l3.581 2.067v4.133z"/><linearGradient id="aS" gradientUnits="userSpaceOnUse" x1="-2185.339" y1="64.884" x2="-2185.729" y2="65.434" gradientTransform="matrix(4.288 0 0 7.427 8720.516 -452.863)"><stop offset="0" stop-color="#188eff"/><stop offset="1" stop-color="#1b37d6"/></linearGradient><path fill="url(#aS)" d="M-649.314 32.238l-3.579 2.067v-4.132l3.579-2.067v4.132z"/></g><g transform="translate(1199.39 219.843)" filter="url(#aT)"><linearGradient id="aU" gradientUnits="userSpaceOnUse" x1="-2073.907" y1="81.977" x2="-2074.63" y2="81.749" gradientTransform="matrix(8.577 0 0 4.951 17140.059 -366.204)"><stop offset="0" stop-color="#00c2fa"/><stop offset="1" stop-color="#0b78ff"/></linearGradient><path fill="url(#aU)" d="M-650.762 41.198l-3.579-2.066 3.579-2.066 3.579 2.066-3.579 2.066z"/><linearGradient id="aV" gradientUnits="userSpaceOnUse" x1="-2202.476" y1="67.473" x2="-2203.71" y2="65.523" gradientTransform="matrix(4.289 0 0 7.427 8801.917 -452.863)"><stop offset="0" stop-color="#00c2fa"/><stop offset="1" stop-color="#0b78ff"/></linearGradient><path fill="url(#aV)" d="M-647.183 39.132l-3.579-2.066v-4.133l3.579 2.067v4.132z"/><linearGradient id="aW" gradientUnits="userSpaceOnUse" x1="-2203.206" y1="65.535" x2="-2203.595" y2="66.084" gradientTransform="matrix(4.288 0 0 7.427 8795.683 -452.863)"><stop offset="0" stop-color="#188eff"/><stop offset="1" stop-color="#1b37d6"/></linearGradient><path fill="url(#aW)" d="M-650.762 37.065l-3.579 2.066v-4.133l3.579-2.067v4.134z"/></g><g transform="rotate(-75 718.302 -664.667)" filter="url(#aX)"><linearGradient id="aY" gradientUnits="userSpaceOnUse" x1="-1615.173" y1="-1619.888" x2="-1615.896" y2="-1620.117" gradientTransform="matrix(8.577 .00001 .00002 4.951 13653.958 7408.147)"><stop offset="0" stop-color="#00c2fa"/><stop offset="1" stop-color="#0b78ff"/></linearGradient><path fill="url(#aY)" d="M-199.31-610.33l-3.58-2.067 3.58-2.065 3.58 2.066-3.58 2.066z"/><linearGradient id="aZ" gradientUnits="userSpaceOnUse" x1="-1676.407" y1="-1551.919" x2="-1677.643" y2="-1553.871" gradientTransform="matrix(4.289 .00004 .00001 7.427 6991.212 10913.379)"><stop offset="0" stop-color="#00c2fa"/><stop offset="1" stop-color="#0b78ff"/></linearGradient><path fill="url(#aZ)" d="M-195.73-612.396l-3.58-2.066v-4.133l3.58 2.066v4.133z"/><linearGradient id="ba" gradientUnits="userSpaceOnUse" x1="-1675.852" y1="-1552.26" x2="-1676.241" y2="-1551.711" gradientTransform="matrix(4.288 .00004 -.00002 7.427 6985.306 10913.378)"><stop offset="0" stop-color="#188eff"/><stop offset="1" stop-color="#1b37d6"/></linearGradient><path fill="url(#ba)" d="M-199.31-614.462l-3.58 2.065v-4.133l3.58-2.065v4.133z"/></g><g transform="rotate(-30 1032.226 -2165.775)" filter="url(#bb)"><linearGradient id="bc" gradientUnits="userSpaceOnUse" x1="-2198.193" y1="-682.142" x2="-2198.916" y2="-682.37" gradientTransform="matrix(8.577 0 0 4.951 18273.615 3083.31)"><stop offset="0" stop-color="#00c2fa"/><stop offset="1" stop-color="#0b78ff"/></linearGradient><path fill="url(#bc)" d="M-582.08-293.034l-3.579-2.066 3.58-2.067 3.581 2.068-3.582 2.065z"/><linearGradient id="bd" gradientUnits="userSpaceOnUse" x1="-2324.638" y1="-657.085" x2="-2325.873" y2="-659.035" gradientTransform="matrix(4.289 -.00002 0 7.427 9390.413 4594.474)"><stop offset="0" stop-color="#00c2fa"/><stop offset="1" stop-color="#0b78ff"/></linearGradient><path fill="url(#bd)" d="M-578.499-295.1l-3.581-2.067v-4.133l3.581 2.067v4.133z"/><linearGradient id="be" gradientUnits="userSpaceOnUse" x1="-2324.325" y1="-658.9" x2="-2324.715" y2="-658.351" gradientTransform="matrix(4.288 -.00002 0 7.427 9384.015 4594.472)"><stop offset="0" stop-color="#188eff"/><stop offset="1" stop-color="#1b37d6"/></linearGradient><path fill="url(#be)" d="M-582.08-297.167l-3.58 2.067v-4.133l3.58-2.067v4.133z"/></g><g transform="rotate(-60 785.923 -901.186)" filter="url(#bf)"><linearGradient id="bg" gradientUnits="userSpaceOnUse" x1="-1835.141" y1="-1337.985" x2="-1835.865" y2="-1338.213" gradientTransform="matrix(8.577 0 0 4.951 15391.986 6084.188)"><stop offset="0" stop-color="#00c2fa"/><stop offset="1" stop-color="#0b78ff"/></linearGradient><path fill="url(#bg)" d="M-348.341-538.974l-3.58-2.066 3.58-2.068 3.581 2.068-3.581 2.066z"/><linearGradient id="bh" gradientUnits="userSpaceOnUse" x1="-1924.228" y1="-1280.835" x2="-1925.463" y2="-1282.786" gradientTransform="matrix(4.289 .00002 0 7.427 7904.545 8975.09)"><stop offset="0" stop-color="#00c2fa"/><stop offset="1" stop-color="#0b78ff"/></linearGradient><path fill="url(#bh)" d="M-344.761-541.04l-3.581-2.068.001-4.131 3.58 2.066v4.133z"/><linearGradient id="bi" gradientUnits="userSpaceOnUse" x1="-1923.476" y1="-1281.68" x2="-1923.866" y2="-1281.131" gradientTransform="matrix(4.288 .00002 0 7.427 7898.494 8975.089)"><stop offset="0" stop-color="#188eff"/><stop offset="1" stop-color="#1b37d6"/></linearGradient><path fill="url(#bi)" d="M-348.341-543.108l-3.579 2.068v-4.132l3.58-2.067-.001 4.131z"/></g><g transform="rotate(-105 678.265 -369.172)" filter="url(#bj)"><linearGradient id="bk" gradientUnits="userSpaceOnUse" x1="-1008.15" y1="-1955.447" x2="-1008.873" y2="-1955.675" gradientTransform="matrix(8.577 -.00001 -.00002 4.951 8783.952 9044.872)"><stop offset="0" stop-color="#00c2fa"/><stop offset="1" stop-color="#0b78ff"/></linearGradient><path fill="url(#bk)" d="M137.088-635.077l-3.579-2.067 3.579-2.066 3.581 2.068-3.581 2.065z"/><linearGradient id="bl" gradientUnits="userSpaceOnUse" x1="-1001.19" y1="-1877.56" x2="-1002.426" y2="-1879.511" gradientTransform="matrix(4.289 -.00004 -.00001 7.427 4438.583 13314.753)"><stop offset="0" stop-color="#00c2fa"/><stop offset="1" stop-color="#0b78ff"/></linearGradient><path fill="url(#bl)" d="M140.669-637.143l-3.581-2.067-.001-4.133 3.581 2.067.001 4.133z"/><linearGradient id="bm" gradientUnits="userSpaceOnUse" x1="-1002.053" y1="-1879.073" x2="-1002.442" y2="-1878.524" gradientTransform="matrix(4.288 -.00004 .00002 7.427 4433.315 13314.753)"><stop offset="0" stop-color="#188eff"/><stop offset="1" stop-color="#1b37d6"/></linearGradient><path fill="url(#bm)" d="M137.088-639.21l-3.58 2.066v-4.133l3.579-2.066.001 4.133z"/></g><linearGradient id="bn" gradientUnits="userSpaceOnUse" x1="438.625" y1="35.692" x2="439.745" y2="35.692" gradientTransform="matrix(75.5642 0 0 107.8558 -32693.04 -3575.219)"><stop offset="0" stop-color="#1a22be"/><stop offset=".637" stop-color="#0b0d7e"/><stop offset="1" stop-color="#1a22be"/></linearGradient><path fill="url(#bn)" d="M527.779 240.746v65.488c.047.216.033.454-.054.67a.885.885 0 01-.37.448l-19.711 11.607a3.166 3.166 0 01-3.264 0l-39.204-22.976c-.246-.145-.404-.423-.441-.729h-.01v-65.877l63.054 11.369z"/><path fill="#0B0F89" d="M471.737 289.788a.987.987 0 01.552.883v5.559a.328.328 0 01-.473.294l-1.023-.5a.983.983 0 01-.55-.883v-5.559a.327.327 0 01.471-.295l1.023.501zm-3.164-1.742a.981.981 0 01.551.882v5.559a.326.326 0 01-.472.293l-1.023-.501a.98.98 0 01-.55-.881v-5.559a.328.328 0 01.47-.294l1.024.501z"/><linearGradient id="bo" gradientUnits="userSpaceOnUse" x1="414.446" y1="35.911" x2="414.337" y2="35.773" gradientTransform="matrix(28.0622 0 0 95.8328 -11115.38 -3166.586)"><stop offset="0" stop-color="#0f0856"/><stop offset="1" stop-color="#0b0f89"/></linearGradient><path fill="url(#bo)" d="M527.704 240.623v65.488c.048.217.033.454-.054.67a.89.89 0 01-.369.449l-19.711 11.609a3.17 3.17 0 01-3.266 0v-79.546l23.4 1.33z"/><path fill="#0B0F89" d="M488.152 217.028l39.204 22.979c.396.233.563.811.369 1.292a.894.894 0 01-.369.446l-19.711 11.61a3.168 3.168 0 01-3.265 0l-39.204-22.977c-.397-.233-.564-.812-.371-1.292a.905.905 0 01.371-.447l19.711-11.611a3.164 3.164 0 013.265 0z"/><linearGradient id="bp" gradientUnits="userSpaceOnUse" x1="439.137" y1="39.109" x2="437.968" y2="39.301" gradientTransform="matrix(72.758 0 0 42.967 -31419.863 -1449.188)"><stop offset="0" stop-color="#188eff"/><stop offset="1" stop-color="#1b37d6"/></linearGradient><path fill="url(#bp)" d="M488.121 217.008l38.028 22.591c.383.225.543.782.357 1.245a.865.865 0 01-.357.43l-18.209 10.731a3.046 3.046 0 01-3.14 0l-38.52-22.315c-.383-.226-.543-.781-.357-1.245a.863.863 0 01.357-.429l18.699-11.007a3.043 3.043 0 013.142-.001z"/><path fill="#00BDFA" d="M485.497 223.954l-8.753 5.187a.35.35 0 00-.139.176c-.087.213-.014.47.139.559l28.245 16.553c.628.38 1.415.381 2.044.002l8.754-5.188a.35.35 0 00.14-.175c.086-.213.013-.471-.14-.56l-28.243-16.554a1.983 1.983 0 00-2.047 0zm30.595 16.035c.422.248.587.825.395 1.303a.952.952 0 01-.392.471l-8.754 5.187c-.817.49-1.839.49-2.656 0l-28.246-16.554c-.421-.248-.586-.825-.394-1.304a.945.945 0 01.393-.469l8.754-5.188a2.581 2.581 0 012.655 0l28.245 16.554z"/><linearGradient id="bq" gradientUnits="userSpaceOnUse" x1="419.673" y1="46.538" x2="418.945" y2="46.575" gradientTransform="matrix(31.8292 0 0 18.6986 -12848.317 -635.21)"><stop offset="0" stop-color="#1a22be"/><stop offset="1" stop-color="#0b0f89"/></linearGradient><path fill="url(#bq)" d="M487.431 227.827l21.868 12.753c.222.129.315.451.207.718a.505.505 0 01-.207.249l-2.375 1.385a1.773 1.773 0 01-1.822 0l-21.869-12.754c-.222-.129-.314-.451-.207-.717a.5.5 0 01.207-.249l2.376-1.386a1.775 1.775 0 011.821 0l.001.001z"/><linearGradient id="br" gradientUnits="userSpaceOnUse" x1="419.596" y1="46.685" x2="418.873" y2="46.448" gradientTransform="matrix(31.8292 0 0 18.6966 -12848.317 -636.63)"><stop offset="0" stop-color="#00c2fa"/><stop offset="1" stop-color="#0b78ff"/></linearGradient><path fill="url(#br)" d="M487.431 226.578l21.868 12.753c.222.129.315.45.207.718a.503.503 0 01-.207.248l-2.375 1.385a1.777 1.777 0 01-1.822 0l-21.869-12.753c-.222-.129-.314-.451-.207-.718a.496.496 0 01.207-.247v.07-.07l2.376-1.386a1.773 1.773 0 011.822 0z"/><linearGradient id="bs" gradientUnits="userSpaceOnUse" x1="361.726" y1="68.65" x2="360.429" y2="68.763" gradientTransform="matrix(11.8243 0 0 6.8691 -3750.258 -226.566)"><stop offset="0" stop-color="#1a22be"/><stop offset="1" stop-color="#0b0f89"/></linearGradient><path fill="url(#bs)" d="M517.656 242.895l.834.422c.083.048.116.167.076.268a.188.188 0 01-.076.093l-8.168 4.763a.66.66 0 01-.681 0l-.835-.486c-.083-.048-.116-.103-.077-.203a.189.189 0 01.077-.092l8.169-4.764a.658.658 0 01.681-.001z"/></svg>